<?xml version="1.0" standalone="no"?>
<!DOCTYPE svg PUBLIC "-//W3C//DTD SVG 1.1//EN" "http://www.w3.org/Graphics/SVG/1.1/DTD/svg11.dtd" >
<svg xmlns="http://www.w3.org/2000/svg" xmlns:xlink="http://www.w3.org/1999/xlink" version="1.1">
<metadata>
Created by FontForge 20170731 at Tue Nov 17 20:21:43 2015
 By Aleksey,,,
Copyright (c) 2009 by Fontsmith Ltd. All rights reserved. This font may not be altered in any way without prior permission of Fontsmith Ltd.
</metadata>
<defs>
<font id="Telefonica-Bold" horiz-adv-x="600" >
  <font-face 
    font-family="Telefonica"
    font-weight="700"
    font-stretch="normal"
    units-per-em="1000"
    panose-1="0 0 8 0 0 0 0 0 0 0"
    ascent="750"
    descent="-250"
    x-height="490"
    cap-height="684"
    bbox="-416 -360 1353 1243"
    underline-thickness="97"
    underline-position="-196"
    unicode-range="U+000D-FB02"
  />
<missing-glyph horiz-adv-x="642" 
d="M86 660h470v-660h-470v660zM480 612h-320l161 -240zM293 331l-159 239v-480zM510 570l-160 -239l160 -241v480zM480 49l-159 239l-161 -239h320z" />
    <glyph glyph-name="fi" unicode="fi" horiz-adv-x="618" 
d="M98 397h-84v87l84 5v68q0 39 9 66.5t27 48.5q28 31 73.5 45.5t117.5 14.5q30 0 69.5 -3t64.5 -8v-102q-14 2 -45 4t-52 2q-67 0 -94 -16t-27 -60v-59h314v-490h-143v397h-171v-397h-143v397z" />
    <glyph glyph-name="fl" unicode="fl" horiz-adv-x="618" 
d="M98 397h-84v87l84 5v68q0 46 9.5 77t31.5 53q23 23 63.5 34t126.5 11q55 0 121 -3.5t105 -8.5v-720h-143v620q-60 5 -90 5q-28 0 -43 -4.5t-24 -13.5q-7 -7 -10.5 -20t-3.5 -38v-59h106v-93h-106v-397h-143v397z" />
    <glyph glyph-name=".notdef" horiz-adv-x="642" 
d="M86 660h470v-660h-470v660zM480 612h-320l161 -240zM293 331l-159 239v-480zM510 570l-160 -239l160 -241v480zM480 49l-159 239l-161 -239h320z" />
    <glyph glyph-name=".null" horiz-adv-x="0" 
 />
    <glyph glyph-name="nonmarkingreturn" unicode="&#xd;" horiz-adv-x="225" 
 />
    <glyph glyph-name="space" unicode=" " horiz-adv-x="225" 
 />
    <glyph glyph-name="exclam" unicode="!" horiz-adv-x="290" 
d="M68 684h150l-22 -470h-106zM87 2q-18 16 -18 53v12q0 37 18 53t55 16h7q37 0 55 -16t18 -53v-12q0 -37 -18 -53t-55 -16h-7q-37 0 -55 16z" />
    <glyph glyph-name="quotedbl" unicode="&#x22;" horiz-adv-x="477" 
d="M62 684h139l-16 -264h-106zM276 684h139l-16 -264h-106z" />
    <glyph glyph-name="numbersign" unicode="#" horiz-adv-x="596" 
d="M117 204h-64v91h80l17 94h-97v91h121l38 204h107l-38 -204h92l38 204h107l-38 -204h62v-91h-86l-16 -94h103v-91h-120l-38 -204h-107l36 204h-90l-38 -204h-107zM332 295l17 94h-92l-16 -94h91z" />
    <glyph glyph-name="dollar" unicode="$" 
d="M251 -13q-54 1 -99 9.5t-92 24.5v120q47 -16 101.5 -26t105.5 -10q134 0 134 83q0 26 -17 42.5t-42.5 26.5t-71.5 22q-69 19 -113 39t-75.5 63t-31.5 116q0 88 54 137.5t147 59.5v106h91v-104q87 -5 152 -26v-118q-41 11 -95.5 18.5t-90.5 7.5q-111 0 -111 -74
q0 -26 17 -43t42 -26.5t72 -22.5q68 -18 112.5 -38.5t76 -63.5t31.5 -115q0 -90 -57 -144q-55 -52 -149 -62v-117h-91v115z" />
    <glyph glyph-name="percent" unicode="%" horiz-adv-x="999" 
d="M94.5 333.5q-44.5 53.5 -44.5 155.5q0 101 44.5 154.5t133.5 53.5t134.5 -53.5t45.5 -154.5t-45.5 -155t-134.5 -54t-133.5 53.5zM620 697h123l-365 -711h-123zM277 403q14 28 14 86q0 57 -14 85t-49 28t-48.5 -27.5t-13.5 -85.5t13.5 -86t48.5 -28t49 28zM636 39.5
q-45 53.5 -45 154.5q0 102 45 155.5t134 53.5t134 -53.5t45 -155.5q0 -101 -45 -154.5t-134 -53.5t-134 53.5zM819 109q14 28 14 85q0 58 -14 86t-49 28q-36 0 -49 -27.5t-13 -86.5q0 -58 13 -85.5t49 -27.5q35 0 49 28z" />
    <glyph glyph-name="ampersand" unicode="&#x26;" horiz-adv-x="693" 
d="M492 53q-41 -32 -96 -49.5t-117 -17.5q-72 0 -127 24.5t-85 70.5t-30 107q0 62 36 111.5t108 77.5q-39 43 -55 79t-16 76q0 74 50 119.5t132 45.5q79 0 126.5 -42t47.5 -113q0 -49 -32 -91.5t-90 -69.5l155 -164q15 22 29 61.5t18 69.5h99q-4 -52 -25.5 -110t-49.5 -96
l93 -98l-81 -81zM342.5 488.5q15.5 23.5 15.5 50.5t-17 43t-48 16q-30 0 -47.5 -16t-17.5 -42q0 -24 13.5 -46t49.5 -58q36 29 51.5 52.5zM419 129l-183 191q-28 -19 -44.5 -48.5t-16.5 -62.5q0 -50 34 -80.5t95 -30.5q65 0 115 31z" />
    <glyph glyph-name="quotesingle" unicode="'" horiz-adv-x="263" 
d="M62 684h139l-16 -264h-106z" />
    <glyph glyph-name="parenleft" unicode="(" horiz-adv-x="359" 
d="M102 -22.5q-61 125.5 -61 282.5t61 283t180 205l66 -75q-150 -153 -150 -413q0 -139 39.5 -239t110.5 -173l-66 -75q-119 79 -180 204.5z" />
    <glyph glyph-name="parenright" unicode=")" horiz-adv-x="359" 
d="M11 -152q71 73 110.5 173t39.5 239t-39.5 239t-110.5 173l66 75q119 -79 180 -204.5t61 -282.5t-61 -282.5t-180 -204.5z" />
    <glyph glyph-name="asterisk" unicode="*" horiz-adv-x="460" 
d="M75 349l96 117l-143 40l36 88l129 -56l-11 146h93l-8 -146l129 56l36 -88l-143 -40l96 -117l-72 -60l-83 127l-83 -127z" />
    <glyph glyph-name="plus" unicode="+" 
d="M253 277h-140v94h140v140h94v-140h140v-94h-140v-140h-94v140z" />
    <glyph glyph-name="comma" unicode="," horiz-adv-x="239" 
d="M101 -17q-33 11 -46 28.5t-13 49.5q0 36 18.5 55.5t54.5 19.5h7q36 0 54.5 -19.5t18.5 -55.5v-27q0 -50 -7 -108.5t-15 -84.5h-72v142z" />
    <glyph glyph-name="hyphen" unicode="-" horiz-adv-x="334" 
d="M46 319h242v-119h-242v119z" />
    <glyph glyph-name="period" unicode="." horiz-adv-x="239" 
d="M61 2q-18 16 -18 53v12q0 37 18 53t55 16h7q37 0 55 -16t18 -53v-12q0 -37 -18 -53t-55 -16h-7q-37 0 -55 16z" />
    <glyph glyph-name="slash" unicode="/" horiz-adv-x="480" 
d="M327 697h127l-301 -711h-127z" />
    <glyph glyph-name="zero" unicode="0" 
d="M99.5 73.5q-61.5 87.5 -61.5 267.5t61.5 268t200.5 88t200.5 -88t61.5 -268t-61.5 -267.5t-200.5 -87.5t-200.5 87.5zM366 122q24 21 35.5 73t11.5 146q0 95 -11.5 149.5t-36 78t-65.5 23.5t-65.5 -23.5t-36 -78t-11.5 -149.5q0 -94 11.5 -146t35.5 -73t66 -21t66 21z
" />
    <glyph glyph-name="one" unicode="1" 
d="M124 102h116v483h-111v97q33 5 78.5 8.5t80.5 3.5q53 0 74 -15t21 -53v-524h98v-102h-357v102z" />
    <glyph glyph-name="two" unicode="2" 
d="M72 32q0 31 9 55t31 50l133 162q62 75 85 114.5t23 79.5q0 44 -27 66q-30 26 -104 26q-64 0 -134 -13v106q32 8 75.5 13.5t83.5 5.5q141 0 205 -64q49 -49 49 -133q0 -63 -32 -120.5t-114 -147.5l-119 -130h276v-102h-436q-4 11 -4 32z" />
    <glyph glyph-name="three" unicode="3" 
d="M88 2v108q69 -12 137 -12q42 0 68.5 5.5t44.5 17.5q37 25 37 79q0 51 -34 75q-18 13 -49 18.5t-84 5.5h-19v100h24q47 0 74 6.5t45 22.5q27 24 27 70q0 42 -23 62q-29 26 -108 26q-67 0 -134 -10v106q69 15 157 15q66 0 118 -15.5t83 -46.5q47 -47 47 -126
q0 -105 -91 -151q115 -42 115 -169q0 -82 -48 -132q-68 -71 -222 -71q-91 0 -165 16z" />
    <glyph glyph-name="four" unicode="4" 
d="M345 157h-301q-4 14 -4 35q0 46 21 104l142 388h138l-154 -420h158v163h143v-163h80v-107h-80v-157h-143v157z" />
    <glyph glyph-name="five" unicode="5" 
d="M103 2v107q57 -11 126 -11q84 0 118.5 28t34.5 82q0 38 -11 61.5t-40 35.5t-83 12h-139q-7 27 -5 77l12 290h374v-102h-251l-6 -154h36q134 0 197.5 -52.5t63.5 -161.5q0 -112 -63.5 -170t-202.5 -58q-89 0 -161 16z" />
    <glyph glyph-name="six" unicode="6" 
d="M120 67.5q-58 81.5 -58 242.5q0 228 93 321q34 34 83 50t118 16q66 0 141 -13v-109q-58 10 -108 10q-51 0 -82.5 -8t-51.5 -28q-22 -22 -31.5 -57t-11.5 -89q32 17 71.5 26t76.5 9q92 0 142.5 -55.5t50.5 -157.5q0 -115 -62 -177t-180 -62q-133 0 -191 81.5zM411 220
q0 64 -22.5 87t-78.5 23q-22 0 -50.5 -3t-49.5 -7v-38q0 -100 23 -143.5t81 -43.5q97 0 97 125z" />
    <glyph glyph-name="seven" unicode="7" 
d="M402 582h-319v102h446q7 -11 7 -41q0 -54 -16 -98l-192 -545h-153z" />
    <glyph glyph-name="eight" unicode="8" 
d="M164 10q-54 24 -81.5 66t-27.5 95q0 115 115 175q-49 31 -70.5 69t-21.5 90q0 58 27.5 101.5t77.5 67t116 23.5q100 0 157.5 -47t57.5 -126q0 -47 -26.5 -88t-71.5 -69q70 -35 99.5 -75.5t29.5 -103.5q0 -95 -65.5 -148.5t-182.5 -53.5q-79 0 -133 24zM367 460.5
q17 25.5 17 50.5q0 35 -22.5 56.5t-63.5 21.5q-37 0 -61.5 -18.5t-24.5 -52.5q0 -30 21 -52.5t72 -46.5l15 -7q30 23 47 48.5zM375.5 119.5q27.5 22.5 27.5 57.5q0 31 -21 53.5t-79 49.5l-44 20q-30 -26 -46.5 -56t-16.5 -61q0 -40 27 -63t76 -23t76.5 22.5z" />
    <glyph glyph-name="nine" unicode="9" 
d="M103 -1v109q58 -10 108 -10q51 0 82.5 8t51.5 28q22 22 31.5 57t11.5 89q-32 -17 -71.5 -26t-76.5 -9q-92 0 -142.5 55.5t-50.5 157.5q0 115 62 177t180 62q133 0 191 -81.5t58 -242.5q0 -228 -93 -321q-34 -34 -83 -50t-118 -16q-66 0 -141 13zM340.5 356q28.5 3 49.5 7
v38q0 100 -23 143.5t-81 43.5q-97 0 -97 -125q0 -64 22.5 -87t78.5 -23q22 0 50.5 3z" />
    <glyph glyph-name="colon" unicode=":" horiz-adv-x="239" 
d="M61 282q-18 16 -18 53v12q0 37 18 53t55 16h7q37 0 55 -16t18 -53v-12q0 -37 -18 -53t-55 -16h-7q-37 0 -55 16zM61 2q-18 16 -18 53v12q0 37 18 53t55 16h7q37 0 55 -16t18 -53v-12q0 -37 -18 -53t-55 -16h-7q-37 0 -55 16z" />
    <glyph glyph-name="semicolon" unicode=";" horiz-adv-x="239" 
d="M61 282q-18 16 -18 53v12q0 37 18 53t55 16h7q37 0 55 -16t18 -53v-12q0 -37 -18 -53t-55 -16h-7q-37 0 -55 16zM102 -17q-33 11 -46 28.5t-13 49.5q0 36 18.5 55.5t54.5 19.5h7q36 0 54.5 -19.5t18.5 -55.5v-27q0 -50 -7 -108.5t-15 -84.5h-72v142z" />
    <glyph glyph-name="less" unicode="&#x3c;" 
d="M113 278v92l374 185v-106l-269 -124l269 -120v-112z" />
    <glyph glyph-name="equal" unicode="=" 
d="M113 467h374v-94h-374v94zM113 275h374v-94h-374v94z" />
    <glyph glyph-name="greater" unicode="&#x3e;" 
d="M113 205l269 120l-269 124v106l374 -185v-92l-374 -185v112z" />
    <glyph glyph-name="question" unicode="?" horiz-adv-x="435" 
d="M143 246q0 32 15 59.5t50 78.5q24 33 36.5 59.5t12.5 57.5q0 38 -20 58q-24 22 -78 22q-46 0 -104 -18l-19 104q34 13 78 21.5t81 8.5q106 0 160 -46t54 -132q0 -55 -21.5 -92t-63.5 -81q-34 -37 -53 -65t-26 -66h-99q-3 17 -3 31zM138 2q-18 16 -18 53v12q0 37 18 53
t55 16h7q37 0 55 -16t18 -53v-12q0 -37 -18 -53t-55 -16h-7q-37 0 -55 16z" />
    <glyph glyph-name="at" unicode="@" horiz-adv-x="790" 
d="M265 7q-70 21 -119 64q-52 45 -80 113t-28 155q0 108 44 189t127.5 125t197.5 44q108 0 186 -42t118.5 -115.5t40.5 -165.5q0 -102 -46 -164.5t-140 -62.5q-64 0 -96 37h-2q-19 -15 -48.5 -25t-56.5 -10q-55 0 -87.5 31.5t-32.5 84.5q0 64 36 93.5t119 29.5h57v4
q0 31 -15.5 41t-53.5 10q-56 0 -102 -11l-5 84q69 15 129 15q83 0 118 -42q27 -31 27 -96v-159q9 -3 21 -3q41 0 60 31t19 92q0 119 -63.5 184t-184.5 65q-122 0 -190 -68t-68 -191q0 -137 73 -201q37 -34 94.5 -51t140.5 -17q80 0 158 15l5 -86q-82 -18 -185 -18
q-98 0 -168 21zM455 245v68h-54q-31 0 -43.5 -9.5t-12.5 -31.5q0 -38 50 -38q29 0 60 11z" />
    <glyph glyph-name="A" unicode="A" horiz-adv-x="658" 
d="M234 684h172l247 -684h-167l-57 172h-222l-53 -172h-149zM391 285l-75 228h-2l-71 -228h148z" />
    <glyph glyph-name="B" unicode="B" horiz-adv-x="631" 
d="M74 684h223q72 0 119.5 -12.5t77.5 -38.5q48 -42 48 -117q0 -52 -24 -88.5t-72 -60.5q65 -9 105 -53.5t40 -110.5q0 -96 -57 -147q-33 -29 -85 -42.5t-132 -13.5h-243v684zM283 412q33 0 52.5 4.5t31.5 16.5q20 20 20 61q0 38 -19 57q-11 11 -30 15.5t-51 4.5h-57v-159
h53zM294 113q45 0 72 5.5t41 19.5q22 22 22 62q0 54 -26 76q-15 13 -40 18t-69 5h-64v-186h64z" />
    <glyph glyph-name="C" unicode="C" horiz-adv-x="589" 
d="M227 6.5q-60 20.5 -99 62.5q-43 46 -63 112.5t-20 157.5q0 168 81 263t250 95q44 0 95 -9t84 -22l-20 -114q-85 24 -147 24q-103 0 -142 -60t-39 -173q0 -132 49 -187q23 -26 58 -37.5t92 -11.5q25 0 60.5 4t65.5 10l16 -114q-31 -9 -80.5 -15t-91.5 -6q-89 0 -149 20.5z
" />
    <glyph glyph-name="D" unicode="D" horiz-adv-x="686" 
d="M74 684h211q100 0 165.5 -17.5t107.5 -59.5q83 -81 83 -262q0 -93 -20.5 -158.5t-62.5 -109.5q-38 -39 -99.5 -58t-152.5 -19h-232v684zM296 114q106 0 147 61q20 30 28 68t8 102q0 72 -11 112t-37 68q-23 24 -59 34.5t-94 10.5h-48v-456h66z" />
    <glyph glyph-name="E" unicode="E" horiz-adv-x="583" 
d="M74 684h462l-12 -113h-294v-166h235v-117h-235v-175h311v-113h-467v684z" />
    <glyph glyph-name="F" unicode="F" horiz-adv-x="553" 
d="M74 684h451l-12 -113h-283v-166h224v-117h-224v-288h-156v684z" />
    <glyph glyph-name="G" unicode="G" horiz-adv-x="671" 
d="M121 76q-76 90 -76 262q0 166 88 262.5t258 96.5q51 0 105.5 -9.5t87.5 -23.5l-20 -114q-88 25 -162 25q-101 0 -148 -58t-47 -173q0 -126 40 -182q39 -55 132 -55q41 0 83 7v144h-96v112h251v-349q-49 -15 -118.5 -25t-125.5 -10q-176 0 -252 90z" />
    <glyph glyph-name="H" unicode="H" horiz-adv-x="701" 
d="M74 684h156v-279h241v279h156v-684h-156v288h-241v-288h-156v684z" />
    <glyph glyph-name="I" unicode="I" horiz-adv-x="308" 
d="M76 684h156v-684h-156v684z" />
    <glyph glyph-name="J" unicode="J" horiz-adv-x="414" 
d="M31 -5l-11 119q41 -8 81 -8q34 0 52.5 8t26.5 28t8 58v484h156v-488q0 -63 -11.5 -101.5t-37.5 -64.5q-23 -23 -61.5 -33.5t-96.5 -10.5q-43 0 -106 9z" />
    <glyph glyph-name="K" unicode="K" horiz-adv-x="652" 
d="M74 684h156v-286l229 286h178l-242 -277l249 -407h-185l-165 291l-64 -73v-218h-156v684z" />
    <glyph glyph-name="L" unicode="L" horiz-adv-x="551" 
d="M74 684h156v-571h303v-113h-459v684z" />
    <glyph glyph-name="M" unicode="M" horiz-adv-x="830" 
d="M74 684h123l216 -382l223 382h120v-684h-143v394l-142 -238h-120l-146 242v-398h-131v684z" />
    <glyph glyph-name="N" unicode="N" horiz-adv-x="724" 
d="M74 684h115l324 -438v438h137v-684h-125l-314 415v-415h-137v684z" />
    <glyph glyph-name="O" unicode="O" horiz-adv-x="696" 
d="M119 75.5q-74 89.5 -74 265.5t74.5 266t228.5 90t228.5 -90t74.5 -266t-74 -265.5t-229 -89.5t-229 89.5zM456.5 162.5q32.5 54.5 32.5 178.5t-33 179t-108 55t-108 -55t-33 -179t32.5 -178.5t108.5 -54.5t108.5 54.5z" />
    <glyph glyph-name="P" unicode="P" horiz-adv-x="619" 
d="M74 684h235q82 0 134.5 -13t84.5 -43q55 -51 55 -160t-51 -166q-30 -34 -77 -50t-115 -16h-110v-236h-156v684zM307 353q37 0 56.5 5.5t34.5 20.5q27 27 27 87q0 56 -26 81q-14 13 -37 18.5t-59 5.5h-73v-218h77z" />
    <glyph glyph-name="Q" unicode="Q" horiz-adv-x="698" 
d="M459 -31q-26 11 -42.5 14t-55.5 3h-13q-155 0 -229 89.5t-74 265.5t74.5 266t228.5 90t228.5 -90t74.5 -266q0 -211 -106 -296q59 -1 98 -6.5t73 -18.5q-7 -28 -24.5 -74.5t-29.5 -62.5zM456.5 162.5q32.5 54.5 32.5 178.5t-33 179t-108 55t-108 -55t-33 -179
t32.5 -178.5t108.5 -54.5t108.5 54.5z" />
    <glyph glyph-name="R" unicode="R" horiz-adv-x="648" 
d="M74 684h235q85 0 136 -12t84 -43q57 -54 57 -157q0 -71 -29.5 -123.5t-86.5 -79.5l148 -269h-176l-126 248h-86v-248h-156v684zM299 361q39 0 62 5.5t38 18.5q29 25 29 85q0 52 -24 76q-14 14 -39 19.5t-65 5.5h-70v-210h69z" />
    <glyph glyph-name="S" unicode="S" horiz-adv-x="590" 
d="M49 21l24 119q44 -15 97 -24.5t92 -9.5q70 0 102.5 20t32.5 67q0 35 -30.5 52t-96.5 34q-68 18 -113 38t-77 63t-32 117q0 100 70 150t185 50q50 0 101 -7.5t90 -20.5l-24 -116q-90 24 -164 24q-60 0 -85.5 -19t-25.5 -54q0 -26 16.5 -42.5t41.5 -26.5t72 -23
q68 -18 112 -38.5t75.5 -63.5t31.5 -115q0 -90 -57 -144q-36 -34 -86.5 -49.5t-124.5 -15.5q-126 0 -227 35z" />
    <glyph glyph-name="T" unicode="T" horiz-adv-x="608" 
d="M226 571h-212v113h587l-12 -113h-207v-571h-156v571z" />
    <glyph glyph-name="U" unicode="U" horiz-adv-x="694" 
d="M134 52q-34 34 -50 80.5t-16 118.5v433h155v-433q0 -40 7.5 -67.5t25.5 -45.5q32 -33 100 -33t99 32q18 18 25.5 45t7.5 68v434h138v-426q0 -69 -15.5 -119.5t-51.5 -84.5q-34 -32 -89 -50t-121 -18q-148 0 -215 66z" />
    <glyph glyph-name="V" unicode="V" horiz-adv-x="652" 
d="M12 684h167l160 -496l149 496h152l-227 -684h-163z" />
    <glyph glyph-name="W" unicode="W" horiz-adv-x="963" 
d="M12 684h165l127 -494l123 494h127l134 -493l122 493h141l-185 -684h-170l-112 399l-103 -399h-169z" />
    <glyph glyph-name="X" unicode="X" horiz-adv-x="635" 
d="M241 341l-209 343h163l136 -226l124 226h166l-224 -335l218 -349h-173l-136 232l-123 -232h-169z" />
    <glyph glyph-name="Y" unicode="Y" horiz-adv-x="662" 
d="M248 279l-236 405h176l150 -276l156 276h156l-246 -406v-278h-156v279z" />
    <glyph glyph-name="Z" unicode="Z" horiz-adv-x="596" 
d="M34 92l332 477h-322v115h514v-96l-327 -473h329v-115h-526v92z" />
    <glyph glyph-name="bracketleft" unicode="[" horiz-adv-x="372" 
d="M97 727h253v-100h-106v-734h106v-100h-253v934z" />
    <glyph glyph-name="backslash" unicode="\" horiz-adv-x="480" 
d="M26 697h127l301 -711h-127z" />
    <glyph glyph-name="bracketright" unicode="]" horiz-adv-x="372" 
d="M22 -107h106v734h-106v100h253v-934h-253v100z" />
    <glyph glyph-name="asciicircum" unicode="^" 
d="M260 685h79l176 -306h-118l-97 199l-100 -199h-115z" />
    <glyph glyph-name="underscore" unicode="_" horiz-adv-x="430" 
d="M0 -28h430v-97h-430v97z" />
    <glyph glyph-name="grave" unicode="`" horiz-adv-x="428" 
d="M87 559zM87 696l70 95l183 -170l-50 -62z" />
    <glyph glyph-name="a" unicode="a" horiz-adv-x="531" 
d="M75 30q-45 44 -45 117q0 33 11 62t32 49q26 24 68.5 34.5t111.5 10.5h78v16q0 39 -18 55q-23 20 -83 20q-33 0 -72 -4t-65 -9l-7 105q90 18 174 18q59 0 105.5 -13.5t70.5 -42.5q38 -44 38 -130v-318h-113l-12 30q-32 -21 -70.5 -32.5t-76.5 -11.5q-82 0 -127 44z
M287 99.5q25 4.5 44 10.5v101h-76q-27 0 -43 -4t-25 -13q-14 -14 -14 -41q0 -28 16.5 -43t53.5 -15q19 0 44 4.5z" />
    <glyph glyph-name="b" unicode="b" horiz-adv-x="560" 
d="M255 -2q-39 12 -70 33l-7 -31h-118v715h143v-244q25 15 62.5 24t72.5 9q187 0 187 -257q0 -67 -14 -120.5t-41 -83.5q-25 -29 -59 -43t-80 -14q-37 0 -76 12zM356 130.5q19 32.5 19 114.5q0 58 -9 89t-27.5 43t-50.5 12q-52 0 -85 -13v-254q18 -10 41.5 -17t43.5 -7
q49 0 68 32.5z" />
    <glyph glyph-name="c" unicode="c" horiz-adv-x="463" 
d="M75 84q-20 30 -30 69t-10 81q0 128 63 197q33 35 84 54t112 19q79 0 144 -18l-9 -106q-53 14 -113 14q-66 0 -99 -35q-33 -36 -33 -114q0 -77 34 -113.5t110 -36.5q50 0 102 10l11 -103q-38 -9 -68.5 -12.5t-69.5 -3.5q-165 0 -228 98z" />
    <glyph glyph-name="d" unicode="d" horiz-adv-x="562" 
d="M103 28q-68 67 -68 216q0 80 24 139t68 90t102 31q33 0 67.5 -9.5t62.5 -26.5v247h143v-715h-124l-3 35q-73 -49 -155 -49q-73 0 -117 42zM316.5 103q24.5 5 42.5 12v265q-35 11 -68 11q-53 0 -79.5 -33.5t-26.5 -117.5q0 -55 8.5 -85.5t28 -43.5t52.5 -13q18 0 42.5 5z
" />
    <glyph glyph-name="e" unicode="e" horiz-adv-x="528" 
d="M184.5 2.5q-51.5 16.5 -83.5 46.5q-66 63 -66 195q0 128 62 194t176 66q112 0 168.5 -60.5t56.5 -186.5v-45q0 -11 -12 -11h-301q3 -60 39 -83t112 -23q59 0 122 12l11 -104q-89 -17 -165 -17q-68 0 -119.5 16.5zM358 294q0 48 -22 75t-64 27q-82 0 -87 -102h173z" />
    <glyph glyph-name="f" unicode="f" horiz-adv-x="359" 
d="M98 397h-84v77l84 15v68q0 45 9.5 76.5t31.5 53.5q21 21 58.5 33t87.5 12q51 0 104 -11v-102q-40 6 -67 6q-26 0 -41.5 -4t-25.5 -14q-7 -7 -10.5 -20t-3.5 -38v-59h116v-93h-116v-397h-143v397z" />
    <glyph glyph-name="g" unicode="g" horiz-adv-x="541" 
d="M84.5 -207.5q-57.5 31.5 -57.5 97.5q0 29 15.5 52t42.5 37q-25 21 -25 64q0 31 17 62.5t48 56.5q-75 49 -75 154q0 95 57.5 141.5t163.5 46.5q24 0 48 -3l48 122q29 -7 59.5 -20.5t51.5 -29.5l-71 -99q84 -47 84 -158q0 -96 -57 -142.5t-163 -46.5q-37 0 -64 4
q-6 -11 -9.5 -22t-3.5 -17q0 -13 14 -13h96q70 0 114.5 -12.5t70.5 -39.5q36 -38 36 -104q0 -162 -249 -162h-8q-126 0 -183.5 31.5zM340.5 250.5q21.5 21.5 21.5 65.5q0 43 -21.5 64.5t-69.5 21.5t-70 -21.5t-22 -64.5q0 -44 22 -65.5t70 -21.5t69.5 21.5zM287 -131
q54 0 82 12.5t28 35.5q0 24 -18.5 33.5t-67.5 9.5h-143q-14 -15 -14 -37q0 -28 26 -41t92 -13h15z" />
    <glyph glyph-name="h" unicode="h" horiz-adv-x="573" 
d="M60 715h143v-251q36 20 76 30t77 10q35 0 67 -9.5t51 -28.5q42 -41 42 -129v-337h-143v320q0 34 -15 49q-17 16 -62 16q-21 0 -48.5 -4.5t-44.5 -11.5v-369h-143v715z" />
    <glyph glyph-name="i" unicode="i" horiz-adv-x="269" 
d="M74.5 588q-18.5 16 -18.5 52v13q0 36 18.5 52.5t56.5 16.5h7q38 0 56.5 -16.5t18.5 -52.5v-13q0 -36 -18.5 -52t-56.5 -16h-7q-38 0 -56.5 16zM63 490h143v-490h-143v490z" />
    <glyph glyph-name="j" unicode="j" horiz-adv-x="269" 
d="M74.5 588q-18.5 16 -18.5 52v13q0 36 18.5 52.5t56.5 16.5h7q38 0 56.5 -16.5t18.5 -52.5v-13q0 -36 -18.5 -52t-56.5 -16h-7q-38 0 -56.5 16zM-75 -235l-14 107q26 -2 46 -2q27 0 49.5 6t33.5 17q13 12 18 31.5t5 47.5v518h143v-467q0 -91 -20 -147t-70 -84.5
t-137 -28.5q-20 0 -54 2z" />
    <glyph glyph-name="k" unicode="k" horiz-adv-x="544" 
d="M60 715h143v-412l153 187h164l-173 -196l191 -294h-161l-123 195l-51 -64v-131h-143v715z" />
    <glyph glyph-name="l" unicode="l" horiz-adv-x="269" 
d="M63 715h143v-715h-143v715z" />
    <glyph glyph-name="m" unicode="m" horiz-adv-x="864" 
d="M60 490h124l3 -35q74 49 159 49q93 0 130 -52q39 26 84 39t87 13q35 0 67 -9.5t51 -28.5q42 -41 42 -129v-337h-143v320q0 34 -15 49q-17 16 -62 16q-17 0 -40.5 -4t-42.5 -9q2 -22 2 -35v-337h-143v320q0 34 -15 49q-17 16 -60 16q-19 0 -43 -4.5t-42 -11.5v-369h-143
v490z" />
    <glyph glyph-name="n" unicode="n" horiz-adv-x="573" 
d="M60 490h124l3 -35q38 25 82.5 37t86.5 12q35 0 67 -9.5t51 -28.5q42 -41 42 -129v-337h-143v320q0 34 -15 49q-17 16 -62 16q-21 0 -48.5 -4.5t-44.5 -11.5v-369h-143v490z" />
    <glyph glyph-name="o" unicode="o" horiz-adv-x="568" 
d="M97.5 54.5q-62.5 68.5 -62.5 190.5t62.5 190.5t186.5 68.5t186.5 -68.5t62.5 -190.5t-62.5 -190.5t-186.5 -68.5t-186.5 68.5zM360.5 131.5q23.5 36.5 23.5 113.5t-23.5 113.5t-76.5 36.5t-76.5 -36.5t-23.5 -113.5t23.5 -113.5t76.5 -36.5t76.5 36.5z" />
    <glyph glyph-name="p" unicode="p" horiz-adv-x="560" 
d="M60 490h124l4 -36q75 50 154 50q73 0 117 -42q33 -33 49.5 -88t16.5 -126q0 -138 -51 -200t-140 -62q-33 0 -68.5 9.5t-62.5 26.5v-247h-143v715zM341 112.5q18 13.5 26 46t8 91.5q0 53 -8 83t-27 42.5t-52 12.5q-17 0 -42 -4t-43 -9v-262q32 -14 89 -14q31 0 49 13.5z
" />
    <glyph glyph-name="q" unicode="q" horiz-adv-x="561" 
d="M358 19q-26 -15 -62.5 -24t-71.5 -9q-89 0 -139 60t-50 197q0 66 16 118.5t46 85.5q25 27 60.5 42t77.5 15q73 0 141 -45l7 31h118v-706l-143 -18v253zM358 114v262q-17 6 -39 10t-37 4q-54 0 -75.5 -35.5t-21.5 -111.5q0 -57 10 -88.5t29 -44t51 -12.5q42 0 83 16z" />
    <glyph glyph-name="r" unicode="r" horiz-adv-x="380" 
d="M60 490h124l5 -40q27 25 69.5 39t80.5 14q13 0 25 -2v-125q-32 4 -63 4q-45 0 -98 -12v-368h-143v490z" />
    <glyph glyph-name="s" unicode="s" horiz-adv-x="475" 
d="M127 -6q-50 8 -80 19l11 106q29 -9 74.5 -16t83.5 -7q43 0 65.5 10t22.5 35q0 23 -22 32.5t-70 18.5q-54 10 -89 22t-60.5 43.5t-25.5 88.5q0 72 53.5 115t159.5 43q38 0 81 -7t82 -20l-11 -105q-37 10 -78.5 16t-72.5 6q-79 0 -79 -40q0 -21 21.5 -30.5t69.5 -19.5
q53 -10 89 -23t62 -45t26 -89q0 -77 -56 -119t-165 -42q-42 0 -92 8z" />
    <glyph glyph-name="t" unicode="t" horiz-adv-x="401" 
d="M127 25q-36 39 -36 123v249h-83v78l83 15v109q69 21 143 21v-130h127v-93h-127v-229q0 -43 13.5 -59t55.5 -16q18 0 69 6l5 -101q-55 -12 -125 -12q-89 0 -125 39z" />
    <glyph glyph-name="u" unicode="u" horiz-adv-x="569" 
d="M150 -3.5q-32 9.5 -51 28.5q-42 41 -42 129v336h143v-316q0 -37 15 -52q17 -16 62 -16q19 0 45 4t44 10v370h143v-490h-124l-4 33q-38 -23 -81 -34.5t-83 -11.5q-35 0 -67 9.5z" />
    <glyph glyph-name="v" unicode="v" horiz-adv-x="530" 
d="M10 490h154l109 -340l104 340h143l-169 -490h-166z" />
    <glyph glyph-name="w" unicode="w" horiz-adv-x="791" 
d="M10 490h151l87 -349l87 349h129l94 -349l82 349h141l-141 -490h-166l-78 260l-77 -260h-165z" />
    <glyph glyph-name="x" unicode="x" horiz-adv-x="532" 
d="M187 241l-177 249h163l106 -148l80 148h156l-169 -242l176 -248h-167l-102 147l-81 -147h-159z" />
    <glyph glyph-name="y" unicode="y" horiz-adv-x="571" 
d="M159 -226l-10 106q61 -11 112 -11q27 0 49.5 6t33.5 17q24 23 24 79v60q-35 -20 -75.5 -30t-78.5 -10q-34 0 -64.5 9.5t-49.5 28.5q-22 22 -32.5 52t-10.5 72v337h143v-317q0 -34 15 -49q10 -9 24 -12.5t37 -3.5q20 0 47 5.5t45 12.5v364h143v-469q0 -91 -20 -147
t-70 -84.5t-137 -28.5q-65 0 -125 13z" />
    <glyph glyph-name="z" unicode="z" horiz-adv-x="442" 
d="M18 81l228 318h-222v91h390v-83l-227 -316h239v-91h-408v81z" />
    <glyph glyph-name="braceleft" unicode="{" horiz-adv-x="393" 
d="M178.5 -168q-36.5 39 -36.5 129v142q0 55 -26.5 77.5t-89.5 28.5v104q63 6 89.5 28.5t26.5 77.5v140q0 90 36.5 129t120.5 39h60v-100h-11q-35 0 -47 -10.5t-12 -45.5v-153q0 -63 -25 -100t-82 -57q57 -20 82 -57t25 -100v-155q0 -35 12 -45.5t47 -10.5h11v-100h-60
q-84 0 -120.5 39z" />
    <glyph glyph-name="bar" unicode="|" horiz-adv-x="252" 
d="M64 743h124v-996h-124v996z" />
    <glyph glyph-name="braceright" unicode="}" horiz-adv-x="393" 
d="M34 -107h11q35 0 47 10.5t12 45.5v155q0 63 25 100t82 57q-57 20 -82 57t-25 100v153q0 35 -12 45.5t-47 10.5h-11v100h60q84 0 120.5 -39t36.5 -129v-140q0 -55 26.5 -77.5t89.5 -28.5v-104q-63 -6 -89.5 -28.5t-26.5 -77.5v-142q0 -90 -36.5 -129t-120.5 -39h-60v100z
" />
    <glyph glyph-name="asciitilde" unicode="~" 
d="M80 300q0 75 32 109t94 34q25 0 48 -7t57 -20q49 -22 75 -22q37 0 50 55l84 -11q0 -76 -32 -110.5t-94 -34.5q-24 0 -46.5 7t-57.5 21q-4 2 -21.5 8.5t-30.5 10t-24 3.5q-20 0 -32 -14t-18 -42z" />
    <glyph glyph-name="uni00A0" unicode="&#xa0;" horiz-adv-x="225" 
 />
    <glyph glyph-name="exclamdown" unicode="&#xa1;" horiz-adv-x="290" 
d="M203 488q18 -16 18 -53v-12q0 -37 -18 -53t-55 -16h-7q-37 0 -55 16t-18 53v12q0 37 18 53t55 16h7q37 0 55 -16zM222 -194h-150l22 470h106z" />
    <glyph glyph-name="cent" unicode="&#xa2;" 
d="M293 -10q-117 16 -166 94q-20 30 -30 69t-10 81q0 128 63 197q52 55 143 69v118h91v-115q58 -3 106 -16v-109q-68 16 -122 16q-66 0 -99 -35q-33 -36 -33 -114q0 -77 34 -114t110 -37q54 0 113 11v-103q-60 -14 -109 -15v-115h-91v118z" />
    <glyph glyph-name="sterling" unicode="&#xa3;" 
d="M91 57q0 27 8 47t24 47q17 28 25.5 50t8.5 52q0 21 -6 67h-96v83l83 5q-6 41 -6 87q0 90 48 141q29 31 80.5 46t118.5 15q35 0 77.5 -5t78.5 -13v-108q-79 14 -135 14q-71 0 -99 -25q-24 -21 -24 -71q0 -35 5 -80h157v-89h-144q4 -44 4 -62q0 -88 -67 -154h326v-104h-462
q-5 22 -5 57z" />
    <glyph glyph-name="currency" unicode="&#xa4;" 
d="M51 170l70 69q-24 44 -24 102q0 59 24 102l-70 69l72 73l74 -75q44 21 103 21q60 0 103 -21l74 75l72 -73l-70 -69q24 -43 24 -102q0 -58 -24 -102l70 -69l-72 -73l-74 75q-43 -21 -103 -21q-59 0 -103 21l-74 -75zM354.5 274.5q19.5 22.5 19.5 66.5t-19.5 66.5
t-54.5 22.5t-54.5 -22.5t-19.5 -66.5t19.5 -66.5t54.5 -22.5t54.5 22.5z" />
    <glyph glyph-name="yen" unicode="&#xa5;" 
d="M222 137h-126v82h126v38h-126v82h94l-184 345h168l130 -276l136 276h154l-189 -345h92v-82h-126v-38h126v-82h-126v-137h-149v137z" />
    <glyph glyph-name="brokenbar" unicode="&#xa6;" horiz-adv-x="252" 
d="M64 743h124v-386h-124v386zM64 133h124v-386h-124v386z" />
    <glyph glyph-name="section" unicode="&#xa7;" horiz-adv-x="599" 
d="M108 15l20 100q36 -13 80 -20.5t76 -7.5q53 0 75 10t22 35q0 21 -14.5 31t-46.5 15l-87 15q-81 13 -114 49t-33 100q0 57 33 95q-33 38 -33 99q0 67 44 109q55 52 178 52q85 0 155 -24l-20 -97q-34 9 -71.5 14.5t-63.5 5.5q-50 0 -70 -11t-20 -35q0 -21 13.5 -32.5
t52.5 -17.5l85 -14q75 -12 109.5 -46t34.5 -100q0 -56 -34 -96q34 -39 34 -98q0 -77 -55.5 -118.5t-162.5 -41.5q-104 0 -187 29zM383 326q0 20 -15 30.5t-48 15.5l-91 15q-13 -12 -13 -31q0 -21 14.5 -31.5t53.5 -17.5l83 -14q16 10 16 33z" />
    <glyph glyph-name="dieresis" unicode="&#xa8;" horiz-adv-x="428" 
d="M39 590zM55.5 605.5q-16.5 15.5 -16.5 48.5v11q0 34 16.5 49t50.5 15h6q34 0 51 -15t17 -49v-11q0 -64 -68 -64h-6q-34 0 -50.5 15.5zM247 654v11q0 64 68 64h6q34 0 50.5 -15t16.5 -49v-11q0 -33 -16.5 -48.5t-50.5 -15.5h-6q-68 0 -68 64z" />
    <glyph glyph-name="copyright" unicode="&#xa9;" horiz-adv-x="790" 
d="M213 27.5q-80 41.5 -125 122t-45 192.5t45 192t125 121.5t182 41.5t182 -41.5t125 -121.5t45 -192t-45 -192.5t-125 -122t-182 -41.5t-182 41.5zM581 144.5q64 69.5 64 197.5t-64 197t-186 69t-186 -69t-64 -197t64 -197.5t186 -69.5t186 69.5zM338.5 178.5
q-30.5 10.5 -50.5 31.5q-41 44 -41 134q0 83 40.5 130t127.5 47q20 0 44 -4.5t40 -12.5l-10 -60q-41 11 -72 11q-44 0 -63 -24.5t-19 -86.5q0 -66 23 -90q11 -11 25.5 -15.5t40.5 -4.5q31 0 64 5l7 -62q-15 -4 -38.5 -6.5t-41.5 -2.5q-46 0 -76.5 10.5z" />
    <glyph glyph-name="ordfeminine" unicode="&#xaa;" horiz-adv-x="414" 
d="M83 369.5q-33 29.5 -33 82.5q0 58 36.5 84t114.5 26h51v11q0 26 -13 35t-54 9q-54 0 -95 -9l-5 78q58 12 123 12q84 0 116 -31q30 -28 30 -90v-228h-81l-9 20q-43 -29 -96 -29q-52 0 -85 29.5zM252 428v63h-53q-28 0 -38.5 -7.5t-10.5 -26.5q0 -36 46 -36q28 0 56 7z" />
    <glyph glyph-name="guillemotleft" unicode="&#xab;" horiz-adv-x="569" 
d="M81 194q-19 20 -27.5 34.5t-8.5 32.5t8.5 32.5t27.5 34.5l148 161l58 -56l-116 -172l116 -172l-58 -56zM309 194q-19 20 -27.5 34.5t-8.5 32.5t8.5 32.5t27.5 34.5l148 161l58 -56l-116 -172l116 -172l-58 -56z" />
    <glyph glyph-name="logicalnot" unicode="&#xac;" 
d="M394 373h-280v94h374v-286h-94v192z" />
    <glyph glyph-name="uni00AD" unicode="&#xad;" horiz-adv-x="334" 
d="M46 319h242v-119h-242v119z" />
    <glyph glyph-name="registered" unicode="&#xae;" horiz-adv-x="790" 
d="M213 27.5q-80 41.5 -125 122t-45 192.5t45 192t125 121.5t182 41.5t182 -41.5t125 -121.5t45 -192t-45 -192.5t-125 -122t-182 -41.5t-182 41.5zM581 144.5q64 69.5 64 197.5t-64 197t-186 69t-186 -69t-64 -197t64 -197.5t186 -69.5t186 69.5zM281 517h115
q72 0 105 -23.5t33 -83.5q0 -74 -56 -98l73 -136h-93l-62 121h-32v-121h-83v341zM398 356q28 0 40 12.5t12 38.5q0 30 -12 40t-43 10h-31v-101h34z" />
    <glyph glyph-name="macron" unicode="&#xaf;" horiz-adv-x="428" 
d="M66 605zM66 703h295v-98h-295v98z" />
    <glyph glyph-name="degree" unicode="&#xb0;" horiz-adv-x="535" 
d="M123.5 369q-50.5 52 -50.5 138t50.5 138t144.5 52t144.5 -52t50.5 -138t-50.5 -138t-144.5 -52t-144.5 52zM326 438q20 25 20 69t-20 69t-58 25t-58 -25t-20 -69t20 -69t58 -25t58 25z" />
    <glyph glyph-name="plusminus" unicode="&#xb1;" 
d="M253 330h-140v94h140v140h94v-140h140v-94h-140v-140h-94v140zM113 94h374v-94h-374v94z" />
    <glyph glyph-name="uni00B2" unicode="&#xb2;" horiz-adv-x="500" 
d="M99 363.5q-1 10.5 -1 17.5q0 21 8 37.5t30 40.5l67 73q34 36 48 56.5t14 38.5q0 19 -15.5 27.5t-46.5 8.5q-39 0 -82 -7v85q22 4 54 7t58 3q69 0 107 -28t38 -80q0 -38 -21 -71.5t-79 -91.5l-56 -56h168v-80h-288q-2 9 -3 19.5z" />
    <glyph glyph-name="uni00B3" unicode="&#xb3;" horiz-adv-x="500" 
d="M120 353v80q31 -6 77 -6q44 0 62 10.5t18 36.5q0 24 -16 33t-55 9h-25v73h28q30 0 45 9t15 30q0 20 -16 29.5t-52 9.5q-44 0 -76 -5v79q15 4 44 7t56 3q73 0 114 -26.5t41 -79.5q0 -66 -54 -90q66 -19 66 -91q0 -58 -45.5 -89.5t-129.5 -31.5q-50 0 -97 10z" />
    <glyph glyph-name="acute" unicode="&#xb4;" horiz-adv-x="428" 
d="M87 559zM87 621l183 170l70 -95l-203 -137z" />
    <glyph glyph-name="uni00B5" unicode="&#xb5;" horiz-adv-x="572" 
d="M60 0zM60 490h143v-316q0 -37 15 -52q17 -16 62 -16q19 0 45 4t44 10v370h143v-490h-124l-4 33q-38 -23 -81 -34.5t-83 -11.5h-8t-13 1v-213h-139v715z" />
    <glyph glyph-name="paragraph" unicode="&#xb6;" horiz-adv-x="653" 
d="M234 322q-86 0 -136.5 47.5t-50.5 133.5t51.5 133.5t135.5 47.5h369v-99h-68v-788h-113v788h-76v-788h-112v525z" />
    <glyph glyph-name="periodcentered" unicode="&#xb7;" horiz-adv-x="239" 
d="M61 282q-18 16 -18 53v12q0 37 18 53t55 16h7q37 0 55 -16t18 -53v-12q0 -37 -18 -53t-55 -16h-7q-37 0 -55 16z" />
    <glyph glyph-name="cedilla" unicode="&#xb8;" horiz-adv-x="428" 
d="M110 0zM110 -238v75q38 -10 69 -10q44 0 44 23q0 10 -10.5 18t-45.5 19q-29 9 -42 22.5t-13 37.5q0 13 6 30t15 28h71q-5 -18 -5 -26q0 -9 6.5 -14t30.5 -14q48 -18 65 -37t17 -54q0 -48 -27 -78q-14 -16 -39 -25t-53 -9q-50 0 -89 14z" />
    <glyph glyph-name="uni00B9" unicode="&#xb9;" horiz-adv-x="500" 
d="M136 428h72v239h-68v79q27 3 58 4.5t56 1.5q36 0 49 -11t13 -38v-275h56v-80h-236v80z" />
    <glyph glyph-name="ordmasculine" unicode="&#xba;" horiz-adv-x="420" 
d="M80.5 387q-42.5 47 -42.5 132t42.5 132t129.5 47t129.5 -47t42.5 -132t-42.5 -132t-129.5 -47t-129.5 47zM258 445.5q16 22.5 16 73.5t-16 73.5t-48 22.5t-48 -22.5t-16 -73.5t16 -73.5t48 -22.5t48 22.5z" />
    <glyph glyph-name="guillemotright" unicode="&#xbb;" horiz-adv-x="569" 
d="M54 89l116 172l-116 172l58 56l148 -161q19 -20 27.5 -34.5t8.5 -32.5t-8.5 -32.5t-27.5 -34.5l-148 -161zM282 89l116 172l-116 172l58 56l148 -161q19 -20 27.5 -34.5t8.5 -32.5t-8.5 -32.5t-27.5 -34.5l-148 -161z" />
    <glyph glyph-name="onequarter" unicode="&#xbc;" horiz-adv-x="999" 
d="M610 697h123l-365 -711h-123zM92 365h72v239h-68v79q27 3 58 4.5t56 1.5q36 0 49 -11t13 -38v-275h54v-80h-234v80zM787 86h-190q-4 14 -4 28q0 15 3 28t11 38l74 221h113l-79 -231h72v88h99v-88h35v-84h-35v-86h-99v86z" />
    <glyph glyph-name="onehalf" unicode="&#xbd;" horiz-adv-x="999" 
d="M610 697h123l-365 -711h-123zM92 365h72v239h-68v79q27 3 58 4.5t56 1.5q36 0 49 -11t13 -38v-275h54v-80h-234v80zM626 19.5q-1 10.5 -1 17.5q0 21 8 37.5t30 40.5l67 73q34 36 48 56.5t14 38.5q0 19 -15.5 27.5t-46.5 8.5q-39 0 -82 -7v85q22 4 54 7t58 3q69 0 107 -28
t38 -80q0 -38 -21 -71.5t-79 -91.5l-56 -56h168v-80h-288q-2 9 -3 19.5z" />
    <glyph glyph-name="threequarters" unicode="&#xbe;" horiz-adv-x="999" 
d="M108 299v80q31 -6 77 -6q44 0 62 10.5t18 36.5q0 24 -16 33t-55 9h-25v73h28q30 0 45 9t15 30q0 20 -16 29.5t-52 9.5q-44 0 -76 -5v79q15 4 44 7t56 3q73 0 114 -26.5t41 -79.5q0 -66 -54 -90q66 -19 66 -91q0 -58 -45.5 -89.5t-129.5 -31.5q-50 0 -97 10zM629 697h123
l-365 -711h-123zM795 86h-190q-4 14 -4 28q0 15 3 28t11 38l74 221h113l-79 -231h72v88h99v-88h35v-84h-35v-86h-99v86z" />
    <glyph glyph-name="questiondown" unicode="&#xbf;" horiz-adv-x="434" 
d="M296 488q18 -16 18 -53v-12q0 -37 -18 -53t-55 -16h-7q-37 0 -55 16t-18 53v12q0 37 18 53t55 16h7q37 0 55 -16zM291 244q0 -32 -15 -59.5t-50 -78.5q-24 -33 -36.5 -59.5t-12.5 -57.5q0 -38 20 -58q24 -22 78 -22q46 0 104 18l19 -104q-34 -13 -78 -21.5t-81 -8.5
q-106 0 -160 46t-54 132q0 55 21.5 92t63.5 81q34 37 53 65t26 66h99q3 -16 3 -31z" />
    <glyph glyph-name="Agrave" unicode="&#xc0;" horiz-adv-x="658" 
d="M5 0zM234 684h172l247 -684h-167l-57 172h-222l-53 -172h-149zM391 285l-75 228h-2l-71 -228h148zM195 896l70 95l183 -170l-50 -62z" />
    <glyph glyph-name="Aacute" unicode="&#xc1;" horiz-adv-x="658" 
d="M5 0zM234 684h172l247 -684h-167l-57 172h-222l-53 -172h-149zM391 285l-75 228h-2l-71 -228h148zM195 821l183 170l70 -95l-203 -137z" />
    <glyph glyph-name="Acircumflex" unicode="&#xc2;" horiz-adv-x="658" 
d="M5 0zM234 684h172l247 -684h-167l-57 172h-222l-53 -172h-149zM391 285l-75 228h-2l-71 -228h148zM149 813l125 144h96l125 -144l-50 -51l-123 98l-123 -98z" />
    <glyph glyph-name="Atilde" unicode="&#xc3;" horiz-adv-x="658" 
d="M5 0zM234 684h172l247 -684h-167l-57 172h-222l-53 -172h-149zM391 285l-75 228h-2l-71 -228h148zM139 803q0 65 28 101t78 36q22 0 42.5 -6.5t44.5 -17.5q22 -9 34.5 -13.5t25.5 -4.5q33 0 42 46l71 -11q0 -65 -28 -101t-78 -36q-22 0 -41.5 6t-44.5 18
q-16 7 -32.5 12.5t-28.5 5.5q-33 0 -42 -46z" />
    <glyph glyph-name="Adieresis" unicode="&#xc4;" horiz-adv-x="658" 
d="M5 0zM234 684h172l247 -684h-167l-57 172h-222l-53 -172h-149zM391 285l-75 228h-2l-71 -228h148zM163.5 805.5q-16.5 15.5 -16.5 48.5v11q0 34 16.5 49t50.5 15h6q34 0 51 -15t17 -49v-11q0 -64 -68 -64h-6q-34 0 -50.5 15.5zM355 854v11q0 64 68 64h6q34 0 50.5 -15
t16.5 -49v-11q0 -33 -16.5 -48.5t-50.5 -15.5h-6q-68 0 -68 64z" />
    <glyph glyph-name="Aring" unicode="&#xc5;" horiz-adv-x="658" 
d="M5 0zM234 684h172l247 -684h-167l-57 172h-222l-53 -172h-149zM391 285l-75 228h-2l-71 -228h148zM228.5 796q-30.5 27 -30.5 84v14q0 58 30.5 84.5t90.5 26.5h7q59 0 89.5 -26.5t30.5 -84.5v-14q0 -111 -120 -111h-7q-60 0 -90.5 27zM324 832q27 0 39 12t12 40v4
q0 29 -12 40t-39 11h-3q-28 0 -40.5 -11t-12.5 -40v-4q0 -28 12.5 -40t40.5 -12h3z" />
    <glyph glyph-name="AE" unicode="&#xc6;" horiz-adv-x="1003" 
d="M424 684h532l-12 -112h-294v-166h235v-119h-235v-175h311v-112h-467v187h-222l-110 -187h-160zM494 298v263l-154 -263h154z" />
    <glyph glyph-name="Ccedilla" unicode="&#xc7;" horiz-adv-x="589" 
d="M290 -238v75q38 -10 69 -10q44 0 44 23q0 10 -10.5 18t-45.5 19q-29 9 -42 22.5t-13 37.5q0 21 11 43q-59 7 -102 26.5t-73 52.5q-43 46 -63 112.5t-20 157.5q0 168 81 263t250 95q44 0 95 -9t84 -22l-20 -114q-85 24 -147 24q-103 0 -142 -60t-39 -173q0 -132 49 -187
q23 -26 58 -37.5t92 -11.5q25 0 60.5 4t65.5 10l16 -114q-29 -9 -77 -14.5t-92 -6.5v-7q0 -9 6.5 -14t30.5 -14q48 -18 65 -37t17 -54q0 -48 -27 -78q-14 -16 -39 -25t-53 -9q-50 0 -89 14z" />
    <glyph glyph-name="Egrave" unicode="&#xc8;" horiz-adv-x="583" 
d="M74 0zM74 684h462l-12 -113h-294v-166h235v-117h-235v-175h311v-113h-467v684zM181 896l70 95l183 -170l-50 -62z" />
    <glyph glyph-name="Eacute" unicode="&#xc9;" horiz-adv-x="583" 
d="M74 0zM74 684h462l-12 -113h-294v-166h235v-117h-235v-175h311v-113h-467v684zM181 821l183 170l70 -95l-203 -137z" />
    <glyph glyph-name="Ecircumflex" unicode="&#xca;" horiz-adv-x="583" 
d="M74 0zM74 684h462l-12 -113h-294v-166h235v-117h-235v-175h311v-113h-467v684zM135 813l125 144h96l125 -144l-50 -51l-123 98l-123 -98z" />
    <glyph glyph-name="Edieresis" unicode="&#xcb;" horiz-adv-x="583" 
d="M74 0zM74 684h462l-12 -113h-294v-166h235v-117h-235v-175h311v-113h-467v684zM149.5 805.5q-16.5 15.5 -16.5 48.5v11q0 34 16.5 49t50.5 15h6q34 0 51 -15t17 -49v-11q0 -64 -68 -64h-6q-34 0 -50.5 15.5zM341 854v11q0 64 68 64h6q34 0 50.5 -15t16.5 -49v-11
q0 -33 -16.5 -48.5t-50.5 -15.5h-6q-68 0 -68 64z" />
    <glyph glyph-name="Igrave" unicode="&#xcc;" horiz-adv-x="308" 
d="M27 0zM76 684h156v-684h-156v684zM27 896l70 95l183 -170l-50 -62z" />
    <glyph glyph-name="Iacute" unicode="&#xcd;" horiz-adv-x="308" 
d="M27 0zM76 684h156v-684h-156v684zM27 821l183 170l70 -95l-203 -137z" />
    <glyph glyph-name="Icircumflex" unicode="&#xce;" horiz-adv-x="308" 
d="M0 0zM76 684h156v-684h-156v684zM-19 813l125 144h96l125 -144l-50 -51l-123 98l-123 -98z" />
    <glyph glyph-name="Idieresis" unicode="&#xcf;" horiz-adv-x="308" 
d="M0 0zM76 684h156v-684h-156v684zM-4.5 805.5q-16.5 15.5 -16.5 48.5v11q0 34 16.5 49t50.5 15h6q34 0 51 -15t17 -49v-11q0 -64 -68 -64h-6q-34 0 -50.5 15.5zM187 854v11q0 64 68 64h6q34 0 50.5 -15t16.5 -49v-11q0 -33 -16.5 -48.5t-50.5 -15.5h-6q-68 0 -68 64z" />
    <glyph glyph-name="Eth" unicode="&#xd0;" horiz-adv-x="686" 
d="M74 288h-72v102l72 12v282h211q100 0 165.5 -17.5t107.5 -59.5q83 -81 83 -262q0 -93 -20.5 -158.5t-62.5 -109.5q-38 -39 -99.5 -58t-152.5 -19h-232v288zM296 114q106 0 147 61q20 30 28 68t8 102q0 72 -11 112t-37 68q-23 24 -59 34.5t-94 10.5h-48v-165h139v-117
h-139v-174h66z" />
    <glyph glyph-name="Ntilde" unicode="&#xd1;" horiz-adv-x="724" 
d="M74 0zM74 684h115l324 -438v438h137v-684h-125l-314 415v-415h-137v684zM181 803q0 65 28 101t78 36q22 0 42.5 -6.5t44.5 -17.5q22 -9 34.5 -13.5t25.5 -4.5q33 0 42 46l71 -11q0 -65 -28 -101t-78 -36q-22 0 -41.5 6t-44.5 18q-16 7 -32.5 12.5t-28.5 5.5
q-33 0 -42 -46z" />
    <glyph glyph-name="Ograve" unicode="&#xd2;" horiz-adv-x="696" 
d="M45 0zM119 75.5q-74 89.5 -74 265.5t74.5 266t228.5 90t228.5 -90t74.5 -266t-74 -265.5t-229 -89.5t-229 89.5zM456.5 162.5q32.5 54.5 32.5 178.5t-33 179t-108 55t-108 -55t-33 -179t32.5 -178.5t108.5 -54.5t108.5 54.5zM221 896l70 95l183 -170l-50 -62z" />
    <glyph glyph-name="Oacute" unicode="&#xd3;" horiz-adv-x="696" 
d="M45 0zM119 75.5q-74 89.5 -74 265.5t74.5 266t228.5 90t228.5 -90t74.5 -266t-74 -265.5t-229 -89.5t-229 89.5zM456.5 162.5q32.5 54.5 32.5 178.5t-33 179t-108 55t-108 -55t-33 -179t32.5 -178.5t108.5 -54.5t108.5 54.5zM221 821l183 170l70 -95l-203 -137z" />
    <glyph glyph-name="Ocircumflex" unicode="&#xd4;" horiz-adv-x="696" 
d="M45 0zM119 75.5q-74 89.5 -74 265.5t74.5 266t228.5 90t228.5 -90t74.5 -266t-74 -265.5t-229 -89.5t-229 89.5zM456.5 162.5q32.5 54.5 32.5 178.5t-33 179t-108 55t-108 -55t-33 -179t32.5 -178.5t108.5 -54.5t108.5 54.5zM175 813l125 144h96l125 -144l-50 -51
l-123 98l-123 -98z" />
    <glyph glyph-name="Otilde" unicode="&#xd5;" horiz-adv-x="696" 
d="M45 0zM119 75.5q-74 89.5 -74 265.5t74.5 266t228.5 90t228.5 -90t74.5 -266t-74 -265.5t-229 -89.5t-229 89.5zM456.5 162.5q32.5 54.5 32.5 178.5t-33 179t-108 55t-108 -55t-33 -179t32.5 -178.5t108.5 -54.5t108.5 54.5zM165 803q0 65 28 101t78 36q22 0 42.5 -6.5
t44.5 -17.5q22 -9 34.5 -13.5t25.5 -4.5q33 0 42 46l71 -11q0 -65 -28 -101t-78 -36q-22 0 -41.5 6t-44.5 18q-16 7 -32.5 12.5t-28.5 5.5q-33 0 -42 -46z" />
    <glyph glyph-name="Odieresis" unicode="&#xd6;" horiz-adv-x="696" 
d="M45 0zM119 75.5q-74 89.5 -74 265.5t74.5 266t228.5 90t228.5 -90t74.5 -266t-74 -265.5t-229 -89.5t-229 89.5zM456.5 162.5q32.5 54.5 32.5 178.5t-33 179t-108 55t-108 -55t-33 -179t32.5 -178.5t108.5 -54.5t108.5 54.5zM189.5 805.5q-16.5 15.5 -16.5 48.5v11
q0 34 16.5 49t50.5 15h6q34 0 51 -15t17 -49v-11q0 -64 -68 -64h-6q-34 0 -50.5 15.5zM381 854v11q0 64 68 64h6q34 0 50.5 -15t16.5 -49v-11q0 -33 -16.5 -48.5t-50.5 -15.5h-6q-68 0 -68 64z" />
    <glyph glyph-name="multiply" unicode="&#xd7;" 
d="M134 224l100 100l-100 100l66 66l100 -100l100 100l66 -66l-100 -100l100 -100l-66 -66l-100 100l-100 -100z" />
    <glyph glyph-name="Oslash" unicode="&#xd8;" horiz-adv-x="698" 
d="M189 20q-144 75 -144 321q0 356 304 356q42 0 82 -8l25 68h87l-34 -94q144 -76 144 -322q0 -176 -74.5 -265.5t-229.5 -89.5q-43 0 -83 8l-24 -68h-87zM388 571q-16 4 -39 4q-76 0 -109 -55t-33 -179q0 -126 33 -179zM458 162.5q33 54.5 33 178.5q0 126 -34 180
l-148 -409q16 -4 40 -4q76 0 109 54.5z" />
    <glyph glyph-name="Ugrave" unicode="&#xd9;" horiz-adv-x="694" 
d="M68 0zM134 52q-34 34 -50 80.5t-16 118.5v433h155v-433q0 -40 7.5 -67.5t25.5 -45.5q32 -33 100 -33t99 32q18 18 25.5 45t7.5 68v434h138v-426q0 -69 -15.5 -119.5t-51.5 -84.5q-34 -32 -89 -50t-121 -18q-148 0 -215 66zM227 896l70 95l183 -170l-50 -62z" />
    <glyph glyph-name="Uacute" unicode="&#xda;" horiz-adv-x="694" 
d="M68 0zM134 52q-34 34 -50 80.5t-16 118.5v433h155v-433q0 -40 7.5 -67.5t25.5 -45.5q32 -33 100 -33t99 32q18 18 25.5 45t7.5 68v434h138v-426q0 -69 -15.5 -119.5t-51.5 -84.5q-34 -32 -89 -50t-121 -18q-148 0 -215 66zM227 821l183 170l70 -95l-203 -137z" />
    <glyph glyph-name="Ucircumflex" unicode="&#xdb;" horiz-adv-x="694" 
d="M68 0zM134 52q-34 34 -50 80.5t-16 118.5v433h155v-433q0 -40 7.5 -67.5t25.5 -45.5q32 -33 100 -33t99 32q18 18 25.5 45t7.5 68v434h138v-426q0 -69 -15.5 -119.5t-51.5 -84.5q-34 -32 -89 -50t-121 -18q-148 0 -215 66zM181 813l125 144h96l125 -144l-50 -51l-123 98
l-123 -98z" />
    <glyph glyph-name="Udieresis" unicode="&#xdc;" horiz-adv-x="694" 
d="M68 0zM134 52q-34 34 -50 80.5t-16 118.5v433h155v-433q0 -40 7.5 -67.5t25.5 -45.5q32 -33 100 -33t99 32q18 18 25.5 45t7.5 68v434h138v-426q0 -69 -15.5 -119.5t-51.5 -84.5q-34 -32 -89 -50t-121 -18q-148 0 -215 66zM195.5 805.5q-16.5 15.5 -16.5 48.5v11
q0 34 16.5 49t50.5 15h6q34 0 51 -15t17 -49v-11q0 -64 -68 -64h-6q-34 0 -50.5 15.5zM387 854v11q0 64 68 64h6q34 0 50.5 -15t16.5 -49v-11q0 -33 -16.5 -48.5t-50.5 -15.5h-6q-68 0 -68 64z" />
    <glyph glyph-name="Yacute" unicode="&#xdd;" horiz-adv-x="662" 
d="M12 0zM248 279l-236 405h176l150 -276l156 276h156l-246 -406v-278h-156v279zM209 821l183 170l70 -95l-203 -137z" />
    <glyph glyph-name="Thorn" unicode="&#xde;" horiz-adv-x="619" 
d="M74 684h156v-113h79q82 0 134.5 -13t84.5 -43q55 -51 55 -160t-51 -166q-30 -34 -77 -50t-115 -16h-110v-123h-156v684zM307 240q37 0 56.5 5.5t34.5 20.5q27 27 27 87q0 56 -26 81q-14 13 -37 18.5t-59 5.5h-73v-218h77z" />
    <glyph glyph-name="germandbls" unicode="&#xdf;" horiz-adv-x="713" 
d="M379 -6q-48 8 -79 19l11 106q29 -9 73 -16t82 -7q46 0 64.5 8.5t18.5 26.5q0 22 -20.5 32.5t-63.5 20.5q-45 12 -75 24.5t-51.5 40t-21.5 72.5q0 41 19 71t55 66q29 30 43 50.5t14 45.5q0 34 -24 53t-68 19q-58 0 -86.5 -34.5t-28.5 -98.5v-493h-143v397h-84v77l84 15v21
q0 101 65 161.5t187 60.5q108 0 170 -43.5t62 -124.5q0 -50 -22 -82.5t-60 -66.5q-23 -20 -33.5 -33t-10.5 -28q0 -20 18.5 -30t57.5 -20q46 -13 76.5 -27t52.5 -45t22 -85q0 -161 -214 -161q-42 0 -90 8z" />
    <glyph glyph-name="agrave" unicode="&#xe0;" horiz-adv-x="531" 
d="M30 0zM75 30q-45 44 -45 117q0 33 11 62t32 49q26 24 68.5 34.5t111.5 10.5h78v16q0 39 -18 55q-23 20 -83 20q-33 0 -72 -4t-65 -9l-7 105q90 18 174 18q59 0 105.5 -13.5t70.5 -42.5q38 -44 38 -130v-318h-113l-12 30q-32 -21 -70.5 -32.5t-76.5 -11.5q-82 0 -127 44z
M287 99.5q25 4.5 44 10.5v101h-76q-27 0 -43 -4t-25 -13q-14 -14 -14 -41q0 -28 16.5 -43t53.5 -15q19 0 44 4.5zM147 696l70 95l183 -170l-50 -62z" />
    <glyph glyph-name="aacute" unicode="&#xe1;" horiz-adv-x="531" 
d="M30 0zM75 30q-45 44 -45 117q0 33 11 62t32 49q26 24 68.5 34.5t111.5 10.5h78v16q0 39 -18 55q-23 20 -83 20q-33 0 -72 -4t-65 -9l-7 105q90 18 174 18q59 0 105.5 -13.5t70.5 -42.5q38 -44 38 -130v-318h-113l-12 30q-32 -21 -70.5 -32.5t-76.5 -11.5q-82 0 -127 44z
M287 99.5q25 4.5 44 10.5v101h-76q-27 0 -43 -4t-25 -13q-14 -14 -14 -41q0 -28 16.5 -43t53.5 -15q19 0 44 4.5zM147 621l183 170l70 -95l-203 -137z" />
    <glyph glyph-name="acircumflex" unicode="&#xe2;" horiz-adv-x="531" 
d="M30 0zM75 30q-45 44 -45 117q0 33 11 62t32 49q26 24 68.5 34.5t111.5 10.5h78v16q0 39 -18 55q-23 20 -83 20q-33 0 -72 -4t-65 -9l-7 105q90 18 174 18q59 0 105.5 -13.5t70.5 -42.5q38 -44 38 -130v-318h-113l-12 30q-32 -21 -70.5 -32.5t-76.5 -11.5q-82 0 -127 44z
M287 99.5q25 4.5 44 10.5v101h-76q-27 0 -43 -4t-25 -13q-14 -14 -14 -41q0 -28 16.5 -43t53.5 -15q19 0 44 4.5zM101 613l125 144h96l125 -144l-50 -51l-123 98l-123 -98z" />
    <glyph glyph-name="atilde" unicode="&#xe3;" horiz-adv-x="531" 
d="M30 0zM75 30q-45 44 -45 117q0 33 11 62t32 49q26 24 68.5 34.5t111.5 10.5h78v16q0 39 -18 55q-23 20 -83 20q-33 0 -72 -4t-65 -9l-7 105q90 18 174 18q59 0 105.5 -13.5t70.5 -42.5q38 -44 38 -130v-318h-113l-12 30q-32 -21 -70.5 -32.5t-76.5 -11.5q-82 0 -127 44z
M287 99.5q25 4.5 44 10.5v101h-76q-27 0 -43 -4t-25 -13q-14 -14 -14 -41q0 -28 16.5 -43t53.5 -15q19 0 44 4.5zM91 603q0 65 28 101t78 36q22 0 42.5 -6.5t44.5 -17.5q22 -9 34.5 -13.5t25.5 -4.5q33 0 42 46l71 -11q0 -65 -28 -101t-78 -36q-22 0 -41.5 6t-44.5 18
q-16 7 -32.5 12.5t-28.5 5.5q-33 0 -42 -46z" />
    <glyph glyph-name="adieresis" unicode="&#xe4;" horiz-adv-x="531" 
d="M30 0zM75 30q-45 44 -45 117q0 33 11 62t32 49q26 24 68.5 34.5t111.5 10.5h78v16q0 39 -18 55q-23 20 -83 20q-33 0 -72 -4t-65 -9l-7 105q90 18 174 18q59 0 105.5 -13.5t70.5 -42.5q38 -44 38 -130v-318h-113l-12 30q-32 -21 -70.5 -32.5t-76.5 -11.5q-82 0 -127 44z
M287 99.5q25 4.5 44 10.5v101h-76q-27 0 -43 -4t-25 -13q-14 -14 -14 -41q0 -28 16.5 -43t53.5 -15q19 0 44 4.5zM115.5 605.5q-16.5 15.5 -16.5 48.5v11q0 34 16.5 49t50.5 15h6q34 0 51 -15t17 -49v-11q0 -64 -68 -64h-6q-34 0 -50.5 15.5zM307 654v11q0 64 68 64h6
q34 0 50.5 -15t16.5 -49v-11q0 -33 -16.5 -48.5t-50.5 -15.5h-6q-68 0 -68 64z" />
    <glyph glyph-name="aring" unicode="&#xe5;" horiz-adv-x="531" 
d="M30 0zM75 30q-45 44 -45 117q0 33 11 62t32 49q26 24 68.5 34.5t111.5 10.5h78v16q0 39 -18 55q-23 20 -83 20q-33 0 -72 -4t-65 -9l-7 105q90 18 174 18q59 0 105.5 -13.5t70.5 -42.5q38 -44 38 -130v-318h-113l-12 30q-32 -21 -70.5 -32.5t-76.5 -11.5q-82 0 -127 44z
M287 99.5q25 4.5 44 10.5v101h-76q-27 0 -43 -4t-25 -13q-14 -14 -14 -41q0 -28 16.5 -43t53.5 -15q19 0 44 4.5zM180.5 596q-30.5 27 -30.5 84v14q0 58 30.5 84.5t90.5 26.5h7q59 0 89.5 -26.5t30.5 -84.5v-14q0 -111 -120 -111h-7q-60 0 -90.5 27zM276 632q27 0 39 12
t12 40v4q0 29 -12 40t-39 11h-3q-28 0 -40.5 -11t-12.5 -40v-4q0 -28 12.5 -40t40.5 -12h3z" />
    <glyph glyph-name="ae" unicode="&#xe6;" horiz-adv-x="817" 
d="M75 30q-45 44 -45 117q0 33 11 62t32 49q26 24 68.5 34.5t111.5 10.5h78v18q-1 36 -18 53q-23 20 -83 20q-33 0 -72 -4t-65 -9l-7 105q90 18 174 18q105 0 158 -39q57 39 144 39q112 0 168.5 -60.5t56.5 -186.5v-45q0 -11 -12 -11h-301q3 -60 39 -83t112 -23q59 0 122 12
l11 -104q-89 -17 -165 -17q-67 0 -118 15.5t-83 44.5q-33 -25 -88 -42.5t-102 -17.5q-82 0 -127 44zM647 294q0 48 -22 75t-64 27q-82 0 -87 -102h173zM291.5 100q28.5 5 54.5 14q-12 33 -15 97h-76q-27 0 -43 -4t-25 -13q-14 -14 -14 -41q0 -28 16.5 -43t53.5 -15
q20 0 48.5 5z" />
    <glyph glyph-name="ccedilla" unicode="&#xe7;" horiz-adv-x="463" 
d="M197 -238v75q38 -10 69 -10q44 0 44 23q0 10 -10.5 18t-45.5 19q-29 9 -42 22.5t-13 37.5q0 25 14 48q-92 18 -138 89q-20 30 -30 69t-10 81q0 128 63 197q33 35 84 54t112 19q79 0 144 -18l-9 -106q-53 14 -113 14q-66 0 -99 -35q-33 -36 -33 -114q0 -77 34 -113.5
t110 -36.5q50 0 102 10l11 -103q-38 -9 -68.5 -12.5t-69.5 -3.5h-17v-7q0 -9 6.5 -14t30.5 -14q48 -18 65 -37t17 -54q0 -48 -27 -78q-14 -16 -39 -25t-53 -9q-50 0 -89 14z" />
    <glyph glyph-name="egrave" unicode="&#xe8;" horiz-adv-x="528" 
d="M35 0zM184.5 2.5q-51.5 16.5 -83.5 46.5q-66 63 -66 195q0 128 62 194t176 66q112 0 168.5 -60.5t56.5 -186.5v-45q0 -11 -12 -11h-301q3 -60 39 -83t112 -23q59 0 122 12l11 -104q-89 -17 -165 -17q-68 0 -119.5 16.5zM358 294q0 48 -22 75t-64 27q-82 0 -87 -102h173z
M137 696l70 95l183 -170l-50 -62z" />
    <glyph glyph-name="eacute" unicode="&#xe9;" horiz-adv-x="528" 
d="M35 0zM184.5 2.5q-51.5 16.5 -83.5 46.5q-66 63 -66 195q0 128 62 194t176 66q112 0 168.5 -60.5t56.5 -186.5v-45q0 -11 -12 -11h-301q3 -60 39 -83t112 -23q59 0 122 12l11 -104q-89 -17 -165 -17q-68 0 -119.5 16.5zM358 294q0 48 -22 75t-64 27q-82 0 -87 -102h173z
M137 621l183 170l70 -95l-203 -137z" />
    <glyph glyph-name="ecircumflex" unicode="&#xea;" horiz-adv-x="528" 
d="M35 0zM184.5 2.5q-51.5 16.5 -83.5 46.5q-66 63 -66 195q0 128 62 194t176 66q112 0 168.5 -60.5t56.5 -186.5v-45q0 -11 -12 -11h-301q3 -60 39 -83t112 -23q59 0 122 12l11 -104q-89 -17 -165 -17q-68 0 -119.5 16.5zM358 294q0 48 -22 75t-64 27q-82 0 -87 -102h173z
M91 613l125 144h96l125 -144l-50 -51l-123 98l-123 -98z" />
    <glyph glyph-name="edieresis" unicode="&#xeb;" horiz-adv-x="528" 
d="M35 0zM184.5 2.5q-51.5 16.5 -83.5 46.5q-66 63 -66 195q0 128 62 194t176 66q112 0 168.5 -60.5t56.5 -186.5v-45q0 -11 -12 -11h-301q3 -60 39 -83t112 -23q59 0 122 12l11 -104q-89 -17 -165 -17q-68 0 -119.5 16.5zM358 294q0 48 -22 75t-64 27q-82 0 -87 -102h173z
M105.5 605.5q-16.5 15.5 -16.5 48.5v11q0 34 16.5 49t50.5 15h6q34 0 51 -15t17 -49v-11q0 -64 -68 -64h-6q-34 0 -50.5 15.5zM297 654v11q0 64 68 64h6q34 0 50.5 -15t16.5 -49v-11q0 -33 -16.5 -48.5t-50.5 -15.5h-6q-68 0 -68 64z" />
    <glyph glyph-name="igrave" unicode="&#xec;" horiz-adv-x="269" 
d="M8 0zM63 490h143v-490h-143v490zM8 696l70 95l183 -170l-50 -62z" />
    <glyph glyph-name="iacute" unicode="&#xed;" horiz-adv-x="269" 
d="M8 0zM63 490h143v-490h-143v490zM8 621l183 170l70 -95l-203 -137z" />
    <glyph glyph-name="icircumflex" unicode="&#xee;" horiz-adv-x="269" 
d="M0 0zM63 490h143v-490h-143v490zM-38 613l125 144h96l125 -144l-50 -51l-123 98l-123 -98z" />
    <glyph glyph-name="idieresis" unicode="&#xef;" horiz-adv-x="269" 
d="M0 0zM63 490h143v-490h-143v490zM-23.5 605.5q-16.5 15.5 -16.5 48.5v11q0 34 16.5 49t50.5 15h6q34 0 51 -15t17 -49v-11q0 -64 -68 -64h-6q-34 0 -50.5 15.5zM168 654v11q0 64 68 64h6q34 0 50.5 -15t16.5 -49v-11q0 -33 -16.5 -48.5t-50.5 -15.5h-6q-68 0 -68 64z" />
    <glyph glyph-name="eth" unicode="&#xf0;" horiz-adv-x="570" 
d="M482.5 489.5q43.5 -97.5 43.5 -218.5q0 -133 -60.5 -209t-184.5 -76q-120 0 -180.5 66t-60.5 174q0 113 58 175t152 62q52 0 106 -26q-25 79 -87 150l-66 -64l-58 58l66 65q-27 24 -76 63q11 11 35.5 34.5t35.5 35.5q48 -32 83 -57l70 68l58 -58l-65 -64
q87 -81 130.5 -178.5zM206 779zM356.5 140q21.5 45 21.5 130q0 29 -4 77q-44 13 -79 13q-106 0 -106 -132q0 -60 23.5 -96.5t71.5 -36.5q51 0 72.5 45z" />
    <glyph glyph-name="ntilde" unicode="&#xf1;" horiz-adv-x="573" 
d="M60 0zM60 490h124l3 -35q38 25 82.5 37t86.5 12q35 0 67 -9.5t51 -28.5q42 -41 42 -129v-337h-143v320q0 34 -15 49q-17 16 -62 16q-21 0 -48.5 -4.5t-44.5 -11.5v-369h-143v490zM112 603q0 65 28 101t78 36q22 0 42.5 -6.5t44.5 -17.5q22 -9 34.5 -13.5t25.5 -4.5
q33 0 42 46l71 -11q0 -65 -28 -101t-78 -36q-22 0 -41.5 6t-44.5 18q-16 7 -32.5 12.5t-28.5 5.5q-33 0 -42 -46z" />
    <glyph glyph-name="ograve" unicode="&#xf2;" horiz-adv-x="568" 
d="M35 0zM97.5 54.5q-62.5 68.5 -62.5 190.5t62.5 190.5t186.5 68.5t186.5 -68.5t62.5 -190.5t-62.5 -190.5t-186.5 -68.5t-186.5 68.5zM360.5 131.5q23.5 36.5 23.5 113.5t-23.5 113.5t-76.5 36.5t-76.5 -36.5t-23.5 -113.5t23.5 -113.5t76.5 -36.5t76.5 36.5zM157 696
l70 95l183 -170l-50 -62z" />
    <glyph glyph-name="oacute" unicode="&#xf3;" horiz-adv-x="568" 
d="M35 0zM97.5 54.5q-62.5 68.5 -62.5 190.5t62.5 190.5t186.5 68.5t186.5 -68.5t62.5 -190.5t-62.5 -190.5t-186.5 -68.5t-186.5 68.5zM360.5 131.5q23.5 36.5 23.5 113.5t-23.5 113.5t-76.5 36.5t-76.5 -36.5t-23.5 -113.5t23.5 -113.5t76.5 -36.5t76.5 36.5zM157 621
l183 170l70 -95l-203 -137z" />
    <glyph glyph-name="ocircumflex" unicode="&#xf4;" horiz-adv-x="568" 
d="M35 0zM97.5 54.5q-62.5 68.5 -62.5 190.5t62.5 190.5t186.5 68.5t186.5 -68.5t62.5 -190.5t-62.5 -190.5t-186.5 -68.5t-186.5 68.5zM360.5 131.5q23.5 36.5 23.5 113.5t-23.5 113.5t-76.5 36.5t-76.5 -36.5t-23.5 -113.5t23.5 -113.5t76.5 -36.5t76.5 36.5zM111 613
l125 144h96l125 -144l-50 -51l-123 98l-123 -98z" />
    <glyph glyph-name="otilde" unicode="&#xf5;" horiz-adv-x="568" 
d="M35 0zM97.5 54.5q-62.5 68.5 -62.5 190.5t62.5 190.5t186.5 68.5t186.5 -68.5t62.5 -190.5t-62.5 -190.5t-186.5 -68.5t-186.5 68.5zM360.5 131.5q23.5 36.5 23.5 113.5t-23.5 113.5t-76.5 36.5t-76.5 -36.5t-23.5 -113.5t23.5 -113.5t76.5 -36.5t76.5 36.5zM101 603
q0 65 28 101t78 36q22 0 42.5 -6.5t44.5 -17.5q22 -9 34.5 -13.5t25.5 -4.5q33 0 42 46l71 -11q0 -65 -28 -101t-78 -36q-22 0 -41.5 6t-44.5 18q-16 7 -32.5 12.5t-28.5 5.5q-33 0 -42 -46z" />
    <glyph glyph-name="odieresis" unicode="&#xf6;" horiz-adv-x="568" 
d="M35 0zM97.5 54.5q-62.5 68.5 -62.5 190.5t62.5 190.5t186.5 68.5t186.5 -68.5t62.5 -190.5t-62.5 -190.5t-186.5 -68.5t-186.5 68.5zM360.5 131.5q23.5 36.5 23.5 113.5t-23.5 113.5t-76.5 36.5t-76.5 -36.5t-23.5 -113.5t23.5 -113.5t76.5 -36.5t76.5 36.5zM125.5 605.5
q-16.5 15.5 -16.5 48.5v11q0 34 16.5 49t50.5 15h6q34 0 51 -15t17 -49v-11q0 -64 -68 -64h-6q-34 0 -50.5 15.5zM317 654v11q0 64 68 64h6q34 0 50.5 -15t16.5 -49v-11q0 -33 -16.5 -48.5t-50.5 -15.5h-6q-68 0 -68 64z" />
    <glyph glyph-name="divide" unicode="&#xf7;" 
d="M248 466q-16 15 -16 47v13q0 32 15.5 46.5t49.5 14.5h7q34 0 50 -14.5t16 -46.5v-13q0 -32 -16.5 -47t-49.5 -15h-7q-33 0 -49 15zM113 371h374v-94h-374v94zM248 74.5q-16 14.5 -16 47.5v13q0 32 15.5 46.5t49.5 14.5h7q34 0 50 -14.5t16 -46.5v-13q0 -32 -16 -47
t-50 -15h-7q-33 0 -49 14.5z" />
    <glyph glyph-name="oslash" unicode="&#xf8;" horiz-adv-x="568" 
d="M156 12q-60 29 -90.5 89t-30.5 144q0 122 62.5 190.5t186.5 68.5q31 0 52 -4l27 74h84l-35 -96q60 -30 90.5 -89.5t30.5 -143.5q0 -122 -62.5 -190.5t-186.5 -68.5q-31 0 -52 4l-27 -74h-84zM297 394q-4 1 -13 1q-53 0 -76.5 -36.5t-23.5 -113.5q0 -69 19 -106zM284 95
q53 0 76.5 36.5t23.5 113.5q0 69 -19 106l-94 -256h13z" />
    <glyph glyph-name="ugrave" unicode="&#xf9;" horiz-adv-x="569" 
d="M57 0zM150 -3.5q-32 9.5 -51 28.5q-42 41 -42 129v336h143v-316q0 -37 15 -52q17 -16 62 -16q19 0 45 4t44 10v370h143v-490h-124l-4 33q-38 -23 -81 -34.5t-83 -11.5q-35 0 -67 9.5zM164 696l70 95l183 -170l-50 -62z" />
    <glyph glyph-name="uacute" unicode="&#xfa;" horiz-adv-x="569" 
d="M57 0zM150 -3.5q-32 9.5 -51 28.5q-42 41 -42 129v336h143v-316q0 -37 15 -52q17 -16 62 -16q19 0 45 4t44 10v370h143v-490h-124l-4 33q-38 -23 -81 -34.5t-83 -11.5q-35 0 -67 9.5zM164 621l183 170l70 -95l-203 -137z" />
    <glyph glyph-name="ucircumflex" unicode="&#xfb;" horiz-adv-x="569" 
d="M57 0zM150 -3.5q-32 9.5 -51 28.5q-42 41 -42 129v336h143v-316q0 -37 15 -52q17 -16 62 -16q19 0 45 4t44 10v370h143v-490h-124l-4 33q-38 -23 -81 -34.5t-83 -11.5q-35 0 -67 9.5zM118 613l125 144h96l125 -144l-50 -51l-123 98l-123 -98z" />
    <glyph glyph-name="udieresis" unicode="&#xfc;" horiz-adv-x="569" 
d="M57 0zM150 -3.5q-32 9.5 -51 28.5q-42 41 -42 129v336h143v-316q0 -37 15 -52q17 -16 62 -16q19 0 45 4t44 10v370h143v-490h-124l-4 33q-38 -23 -81 -34.5t-83 -11.5q-35 0 -67 9.5zM132.5 605.5q-16.5 15.5 -16.5 48.5v11q0 34 16.5 49t50.5 15h6q34 0 51 -15t17 -49
v-11q0 -64 -68 -64h-6q-34 0 -50.5 15.5zM324 654v11q0 64 68 64h6q34 0 50.5 -15t16.5 -49v-11q0 -33 -16.5 -48.5t-50.5 -15.5h-6q-68 0 -68 64z" />
    <glyph glyph-name="yacute" unicode="&#xfd;" horiz-adv-x="571" 
d="M57 0zM159 -226l-10 106q61 -11 112 -11q27 0 49.5 6t33.5 17q24 23 24 79v60q-35 -20 -75.5 -30t-78.5 -10q-34 0 -64.5 9.5t-49.5 28.5q-22 22 -32.5 52t-10.5 72v337h143v-317q0 -34 15 -49q10 -9 24 -12.5t37 -3.5q20 0 47 5.5t45 12.5v364h143v-469q0 -91 -20 -147
t-70 -84.5t-137 -28.5q-65 0 -125 13zM179 621l183 170l70 -95l-203 -137z" />
    <glyph glyph-name="thorn" unicode="&#xfe;" horiz-adv-x="560" 
d="M60 715h143v-251q68 40 139 40q73 0 117 -42q33 -33 49.5 -88t16.5 -126q0 -138 -51 -200t-140 -62q-33 0 -68.5 9.5t-62.5 26.5v-247h-143v940zM341 112.5q18 13.5 26 46t8 91.5q0 53 -8 83t-27 43t-52 13q-17 0 -42 -4t-43 -9v-263q32 -14 89 -14q31 0 49 13.5z" />
    <glyph glyph-name="ydieresis" unicode="&#xff;" horiz-adv-x="571" 
d="M57 0zM159 -226l-10 106q61 -11 112 -11q27 0 49.5 6t33.5 17q24 23 24 79v60q-35 -20 -75.5 -30t-78.5 -10q-34 0 -64.5 9.5t-49.5 28.5q-22 22 -32.5 52t-10.5 72v337h143v-317q0 -34 15 -49q10 -9 24 -12.5t37 -3.5q20 0 47 5.5t45 12.5v364h143v-469q0 -91 -20 -147
t-70 -84.5t-137 -28.5q-65 0 -125 13zM127.5 605.5q-16.5 15.5 -16.5 48.5v11q0 34 16.5 49t50.5 15h6q34 0 51 -15t17 -49v-11q0 -64 -68 -64h-6q-34 0 -50.5 15.5zM319 654v11q0 64 68 64h6q34 0 50.5 -15t16.5 -49v-11q0 -33 -16.5 -48.5t-50.5 -15.5h-6q-68 0 -68 64z
" />
    <glyph glyph-name="Amacron" unicode="&#x100;" horiz-adv-x="658" 
d="M5 0zM234 684h172l247 -684h-167l-57 172h-222l-53 -172h-149zM391 285l-75 228h-2l-71 -228h148zM174 903h295v-98h-295v98z" />
    <glyph glyph-name="amacron" unicode="&#x101;" horiz-adv-x="531" 
d="M30 0zM75 30q-45 44 -45 117q0 33 11 62t32 49q26 24 68.5 34.5t111.5 10.5h78v16q0 39 -18 55q-23 20 -83 20q-33 0 -72 -4t-65 -9l-7 105q90 18 174 18q59 0 105.5 -13.5t70.5 -42.5q38 -44 38 -130v-318h-113l-12 30q-32 -21 -70.5 -32.5t-76.5 -11.5q-82 0 -127 44z
M287 99.5q25 4.5 44 10.5v101h-76q-27 0 -43 -4t-25 -13q-14 -14 -14 -41q0 -28 16.5 -43t53.5 -15q19 0 44 4.5zM126 703h295v-98h-295v98z" />
    <glyph glyph-name="Abreve" unicode="&#x102;" horiz-adv-x="658" 
d="M5 0zM234 684h172l247 -684h-167l-57 172h-222l-53 -172h-149zM391 285l-75 228h-2l-71 -228h148zM199 819.5q-38 44.5 -38 115.5l87 3q5 -38 22.5 -57t51.5 -19t51.5 19t22.5 57l86 -3q0 -71 -37.5 -115.5t-122.5 -44.5t-123 44.5z" />
    <glyph glyph-name="abreve" unicode="&#x103;" horiz-adv-x="531" 
d="M30 0zM75 30q-45 44 -45 117q0 33 11 62t32 49q26 24 68.5 34.5t111.5 10.5h78v16q0 39 -18 55q-23 20 -83 20q-33 0 -72 -4t-65 -9l-7 105q90 18 174 18q59 0 105.5 -13.5t70.5 -42.5q38 -44 38 -130v-318h-113l-12 30q-32 -21 -70.5 -32.5t-76.5 -11.5q-82 0 -127 44z
M287 99.5q25 4.5 44 10.5v101h-76q-27 0 -43 -4t-25 -13q-14 -14 -14 -41q0 -28 16.5 -43t53.5 -15q19 0 44 4.5zM151 619.5q-38 44.5 -38 115.5l87 3q5 -38 22.5 -57t51.5 -19t51.5 19t22.5 57l86 -3q0 -71 -37.5 -115.5t-122.5 -44.5t-123 44.5z" />
    <glyph glyph-name="Aogonek" unicode="&#x104;" horiz-adv-x="658" 
d="M430.5 -218.5q-34.5 30.5 -34.5 86.5q0 43 23 78.5t64 61.5l-54 164h-222l-53 -172h-149l229 684h172l247 -684h-40q-47 0 -82 -31t-35 -79q0 -57 61 -57q27 0 56 9v-77q-47 -14 -92 -14q-56 0 -90.5 30.5zM391 285l-75 228h-2l-71 -228h148z" />
    <glyph glyph-name="aogonek" unicode="&#x105;" horiz-adv-x="531" 
d="M311.5 -218.5q-34.5 30.5 -34.5 86.5q0 37 22 72t60 64l-10 26q-32 -21 -70.5 -32.5t-76.5 -11.5q-82 0 -127 44t-45 117q0 33 11 62t32 49q26 24 68.5 34.5t111.5 10.5h78v16q0 39 -18 55q-23 20 -83 20q-33 0 -72 -4t-65 -9l-7 105q90 18 174 18q59 0 105.5 -13.5
t70.5 -42.5q38 -44 38 -130v-318h-15q-9 0 -14.5 -2.5t-11.5 -8.5q-30 -30 -43 -56.5t-13 -53.5q0 -46 61 -46q27 0 56 9v-77q-47 -14 -92 -14q-56 0 -90.5 30.5zM287 99.5q25 4.5 44 10.5v101h-76q-27 0 -43 -4t-25 -13q-14 -14 -14 -41q0 -28 16.5 -43t53.5 -15
q19 0 44 4.5z" />
    <glyph glyph-name="Cacute" unicode="&#x106;" horiz-adv-x="589" 
d="M45 0zM227 6.5q-60 20.5 -99 62.5q-43 46 -63 112.5t-20 157.5q0 168 81 263t250 95q44 0 95 -9t84 -22l-20 -114q-85 24 -147 24q-103 0 -142 -60t-39 -173q0 -132 49 -187q23 -26 58 -37.5t92 -11.5q25 0 60.5 4t65.5 10l16 -114q-31 -9 -80.5 -15t-91.5 -6
q-89 0 -149 20.5zM249 821l183 170l70 -95l-203 -137z" />
    <glyph glyph-name="cacute" unicode="&#x107;" horiz-adv-x="463" 
d="M35 0zM75 84q-20 30 -30 69t-10 81q0 128 63 197q33 35 84 54t112 19q79 0 144 -18l-9 -106q-53 14 -113 14q-66 0 -99 -35q-33 -36 -33 -114q0 -77 34 -113.5t110 -36.5q50 0 102 10l11 -103q-38 -9 -68.5 -12.5t-69.5 -3.5q-165 0 -228 98zM166 621l183 170l70 -95
l-203 -137z" />
    <glyph glyph-name="Ccircumflex" unicode="&#x108;" horiz-adv-x="589" 
d="M45 0zM227 6.5q-60 20.5 -99 62.5q-43 46 -63 112.5t-20 157.5q0 168 81 263t250 95q44 0 95 -9t84 -22l-20 -114q-85 24 -147 24q-103 0 -142 -60t-39 -173q0 -132 49 -187q23 -26 58 -37.5t92 -11.5q25 0 60.5 4t65.5 10l16 -114q-31 -9 -80.5 -15t-91.5 -6
q-89 0 -149 20.5zM203 813l125 144h96l125 -144l-50 -51l-123 98l-123 -98z" />
    <glyph glyph-name="ccircumflex" unicode="&#x109;" horiz-adv-x="463" 
d="M35 0zM75 84q-20 30 -30 69t-10 81q0 128 63 197q33 35 84 54t112 19q79 0 144 -18l-9 -106q-53 14 -113 14q-66 0 -99 -35q-33 -36 -33 -114q0 -77 34 -113.5t110 -36.5q50 0 102 10l11 -103q-38 -9 -68.5 -12.5t-69.5 -3.5q-165 0 -228 98zM120 613l125 144h96
l125 -144l-50 -51l-123 98l-123 -98z" />
    <glyph glyph-name="Cdotaccent" unicode="&#x10a;" horiz-adv-x="589" 
d="M45 0zM227 6.5q-60 20.5 -99 62.5q-43 46 -63 112.5t-20 157.5q0 168 81 263t250 95q44 0 95 -9t84 -22l-20 -114q-85 24 -147 24q-103 0 -142 -60t-39 -173q0 -132 49 -187q23 -26 58 -37.5t92 -11.5q25 0 60.5 4t65.5 10l16 -114q-31 -9 -80.5 -15t-91.5 -6
q-89 0 -149 20.5zM318.5 804q-17.5 16 -17.5 52v11q0 37 17.5 52.5t54.5 15.5h6q36 0 54 -16t18 -52v-11q0 -36 -18 -52t-54 -16h-6q-37 0 -54.5 16z" />
    <glyph glyph-name="cdotaccent" unicode="&#x10b;" horiz-adv-x="463" 
d="M35 0zM75 84q-20 30 -30 69t-10 81q0 128 63 197q33 35 84 54t112 19q79 0 144 -18l-9 -106q-53 14 -113 14q-66 0 -99 -35q-33 -36 -33 -114q0 -77 34 -113.5t110 -36.5q50 0 102 10l11 -103q-38 -9 -68.5 -12.5t-69.5 -3.5q-165 0 -228 98zM235.5 604
q-17.5 16 -17.5 52v11q0 37 17.5 52.5t54.5 15.5h6q36 0 54 -16t18 -52v-11q0 -36 -18 -52t-54 -16h-6q-37 0 -54.5 16z" />
    <glyph glyph-name="Ccaron" unicode="&#x10c;" horiz-adv-x="589" 
d="M45 0zM227 6.5q-60 20.5 -99 62.5q-43 46 -63 112.5t-20 157.5q0 168 81 263t250 95q44 0 95 -9t84 -22l-20 -114q-85 24 -147 24q-103 0 -142 -60t-39 -173q0 -132 49 -187q23 -26 58 -37.5t92 -11.5q25 0 60.5 4t65.5 10l16 -114q-31 -9 -80.5 -15t-91.5 -6
q-89 0 -149 20.5zM203 918l50 51l123 -98l123 98l50 -51l-125 -144h-96z" />
    <glyph glyph-name="ccaron" unicode="&#x10d;" horiz-adv-x="463" 
d="M35 0zM75 84q-20 30 -30 69t-10 81q0 128 63 197q33 35 84 54t112 19q79 0 144 -18l-9 -106q-53 14 -113 14q-66 0 -99 -35q-33 -36 -33 -114q0 -77 34 -113.5t110 -36.5q50 0 102 10l11 -103q-38 -9 -68.5 -12.5t-69.5 -3.5q-165 0 -228 98zM120 718l50 51l123 -98
l123 98l50 -51l-125 -144h-96z" />
    <glyph glyph-name="Dcaron" unicode="&#x10e;" horiz-adv-x="686" 
d="M74 0zM74 684h211q100 0 165.5 -17.5t107.5 -59.5q83 -81 83 -262q0 -93 -20.5 -158.5t-62.5 -109.5q-38 -39 -99.5 -58t-152.5 -19h-232v684zM296 114q106 0 147 61q20 30 28 68t8 102q0 72 -11 112t-37 68q-23 24 -59 34.5t-94 10.5h-48v-456h66zM170 918l50 51
l123 -98l123 98l50 -51l-125 -144h-96z" />
    <glyph glyph-name="dcaron" unicode="&#x10f;" horiz-adv-x="714" 
d="M103 28q-68 67 -68 216q0 80 24 139t68 90t102 31q33 0 67.5 -9.5t62.5 -26.5v247h143v-715h-124l-3 35q-73 -49 -155 -49q-73 0 -117 42zM606 554q-31 10 -43 26.5t-12 46.5q0 34 17 52t51 18h7q33 0 50.5 -18t17.5 -52v-25q0 -47 -6.5 -101.5t-14.5 -78.5h-67v132z
M316.5 103q24.5 5 42.5 12v265q-35 11 -68 11q-53 0 -79.5 -33.5t-26.5 -117.5q0 -55 8.5 -85.5t28 -43.5t52.5 -13q18 0 42.5 5z" />
    <glyph glyph-name="Dcroat" unicode="&#x110;" horiz-adv-x="686" 
d="M74 288h-72v102l72 12v282h211q100 0 165.5 -17.5t107.5 -59.5q83 -81 83 -262q0 -93 -20.5 -158.5t-62.5 -109.5q-38 -39 -99.5 -58t-152.5 -19h-232v288zM296 114q106 0 147 61q20 30 28 68t8 102q0 72 -11 112t-37 68q-23 24 -59 34.5t-94 10.5h-48v-165h139v-117
h-139v-174h66z" />
    <glyph glyph-name="dcroat" unicode="&#x111;" horiz-adv-x="562" 
d="M103 28q-68 67 -68 216q0 80 24 139t68 90t102 31q33 0 67.5 -9.5t62.5 -26.5v100h-159v82h159v65h143v-69l79 -6v-72h-79v-568h-124l-3 35q-73 -49 -155 -49q-73 0 -117 42zM316.5 103q24.5 5 42.5 12v265q-35 11 -68 11q-53 0 -79.5 -33.5t-26.5 -117.5
q0 -55 8.5 -85.5t28 -43.5t52.5 -13q18 0 42.5 5z" />
    <glyph glyph-name="Emacron" unicode="&#x112;" horiz-adv-x="583" 
d="M74 0zM74 684h462l-12 -113h-294v-166h235v-117h-235v-175h311v-113h-467v684zM160 903h295v-98h-295v98z" />
    <glyph glyph-name="emacron" unicode="&#x113;" horiz-adv-x="528" 
d="M35 0zM184.5 2.5q-51.5 16.5 -83.5 46.5q-66 63 -66 195q0 128 62 194t176 66q112 0 168.5 -60.5t56.5 -186.5v-45q0 -11 -12 -11h-301q3 -60 39 -83t112 -23q59 0 122 12l11 -104q-89 -17 -165 -17q-68 0 -119.5 16.5zM358 294q0 48 -22 75t-64 27q-82 0 -87 -102h173z
M116 703h295v-98h-295v98z" />
    <glyph glyph-name="Ebreve" unicode="&#x114;" horiz-adv-x="583" 
d="M74 0zM74 684h462l-12 -113h-294v-166h235v-117h-235v-175h311v-113h-467v684zM185 819.5q-38 44.5 -38 115.5l87 3q5 -38 22.5 -57t51.5 -19t51.5 19t22.5 57l86 -3q0 -71 -37.5 -115.5t-122.5 -44.5t-123 44.5z" />
    <glyph glyph-name="ebreve" unicode="&#x115;" horiz-adv-x="528" 
d="M35 0zM184.5 2.5q-51.5 16.5 -83.5 46.5q-66 63 -66 195q0 128 62 194t176 66q112 0 168.5 -60.5t56.5 -186.5v-45q0 -11 -12 -11h-301q3 -60 39 -83t112 -23q59 0 122 12l11 -104q-89 -17 -165 -17q-68 0 -119.5 16.5zM358 294q0 48 -22 75t-64 27q-82 0 -87 -102h173z
M147 619.5q-38 44.5 -38 115.5l87 3q5 -38 22.5 -57t51.5 -19t51.5 19t22.5 57l86 -3q0 -71 -37.5 -115.5t-122.5 -44.5t-123 44.5z" />
    <glyph glyph-name="Edotaccent" unicode="&#x116;" horiz-adv-x="583" 
d="M74 0zM74 684h462l-12 -113h-294v-166h235v-117h-235v-175h311v-113h-467v684zM250.5 804q-17.5 16 -17.5 52v11q0 37 17.5 52.5t54.5 15.5h6q36 0 54 -16t18 -52v-11q0 -36 -18 -52t-54 -16h-6q-37 0 -54.5 16z" />
    <glyph glyph-name="edotaccent" unicode="&#x117;" horiz-adv-x="528" 
d="M35 0zM184.5 2.5q-51.5 16.5 -83.5 46.5q-66 63 -66 195q0 128 62 194t176 66q112 0 168.5 -60.5t56.5 -186.5v-45q0 -11 -12 -11h-301q3 -60 39 -83t112 -23q59 0 122 12l11 -104q-89 -17 -165 -17q-68 0 -119.5 16.5zM358 294q0 48 -22 75t-64 27q-82 0 -87 -102h173z
M206.5 604q-17.5 16 -17.5 52v11q0 37 17.5 52.5t54.5 15.5h6q36 0 54 -16t18 -52v-11q0 -36 -18 -52t-54 -16h-6q-37 0 -54.5 16z" />
    <glyph glyph-name="Eogonek" unicode="&#x118;" horiz-adv-x="583" 
d="M348.5 -218.5q-34.5 30.5 -34.5 86.5q0 38 20 75t56 57h-316v684h462l-12 -113h-294v-166h235v-117h-235v-175h311v-113h-10q-47 0 -82 -31t-35 -79q0 -57 61 -57q27 0 56 9v-77q-47 -14 -92 -14q-56 0 -90.5 30.5z" />
    <glyph glyph-name="eogonek" unicode="&#x119;" horiz-adv-x="528" 
d="M295.5 -218.5q-34.5 30.5 -34.5 86.5q0 35 16 66t44 52h-17q-68 0 -119.5 16.5t-83.5 46.5q-66 63 -66 195q0 128 62 194t176 66q112 0 168.5 -60.5t56.5 -186.5v-45q0 -11 -12 -11h-301q3 -60 39 -83t112 -23q59 0 122 12l11 -104q-45 -9 -76.5 -37.5t-31.5 -74.5
q0 -28 15.5 -43t45.5 -15q27 0 56 9v-77q-47 -14 -92 -14q-56 0 -90.5 30.5zM358 294q0 48 -22 75t-64 27q-82 0 -87 -102h173z" />
    <glyph glyph-name="Ecaron" unicode="&#x11a;" horiz-adv-x="583" 
d="M74 0zM74 684h462l-12 -113h-294v-166h235v-117h-235v-175h311v-113h-467v684zM135 918l50 51l123 -98l123 98l50 -51l-125 -144h-96z" />
    <glyph glyph-name="ecaron" unicode="&#x11b;" horiz-adv-x="528" 
d="M35 0zM184.5 2.5q-51.5 16.5 -83.5 46.5q-66 63 -66 195q0 128 62 194t176 66q112 0 168.5 -60.5t56.5 -186.5v-45q0 -11 -12 -11h-301q3 -60 39 -83t112 -23q59 0 122 12l11 -104q-89 -17 -165 -17q-68 0 -119.5 16.5zM358 294q0 48 -22 75t-64 27q-82 0 -87 -102h173z
M96 718l50 51l123 -98l123 98l50 -51l-125 -144h-96z" />
    <glyph glyph-name="Gcircumflex" unicode="&#x11c;" horiz-adv-x="671" 
d="M45 0zM121 76q-76 90 -76 262q0 166 88 262.5t258 96.5q51 0 105.5 -9.5t87.5 -23.5l-20 -114q-88 25 -162 25q-101 0 -148 -58t-47 -173q0 -126 40 -182q39 -55 132 -55q41 0 83 7v144h-96v112h251v-349q-49 -15 -118.5 -25t-125.5 -10q-176 0 -252 90zM207 813l125 144
h96l125 -144l-50 -51l-123 98l-123 -98z" />
    <glyph glyph-name="gcircumflex" unicode="&#x11d;" horiz-adv-x="541" 
d="M98 613l125 144h96l125 -144l-50 -51l-123 98l-123 -98zM84.5 -207.5q-57.5 31.5 -57.5 97.5q0 29 15.5 52t42.5 37q-25 21 -25 64q0 31 17 62.5t48 56.5q-75 49 -75 154q0 95 57.5 141.5t163.5 46.5q64 0 116 -19l62 71q39 -25 78 -85l-65 -44q30 -46 30 -111h-1
q0 -96 -57 -142.5t-163 -46.5q-37 0 -64 4q-6 -11 -9.5 -22t-3.5 -17q0 -13 14 -13h96q70 0 114.5 -12.5t70.5 -39.5q36 -38 36 -104q0 -162 -249 -162h-8q-126 0 -183.5 31.5zM340.5 250.5q21.5 21.5 21.5 65.5q0 43 -21.5 64.5t-69.5 21.5t-70 -21.5t-22 -64.5
q0 -44 22 -65.5t70 -21.5t69.5 21.5zM287 -131q54 0 82 12.5t28 35.5q0 24 -18.5 33.5t-67.5 9.5h-143q-14 -15 -14 -37q0 -28 26 -41t92 -13h15z" />
    <glyph glyph-name="Gbreve" unicode="&#x11e;" horiz-adv-x="671" 
d="M45 0zM121 76q-76 90 -76 262q0 166 88 262.5t258 96.5q51 0 105.5 -9.5t87.5 -23.5l-20 -114q-88 25 -162 25q-101 0 -148 -58t-47 -173q0 -126 40 -182q39 -55 132 -55q41 0 83 7v144h-96v112h251v-349q-49 -15 -118.5 -25t-125.5 -10q-176 0 -252 90zM257 819.5
q-38 44.5 -38 115.5l87 3q5 -38 22.5 -57t51.5 -19t51.5 19t22.5 57l86 -3q0 -71 -37.5 -115.5t-122.5 -44.5t-123 44.5z" />
    <glyph glyph-name="gbreve" unicode="&#x11f;" horiz-adv-x="541" 
d="M148 619.5q-38 44.5 -38 115.5l87 3q5 -38 22.5 -57t51.5 -19t51.5 19t22.5 57l86 -3q0 -71 -37.5 -115.5t-122.5 -44.5t-123 44.5zM84.5 -207.5q-57.5 31.5 -57.5 97.5q0 29 15.5 52t42.5 37q-25 21 -25 64q0 31 17 62.5t48 56.5q-75 49 -75 154q0 95 57.5 141.5
t163.5 46.5q64 0 116 -19l62 71q39 -25 78 -85l-65 -44q30 -46 30 -111h-1q0 -96 -57 -142.5t-163 -46.5q-37 0 -64 4q-6 -11 -9.5 -22t-3.5 -17q0 -13 14 -13h96q70 0 114.5 -12.5t70.5 -39.5q36 -38 36 -104q0 -162 -249 -162h-8q-126 0 -183.5 31.5zM340.5 250.5
q21.5 21.5 21.5 65.5q0 43 -21.5 64.5t-69.5 21.5t-70 -21.5t-22 -64.5q0 -44 22 -65.5t70 -21.5t69.5 21.5zM287 -131q54 0 82 12.5t28 35.5q0 24 -18.5 33.5t-67.5 9.5h-143q-14 -15 -14 -37q0 -28 26 -41t92 -13h15z" />
    <glyph glyph-name="Gdotaccent" unicode="&#x120;" horiz-adv-x="671" 
d="M45 0zM121 76q-76 90 -76 262q0 166 88 262.5t258 96.5q51 0 105.5 -9.5t87.5 -23.5l-20 -114q-88 25 -162 25q-101 0 -148 -58t-47 -173q0 -126 40 -182q39 -55 132 -55q41 0 83 7v144h-96v112h251v-349q-49 -15 -118.5 -25t-125.5 -10q-176 0 -252 90zM322.5 804
q-17.5 16 -17.5 52v11q0 37 17.5 52.5t54.5 15.5h6q36 0 54 -16t18 -52v-11q0 -36 -18 -52t-54 -16h-6q-37 0 -54.5 16z" />
    <glyph glyph-name="gdotaccent" unicode="&#x121;" horiz-adv-x="541" 
d="M213.5 604q-17.5 16 -17.5 52v11q0 37 17.5 52.5t54.5 15.5h6q36 0 54 -16t18 -52v-11q0 -36 -18 -52t-54 -16h-6q-37 0 -54.5 16zM84.5 -207.5q-57.5 31.5 -57.5 97.5q0 29 15.5 52t42.5 37q-25 21 -25 64q0 31 17 62.5t48 56.5q-75 49 -75 154q0 95 57.5 141.5
t163.5 46.5q64 0 116 -19l62 71q39 -25 78 -85l-65 -44q30 -46 30 -111h-1q0 -96 -57 -142.5t-163 -46.5q-37 0 -64 4q-6 -11 -9.5 -22t-3.5 -17q0 -13 14 -13h96q70 0 114.5 -12.5t70.5 -39.5q36 -38 36 -104q0 -162 -249 -162h-8q-126 0 -183.5 31.5zM340.5 250.5
q21.5 21.5 21.5 65.5q0 43 -21.5 64.5t-69.5 21.5t-70 -21.5t-22 -64.5q0 -44 22 -65.5t70 -21.5t69.5 21.5zM287 -131q54 0 82 12.5t28 35.5q0 24 -18.5 33.5t-67.5 9.5h-143q-14 -15 -14 -37q0 -28 26 -41t92 -13h15z" />
    <glyph glyph-name="Gcommaaccent" unicode="&#x122;" horiz-adv-x="671" 
d="M45 0zM121 76q-76 90 -76 262q0 166 88 262.5t258 96.5q51 0 105.5 -9.5t87.5 -23.5l-20 -114q-88 25 -162 25q-101 0 -148 -58t-47 -173q0 -126 40 -182q39 -55 132 -55q41 0 83 7v144h-96v112h251v-349q-49 -15 -118.5 -25t-125.5 -10q-176 0 -252 90zM356 -228
q-31 10 -43 26.5t-12 46.5q0 34 17 52t51 18h7q33 0 50.5 -18t17.5 -52v-25q0 -47 -6.5 -101.5t-14.5 -78.5h-67v132z" />
    <glyph glyph-name="gcommaaccent" unicode="&#x123;" horiz-adv-x="541" 
d="M216.5 584.5q-17.5 18.5 -17.5 52.5v24q0 47 6.5 101.5t14.5 78.5h67v-132q31 -10 43 -26.5t12 -46.5q0 -34 -17 -52t-51 -18h-7q-33 0 -50.5 18.5zM84.5 -207.5q-57.5 31.5 -57.5 97.5q0 29 15.5 52t42.5 37q-25 21 -25 64q0 31 17 62.5t48 56.5q-75 49 -75 154
q0 95 57.5 141.5t163.5 46.5q64 0 116 -19l62 71q39 -25 78 -85l-65 -44q30 -46 30 -111h-1q0 -96 -57 -142.5t-163 -46.5q-37 0 -64 4q-6 -11 -9.5 -22t-3.5 -17q0 -13 14 -13h96q70 0 114.5 -12.5t70.5 -39.5q36 -38 36 -104q0 -162 -249 -162h-8q-126 0 -183.5 31.5z
M340.5 250.5q21.5 21.5 21.5 65.5q0 43 -21.5 64.5t-69.5 21.5t-70 -21.5t-22 -64.5q0 -44 22 -65.5t70 -21.5t69.5 21.5zM287 -131q54 0 82 12.5t28 35.5q0 24 -18.5 33.5t-67.5 9.5h-143q-14 -15 -14 -37q0 -28 26 -41t92 -13h15z" />
    <glyph glyph-name="Hcircumflex" unicode="&#x124;" horiz-adv-x="701" 
d="M74 0zM74 684h156v-279h241v279h156v-684h-156v288h-241v-288h-156v684zM178 813l125 144h96l125 -144l-50 -51l-123 98l-123 -98z" />
    <glyph glyph-name="hcircumflex" unicode="&#x125;" horiz-adv-x="573" 
d="M0 0zM60 715h143v-251q36 20 76 30t77 10q35 0 67 -9.5t51 -28.5q42 -41 42 -129v-337h-143v320q0 34 -15 49q-17 16 -62 16q-21 0 -48.5 -4.5t-44.5 -11.5v-369h-143v715zM-42 790l125 144h96l125 -144l-50 -51l-123 98l-123 -98z" />
    <glyph glyph-name="Hbar" unicode="&#x126;" horiz-adv-x="736" 
d="M91 499h-71v98h71v87h156v-87h241v87h156v-87h72v-98h-72v-499h-156v288h-241v-288h-156v499zM488 405v94h-241v-94h241z" />
    <glyph glyph-name="hbar" unicode="&#x127;" horiz-adv-x="573" 
d="M60 568h-79v72l79 6v69h143v-65h159v-82h-159v-104q36 20 76 30t77 10q35 0 67 -9.5t51 -28.5q42 -41 42 -129v-337h-143v320q0 34 -15 49q-17 16 -62 16q-21 0 -48.5 -4.5t-44.5 -11.5v-369h-143v568z" />
    <glyph glyph-name="Itilde" unicode="&#x128;" horiz-adv-x="308" 
d="M0 0zM76 684h156v-684h-156v684zM-29 803q0 65 28 101t78 36q22 0 42.5 -6.5t44.5 -17.5q22 -9 34.5 -13.5t25.5 -4.5q33 0 42 46l71 -11q0 -65 -28 -101t-78 -36q-22 0 -41.5 6t-44.5 18q-16 7 -32.5 12.5t-28.5 5.5q-33 0 -42 -46z" />
    <glyph glyph-name="itilde" unicode="&#x129;" horiz-adv-x="269" 
d="M0 0zM63 490h143v-490h-143v490zM-48 603q0 65 28 101t78 36q22 0 42.5 -6.5t44.5 -17.5q22 -9 34.5 -13.5t25.5 -4.5q33 0 42 46l71 -11q0 -65 -28 -101t-78 -36q-22 0 -41.5 6t-44.5 18q-16 7 -32.5 12.5t-28.5 5.5q-33 0 -42 -46z" />
    <glyph glyph-name="Imacron" unicode="&#x12a;" horiz-adv-x="308" 
d="M6 0zM76 684h156v-684h-156v684zM6 903h295v-98h-295v98z" />
    <glyph glyph-name="imacron" unicode="&#x12b;" horiz-adv-x="269" 
d="M0 0zM63 490h143v-490h-143v490zM-13 703h295v-98h-295v98z" />
    <glyph glyph-name="Ibreve" unicode="&#x12c;" horiz-adv-x="308" 
d="M0 0zM76 684h156v-684h-156v684zM31 819.5q-38 44.5 -38 115.5l87 3q5 -38 22.5 -57t51.5 -19t51.5 19t22.5 57l86 -3q0 -71 -37.5 -115.5t-122.5 -44.5t-123 44.5z" />
    <glyph glyph-name="ibreve" unicode="&#x12d;" horiz-adv-x="269" 
d="M0 0zM63 490h143v-490h-143v490zM12 619.5q-38 44.5 -38 115.5l87 3q5 -38 22.5 -57t51.5 -19t51.5 19t22.5 57l86 -3q0 -71 -37.5 -115.5t-122.5 -44.5t-123 44.5z" />
    <glyph glyph-name="Iogonek" unicode="&#x12e;" horiz-adv-x="308" 
d="M29.5 -218.5q-34.5 30.5 -34.5 86.5q0 39 22.5 76t58.5 59v681h156v-684h-20q-47 0 -82 -31t-35 -79q0 -57 61 -57q27 0 56 9v-77q-47 -14 -92 -14q-56 0 -90.5 30.5z" />
    <glyph glyph-name="iogonek" unicode="&#x12f;" horiz-adv-x="269" 
d="M74.5 588q-18.5 16 -18.5 52v13q0 36 18.5 52.5t56.5 16.5h7q38 0 56.5 -16.5t18.5 -52.5v-13q0 -36 -18.5 -52t-56.5 -16h-7q-38 0 -56.5 16zM27.5 -218.5q-34.5 30.5 -34.5 86.5q0 34 18.5 66.5t51.5 59.5v496h143v-490h-31q-9 0 -14.5 -2.5t-11.5 -8.5
q-30 -30 -43 -56.5t-13 -53.5q0 -46 61 -46q27 0 56 9v-77q-47 -14 -92 -14q-56 0 -90.5 30.5z" />
    <glyph glyph-name="Idotaccent" unicode="&#x130;" horiz-adv-x="308" 
d="M76 0zM76 684h156v-684h-156v684zM96.5 804q-17.5 16 -17.5 52v11q0 37 17.5 52.5t54.5 15.5h6q36 0 54 -16t18 -52v-11q0 -36 -18 -52t-54 -16h-6q-37 0 -54.5 16z" />
    <glyph glyph-name="dotlessi" unicode="&#x131;" horiz-adv-x="269" 
d="M63 490h143v-490h-143v490z" />
    <glyph glyph-name="IJ" unicode="&#x132;" horiz-adv-x="722" 
d="M76 0zM76 684h156v-684h-156v684zM339 -5l-11 119q41 -8 81 -8q34 0 52.5 8t26.5 28t8 58v484h156v-488q0 -63 -11.5 -101.5t-37.5 -64.5q-23 -23 -61.5 -33.5t-96.5 -10.5q-43 0 -106 9z" />
    <glyph glyph-name="ij" unicode="&#x133;" horiz-adv-x="538" 
d="M56 0zM74.5 588q-18.5 16 -18.5 52v13q0 36 18.5 52.5t56.5 16.5h7q38 0 56.5 -16.5t18.5 -52.5v-13q0 -36 -18.5 -52t-56.5 -16h-7q-38 0 -56.5 16zM63 490h143v-490h-143v490zM343.5 588q-18.5 16 -18.5 52v13q0 36 18.5 52.5t56.5 16.5h7q38 0 56.5 -16.5t18.5 -52.5
v-13q0 -36 -18.5 -52t-56.5 -16h-7q-38 0 -56.5 16zM194 -235l-14 107q26 -2 46 -2q27 0 49.5 6t33.5 17q13 12 18 31.5t5 47.5v518h143v-467q0 -91 -20 -147t-70 -84.5t-137 -28.5q-20 0 -54 2z" />
    <glyph glyph-name="Jcircumflex" unicode="&#x134;" horiz-adv-x="414" 
d="M20 0zM31 -5l-11 119q41 -8 81 -8q34 0 52.5 8t26.5 28t8 58v484h156v-488q0 -63 -11.5 -101.5t-37.5 -64.5q-23 -23 -61.5 -33.5t-96.5 -10.5q-43 0 -106 9zM91 813l125 144h96l125 -144l-50 -51l-123 98l-123 -98z" />
    <glyph glyph-name="jcircumflex" unicode="&#x135;" horiz-adv-x="269" 
d="M0 0zM-75 -235l-14 107q26 -2 46 -2q27 0 49.5 6t33.5 17q13 12 18 31.5t5 47.5v518h143v-467q0 -91 -20 -147t-70 -84.5t-137 -28.5q-20 0 -54 2zM-38 613l125 144h96l125 -144l-50 -51l-123 98l-123 -98z" />
    <glyph glyph-name="Kcommaaccent" unicode="&#x136;" horiz-adv-x="652" 
d="M74 0zM74 684h156v-286l229 286h178l-242 -277l249 -407h-185l-165 291l-64 -73v-218h-156v684zM329 -228q-31 10 -43 26.5t-12 46.5q0 34 17 52t51 18h7q33 0 50.5 -18t17.5 -52v-25q0 -47 -6.5 -101.5t-14.5 -78.5h-67v132z" />
    <glyph glyph-name="kcommaaccent" unicode="&#x137;" horiz-adv-x="544" 
d="M60 0zM60 715h143v-412l153 187h164l-173 -196l191 -294h-161l-123 195l-51 -64v-131h-143v715zM273 -228q-31 10 -43 26.5t-12 46.5q0 34 17 52t51 18h7q33 0 50.5 -18t17.5 -52v-25q0 -47 -6.5 -101.5t-14.5 -78.5h-67v132z" />
    <glyph glyph-name="kgreenlandic" unicode="&#x138;" horiz-adv-x="544" 
d="M60 490h143v-187l153 187h164l-173 -196l191 -294h-161l-123 195l-51 -64v-131h-143v490z" />
    <glyph glyph-name="Lacute" unicode="&#x139;" horiz-adv-x="551" 
d="M50 0zM74 684h156v-571h303v-113h-459v684zM50 821l183 170l70 -95l-203 -137z" />
    <glyph glyph-name="lacute" unicode="&#x13a;" horiz-adv-x="269" 
d="M8 0zM63 715h143v-715h-143v715zM8 811l183 170l70 -95l-203 -137z" />
    <glyph glyph-name="Lcommaaccent" unicode="&#x13b;" horiz-adv-x="551" 
d="M74 0zM74 684h156v-571h303v-113h-459v684zM308 -228q-31 10 -43 26.5t-12 46.5q0 34 17 52t51 18h7q33 0 50.5 -18t17.5 -52v-25q0 -47 -6.5 -101.5t-14.5 -78.5h-67v132z" />
    <glyph glyph-name="lcommaaccent" unicode="&#x13c;" horiz-adv-x="269" 
d="M63 0zM63 715h143v-715h-143v715zM118 -228q-31 10 -43 26.5t-12 46.5q0 34 17 52t51 18h7q33 0 50.5 -18t17.5 -52v-25q0 -47 -6.5 -101.5t-14.5 -78.5h-67v132z" />
    <glyph glyph-name="Lcaron" unicode="&#x13d;" horiz-adv-x="551" 
d="M359 554q-31 10 -43 26.5t-12 46.5q0 34 17 52t51 18h7q33 0 50.5 -18t17.5 -52v-25q0 -47 -6.5 -101.5t-14.5 -78.5h-67v132zM74 684h156v-571h303v-113h-459v684z" />
    <glyph glyph-name="lcaron" unicode="&#x13e;" horiz-adv-x="418" 
d="M63 715h143v-715h-143v715zM310 554q-31 10 -43 26.5t-12 46.5q0 34 17 52t51 18h7q33 0 50.5 -18t17.5 -52v-25q0 -47 -6.5 -101.5t-14.5 -78.5h-67v132z" />
    <glyph glyph-name="Ldot" unicode="&#x13f;" horiz-adv-x="551" 
d="M74 684h156v-571h303v-113h-459v684zM360.5 339q-17.5 16 -17.5 52v11q0 37 17.5 52.5t54.5 15.5h6q36 0 54 -16t18 -52v-11q0 -36 -18 -52t-54 -16h-6q-37 0 -54.5 16z" />
    <glyph glyph-name="ldot" unicode="&#x140;" horiz-adv-x="431" 
d="M63 0zM63 715h143v-715h-143v715zM288.5 287q-17.5 16 -17.5 52v11q0 37 17.5 52.5t54.5 15.5h6q36 0 54 -16t18 -52v-11q0 -36 -18 -52t-54 -16h-6q-37 0 -54.5 16z" />
    <glyph glyph-name="Lslash" unicode="&#x141;" horiz-adv-x="551" 
d="M74 183l-34 -22l-58 97l92 59v367h156v-266l99 67l57 -97l-156 -103v-172h303v-113h-459v183z" />
    <glyph glyph-name="lslash" unicode="&#x142;" horiz-adv-x="378" 
d="M106 256l-41 -27l-55 93l96 62v331h143v-237l65 41l54 -93l-119 -77v-349h-143v256z" />
    <glyph glyph-name="Nacute" unicode="&#x143;" horiz-adv-x="724" 
d="M74 0zM74 684h115l324 -438v438h137v-684h-125l-314 415v-415h-137v684zM252 821l183 170l70 -95l-203 -137z" />
    <glyph glyph-name="nacute" unicode="&#x144;" horiz-adv-x="573" 
d="M60 0zM60 490h124l3 -35q38 25 82.5 37t86.5 12q35 0 67 -9.5t51 -28.5q42 -41 42 -129v-337h-143v320q0 34 -15 49q-17 16 -62 16q-21 0 -48.5 -4.5t-44.5 -11.5v-369h-143v490zM198 621l183 170l70 -95l-203 -137z" />
    <glyph glyph-name="Ncommaaccent" unicode="&#x145;" horiz-adv-x="724" 
d="M74 0zM74 684h115l324 -438v438h137v-684h-125l-314 415v-415h-137v684zM356 -228q-31 10 -43 26.5t-12 46.5q0 34 17 52t51 18h7q33 0 50.5 -18t17.5 -52v-25q0 -47 -6.5 -101.5t-14.5 -78.5h-67v132z" />
    <glyph glyph-name="ncommaaccent" unicode="&#x146;" horiz-adv-x="573" 
d="M60 0zM60 490h124l3 -35q38 25 82.5 37t86.5 12q35 0 67 -9.5t51 -28.5q42 -41 42 -129v-337h-143v320q0 34 -15 49q-17 16 -62 16q-21 0 -48.5 -4.5t-44.5 -11.5v-369h-143v490zM270 -228q-31 10 -43 26.5t-12 46.5q0 34 17 52t51 18h7q33 0 50.5 -18t17.5 -52v-25
q0 -47 -6.5 -101.5t-14.5 -78.5h-67v132z" />
    <glyph glyph-name="Ncaron" unicode="&#x147;" horiz-adv-x="724" 
d="M74 0zM74 684h115l324 -438v438h137v-684h-125l-314 415v-415h-137v684zM191 918l50 51l123 -98l123 98l50 -51l-125 -144h-96z" />
    <glyph glyph-name="ncaron" unicode="&#x148;" horiz-adv-x="573" 
d="M60 0zM60 490h124l3 -35q38 25 82.5 37t86.5 12q35 0 67 -9.5t51 -28.5q42 -41 42 -129v-337h-143v320q0 34 -15 49q-17 16 -62 16q-21 0 -48.5 -4.5t-44.5 -11.5v-369h-143v490zM142 718l50 51l123 -98l123 98l50 -51l-125 -144h-96z" />
    <glyph glyph-name="napostrophe" unicode="&#x149;" horiz-adv-x="753" 
d="M79 544q-33 11 -46 28.5t-13 48.5v1q0 36 18.5 55.5t54.5 19.5h7q74 0 74 -75v-27q0 -124 -16 -169q-4 -12 -13 -18t-26 -6h-40v142zM240 490h124l3 -35q38 25 82.5 37t86.5 12q35 0 67 -9.5t51 -28.5q42 -41 42 -129v-337h-143v320q0 34 -15 49q-17 16 -62 16
q-21 0 -48.5 -4.5t-44.5 -11.5v-369h-143v490z" />
    <glyph glyph-name="Eng" unicode="&#x14a;" horiz-adv-x="724" 
d="M337 -230l-11 109q20 -4 51 -6t49 -2q34 0 52.5 8t26.5 28t8 58v51l-302 399v-415h-137v684h115l324 -438v438h137v-713q0 -63 -11.5 -101.5t-37.5 -64.5q-23 -23 -61.5 -33.5t-96.5 -10.5q-43 0 -106 9z" />
    <glyph glyph-name="eng" unicode="&#x14b;" horiz-adv-x="573" 
d="M235 -235l-14 107q26 -2 46 -2q27 0 49.5 6t33.5 17q13 12 18 31.5t5 47.5v348q0 34 -15 49q-17 16 -62 16q-21 0 -48.5 -4.5t-44.5 -11.5v-369h-143v490h124l3 -35q38 25 82.5 37t86.5 12q35 0 67 -9.5t51 -28.5q42 -41 42 -129v-314q0 -91 -20 -147t-70 -84.5
t-137 -28.5q-20 0 -54 2z" />
    <glyph glyph-name="Omacron" unicode="&#x14c;" horiz-adv-x="696" 
d="M45 0zM119 75.5q-74 89.5 -74 265.5t74.5 266t228.5 90t228.5 -90t74.5 -266t-74 -265.5t-229 -89.5t-229 89.5zM456.5 162.5q32.5 54.5 32.5 178.5t-33 179t-108 55t-108 -55t-33 -179t32.5 -178.5t108.5 -54.5t108.5 54.5zM200 903h295v-98h-295v98z" />
    <glyph glyph-name="omacron" unicode="&#x14d;" horiz-adv-x="568" 
d="M35 0zM97.5 54.5q-62.5 68.5 -62.5 190.5t62.5 190.5t186.5 68.5t186.5 -68.5t62.5 -190.5t-62.5 -190.5t-186.5 -68.5t-186.5 68.5zM360.5 131.5q23.5 36.5 23.5 113.5t-23.5 113.5t-76.5 36.5t-76.5 -36.5t-23.5 -113.5t23.5 -113.5t76.5 -36.5t76.5 36.5zM136 703h295
v-98h-295v98z" />
    <glyph glyph-name="Obreve" unicode="&#x14e;" horiz-adv-x="696" 
d="M45 0zM119 75.5q-74 89.5 -74 265.5t74.5 266t228.5 90t228.5 -90t74.5 -266t-74 -265.5t-229 -89.5t-229 89.5zM456.5 162.5q32.5 54.5 32.5 178.5t-33 179t-108 55t-108 -55t-33 -179t32.5 -178.5t108.5 -54.5t108.5 54.5zM225 819.5q-38 44.5 -38 115.5l87 3
q5 -38 22.5 -57t51.5 -19t51.5 19t22.5 57l86 -3q0 -71 -37.5 -115.5t-122.5 -44.5t-123 44.5z" />
    <glyph glyph-name="obreve" unicode="&#x14f;" horiz-adv-x="568" 
d="M35 0zM97.5 54.5q-62.5 68.5 -62.5 190.5t62.5 190.5t186.5 68.5t186.5 -68.5t62.5 -190.5t-62.5 -190.5t-186.5 -68.5t-186.5 68.5zM360.5 131.5q23.5 36.5 23.5 113.5t-23.5 113.5t-76.5 36.5t-76.5 -36.5t-23.5 -113.5t23.5 -113.5t76.5 -36.5t76.5 36.5zM161 619.5
q-38 44.5 -38 115.5l87 3q5 -38 22.5 -57t51.5 -19t51.5 19t22.5 57l86 -3q0 -71 -37.5 -115.5t-122.5 -44.5t-123 44.5z" />
    <glyph glyph-name="Ohungarumlaut" unicode="&#x150;" horiz-adv-x="696" 
d="M45 0zM119 75.5q-74 89.5 -74 265.5t74.5 266t228.5 90t228.5 -90t74.5 -266t-74 -265.5t-229 -89.5t-229 89.5zM456.5 162.5q32.5 54.5 32.5 178.5t-33 179t-108 55t-108 -55t-33 -179t32.5 -178.5t108.5 -54.5t108.5 54.5zM155 810l141 202l76 -76l-162 -168zM342 810
l141 202l76 -76l-162 -168z" />
    <glyph glyph-name="ohungarumlaut" unicode="&#x151;" horiz-adv-x="568" 
d="M35 0zM97.5 54.5q-62.5 68.5 -62.5 190.5t62.5 190.5t186.5 68.5t186.5 -68.5t62.5 -190.5t-62.5 -190.5t-186.5 -68.5t-186.5 68.5zM360.5 131.5q23.5 36.5 23.5 113.5t-23.5 113.5t-76.5 36.5t-76.5 -36.5t-23.5 -113.5t23.5 -113.5t76.5 -36.5t76.5 36.5zM99 610
l141 202l76 -76l-162 -168zM286 610l141 202l76 -76l-162 -168z" />
    <glyph glyph-name="OE" unicode="&#x152;" horiz-adv-x="980" 
d="M226.5 19q-61.5 19 -99.5 58q-42 42 -62 108t-20 160q0 179 85 262q41 41 107.5 59t166.5 18h529l-12 -112h-294v-166h235v-119h-235v-175h311v-112h-559q-91 0 -152.5 19zM471 101v482h-61q-58 0 -93 -10t-58 -35q-26 -28 -39 -75t-13 -118q0 -65 8.5 -109t28.5 -74
q43 -61 145 -61h82z" />
    <glyph glyph-name="oe" unicode="&#x153;" horiz-adv-x="877" 
d="M97.5 54.5q-62.5 68.5 -62.5 190.5t62.5 190.5t186.5 68.5q109 0 171 -57q60 57 167 57q112 0 168.5 -60.5t56.5 -186.5v-45q0 -11 -12 -11h-301q1 -23 8 -43.5t21 -32.5q16 -16 46 -23t78 -7q44 0 115 11l11 -104q-84 -16 -160 -16q-132 0 -197 57q-62 -57 -172 -57
q-124 0 -186.5 68.5zM707 294q0 48 -22 75t-64 27q-82 0 -87 -102h173zM358.5 128.5q23.5 33.5 25.5 103.5v13q0 77 -23.5 113.5t-76.5 36.5t-76.5 -36.5t-23.5 -113.5t23.5 -113.5t76.5 -36.5q51 0 74.5 33.5z" />
    <glyph glyph-name="Racute" unicode="&#x154;" horiz-adv-x="648" 
d="M74 0zM74 684h235q85 0 136 -12t84 -43q57 -54 57 -157q0 -71 -29.5 -123.5t-86.5 -79.5l148 -269h-176l-126 248h-86v-248h-156v684zM299 361q39 0 62 5.5t38 18.5q29 25 29 85q0 52 -24 76q-14 14 -39 19.5t-65 5.5h-70v-210h69zM207 821l183 170l70 -95l-203 -137z
" />
    <glyph glyph-name="racute" unicode="&#x155;" horiz-adv-x="380" 
d="M60 0zM60 490h124l5 -40q27 25 69.5 39t80.5 14q13 0 25 -2v-125q-32 4 -63 4q-45 0 -98 -12v-368h-143v490zM94 621l183 170l70 -95l-203 -137z" />
    <glyph glyph-name="Rcommaaccent" unicode="&#x156;" horiz-adv-x="648" 
d="M74 0zM74 684h235q85 0 136 -12t84 -43q57 -54 57 -157q0 -71 -29.5 -123.5t-86.5 -79.5l148 -269h-176l-126 248h-86v-248h-156v684zM299 361q39 0 62 5.5t38 18.5q29 25 29 85q0 52 -24 76q-14 14 -39 19.5t-65 5.5h-70v-210h69zM318 -228q-31 10 -43 26.5t-12 46.5
q0 34 17 52t51 18h7q33 0 50.5 -18t17.5 -52v-25q0 -47 -6.5 -101.5t-14.5 -78.5h-67v132z" />
    <glyph glyph-name="rcommaaccent" unicode="&#x157;" horiz-adv-x="380" 
d="M57 0zM60 490h124l5 -40q27 25 69.5 39t80.5 14q13 0 25 -2v-125q-32 4 -63 4q-45 0 -98 -12v-368h-143v490zM112 -228q-31 10 -43 26.5t-12 46.5q0 34 17 52t51 18h7q33 0 50.5 -18t17.5 -52v-25q0 -47 -6.5 -101.5t-14.5 -78.5h-67v132z" />
    <glyph glyph-name="Rcaron" unicode="&#x158;" horiz-adv-x="648" 
d="M74 0zM74 684h235q85 0 136 -12t84 -43q57 -54 57 -157q0 -71 -29.5 -123.5t-86.5 -79.5l148 -269h-176l-126 248h-86v-248h-156v684zM299 361q39 0 62 5.5t38 18.5q29 25 29 85q0 52 -24 76q-14 14 -39 19.5t-65 5.5h-70v-210h69zM161 918l50 51l123 -98l123 98l50 -51
l-125 -144h-96z" />
    <glyph glyph-name="rcaron" unicode="&#x159;" horiz-adv-x="380" 
d="M48 0zM60 490h124l5 -40q27 25 69.5 39t80.5 14q13 0 25 -2v-125q-32 4 -63 4q-45 0 -98 -12v-368h-143v490zM48 718l50 51l123 -98l123 98l50 -51l-125 -144h-96z" />
    <glyph glyph-name="Sacute" unicode="&#x15a;" horiz-adv-x="590" 
d="M48 0zM49 21l24 119q44 -15 97 -24.5t92 -9.5q70 0 102.5 20t32.5 67q0 35 -30.5 52t-96.5 34q-68 18 -113 38t-77 63t-32 117q0 100 70 150t185 50q50 0 101 -7.5t90 -20.5l-24 -116q-90 24 -164 24q-60 0 -85.5 -19t-25.5 -54q0 -26 16.5 -42.5t41.5 -26.5t72 -23
q68 -18 112 -38.5t75.5 -63.5t31.5 -115q0 -90 -57 -144q-36 -34 -86.5 -49.5t-124.5 -15.5q-126 0 -227 35zM179 821l183 170l70 -95l-203 -137z" />
    <glyph glyph-name="sacute" unicode="&#x15b;" horiz-adv-x="475" 
d="M37 0zM127 -6q-50 8 -80 19l11 106q29 -9 74.5 -16t83.5 -7q43 0 65.5 10t22.5 35q0 23 -22 32.5t-70 18.5q-54 10 -89 22t-60.5 43.5t-25.5 88.5q0 72 53.5 115t159.5 43q38 0 81 -7t82 -20l-11 -105q-37 10 -78.5 16t-72.5 6q-79 0 -79 -40q0 -21 21.5 -30.5
t69.5 -19.5q53 -10 89 -23t62 -45t26 -89q0 -77 -56 -119t-165 -42q-42 0 -92 8zM123 621l183 170l70 -95l-203 -137z" />
    <glyph glyph-name="Scircumflex" unicode="&#x15c;" horiz-adv-x="590" 
d="M48 0zM49 21l24 119q44 -15 97 -24.5t92 -9.5q70 0 102.5 20t32.5 67q0 35 -30.5 52t-96.5 34q-68 18 -113 38t-77 63t-32 117q0 100 70 150t185 50q50 0 101 -7.5t90 -20.5l-24 -116q-90 24 -164 24q-60 0 -85.5 -19t-25.5 -54q0 -26 16.5 -42.5t41.5 -26.5t72 -23
q68 -18 112 -38.5t75.5 -63.5t31.5 -115q0 -90 -57 -144q-36 -34 -86.5 -49.5t-124.5 -15.5q-126 0 -227 35zM133 813l125 144h96l125 -144l-50 -51l-123 98l-123 -98z" />
    <glyph glyph-name="scircumflex" unicode="&#x15d;" horiz-adv-x="475" 
d="M37 0zM127 -6q-50 8 -80 19l11 106q29 -9 74.5 -16t83.5 -7q43 0 65.5 10t22.5 35q0 23 -22 32.5t-70 18.5q-54 10 -89 22t-60.5 43.5t-25.5 88.5q0 72 53.5 115t159.5 43q38 0 81 -7t82 -20l-11 -105q-37 10 -78.5 16t-72.5 6q-79 0 -79 -40q0 -21 21.5 -30.5
t69.5 -19.5q53 -10 89 -23t62 -45t26 -89q0 -77 -56 -119t-165 -42q-42 0 -92 8zM77 613l125 144h96l125 -144l-50 -51l-123 98l-123 -98z" />
    <glyph glyph-name="Scedilla" unicode="&#x15e;" horiz-adv-x="590" 
d="M210 -238v75q38 -10 69 -10q44 0 44 23q0 10 -10.5 18t-45.5 19q-29 9 -42 22.5t-13 37.5q0 18 10 41q-97 6 -173 33l24 119q44 -15 97 -24.5t92 -9.5q70 0 102.5 20t32.5 67q0 35 -30.5 52t-96.5 34q-68 18 -113 38t-77 63t-32 117q0 100 70 150t185 50q50 0 101 -7.5
t90 -20.5l-24 -116q-90 24 -164 24q-60 0 -85.5 -19t-25.5 -54q0 -26 16.5 -42.5t41.5 -26.5t72 -23q68 -18 112 -38.5t75.5 -63.5t31.5 -115q0 -90 -57 -144q-33 -31 -78.5 -46.5t-109.5 -17.5v-8q0 -9 6.5 -14t30.5 -14q48 -18 65 -37t17 -54q0 -48 -27 -78
q-14 -16 -39 -25t-53 -9q-50 0 -89 14z" />
    <glyph glyph-name="scedilla" unicode="&#x15f;" horiz-adv-x="475" 
d="M164 -238v75q38 -10 69 -10q44 0 44 23q0 10 -10.5 18t-45.5 19q-29 9 -42 22.5t-13 37.5q0 19 10 41q-36 3 -71 10t-58 15l11 106q29 -9 74.5 -16t83.5 -7q43 0 65.5 10t22.5 35q0 23 -22 32.5t-70 18.5q-54 10 -89 22t-60.5 43.5t-25.5 88.5q0 72 53.5 115t159.5 43
q38 0 81 -7t82 -20l-11 -105q-37 10 -78.5 16t-72.5 6q-79 0 -79 -40q0 -21 21.5 -30.5t69.5 -19.5q53 -10 89 -23t62 -45t26 -89q0 -71 -47 -112t-139 -48q-1 -3 -1 -8q0 -9 6.5 -14t30.5 -14q48 -18 65 -37t17 -54q0 -48 -27 -78q-14 -16 -39 -25t-53 -9q-50 0 -89 14z
" />
    <glyph glyph-name="Scaron" unicode="&#x160;" horiz-adv-x="590" 
d="M48 0zM49 21l24 119q44 -15 97 -24.5t92 -9.5q70 0 102.5 20t32.5 67q0 35 -30.5 52t-96.5 34q-68 18 -113 38t-77 63t-32 117q0 100 70 150t185 50q50 0 101 -7.5t90 -20.5l-24 -116q-90 24 -164 24q-60 0 -85.5 -19t-25.5 -54q0 -26 16.5 -42.5t41.5 -26.5t72 -23
q68 -18 112 -38.5t75.5 -63.5t31.5 -115q0 -90 -57 -144q-36 -34 -86.5 -49.5t-124.5 -15.5q-126 0 -227 35zM133 918l50 51l123 -98l123 98l50 -51l-125 -144h-96z" />
    <glyph glyph-name="scaron" unicode="&#x161;" horiz-adv-x="475" 
d="M37 0zM127 -6q-50 8 -80 19l11 106q29 -9 74.5 -16t83.5 -7q43 0 65.5 10t22.5 35q0 23 -22 32.5t-70 18.5q-54 10 -89 22t-60.5 43.5t-25.5 88.5q0 72 53.5 115t159.5 43q38 0 81 -7t82 -20l-11 -105q-37 10 -78.5 16t-72.5 6q-79 0 -79 -40q0 -21 21.5 -30.5
t69.5 -19.5q53 -10 89 -23t62 -45t26 -89q0 -77 -56 -119t-165 -42q-42 0 -92 8zM77 718l50 51l123 -98l123 98l50 -51l-125 -144h-96z" />
    <glyph glyph-name="uni0162" unicode="&#x162;" horiz-adv-x="608" 
d="M14 0zM226 571h-212v113h587l-12 -113h-207v-571h-156v571zM287 -228q-31 10 -43 26.5t-12 46.5q0 34 17 52t51 18h7q33 0 50.5 -18t17.5 -52v-25q0 -47 -6.5 -101.5t-14.5 -78.5h-67v132z" />
    <glyph glyph-name="uni0163" unicode="&#x163;" horiz-adv-x="401" 
d="M8 0zM127 25q-36 39 -36 123v249h-83v78l83 15v109q69 21 143 21v-130h127v-93h-127v-229q0 -43 13.5 -59t55.5 -16q18 0 69 6l5 -101q-55 -12 -125 -12q-89 0 -125 39zM226 -228q-31 10 -43 26.5t-12 46.5q0 34 17 52t51 18h7q33 0 50.5 -18t17.5 -52v-25
q0 -47 -6.5 -101.5t-14.5 -78.5h-67v132z" />
    <glyph glyph-name="Tcaron" unicode="&#x164;" horiz-adv-x="608" 
d="M14 0zM226 571h-212v113h587l-12 -113h-207v-571h-156v571zM131 918l50 51l123 -98l123 98l50 -51l-125 -144h-96z" />
    <glyph glyph-name="tcaron" unicode="&#x165;" horiz-adv-x="401" 
d="M8 0zM127 25q-36 39 -36 123v249h-83v78l83 15v109q69 21 143 21v-130h127v-93h-127v-229q0 -43 13.5 -59t55.5 -16q18 0 69 6l5 -101q-55 -12 -125 -12q-89 0 -125 39zM302 698q-31 10 -43 26.5t-12 46.5q0 34 17 52t51 18h7q33 0 50.5 -18t17.5 -52v-25
q0 -47 -6.5 -101.5t-14.5 -78.5h-67v132z" />
    <glyph glyph-name="Tbar" unicode="&#x166;" horiz-adv-x="608" 
d="M226 266h-125v98h125v207h-212v113h587l-12 -113h-207v-207h125v-98h-125v-266h-156v266z" />
    <glyph glyph-name="tbar" unicode="&#x167;" horiz-adv-x="405" 
d="M131 25q-36 39 -36 123v64h-73v72l73 5v108h-83v78l83 15v109q69 21 143 21v-130h127v-93h-127v-103h109v-82h-109v-44q0 -43 13.5 -59t55.5 -16q18 0 69 6l5 -101q-55 -12 -125 -12q-89 0 -125 39z" />
    <glyph glyph-name="Utilde" unicode="&#x168;" horiz-adv-x="694" 
d="M68 0zM134 52q-34 34 -50 80.5t-16 118.5v433h155v-433q0 -40 7.5 -67.5t25.5 -45.5q32 -33 100 -33t99 32q18 18 25.5 45t7.5 68v434h138v-426q0 -69 -15.5 -119.5t-51.5 -84.5q-34 -32 -89 -50t-121 -18q-148 0 -215 66zM171 803q0 65 28 101t78 36q22 0 42.5 -6.5
t44.5 -17.5q22 -9 34.5 -13.5t25.5 -4.5q33 0 42 46l71 -11q0 -65 -28 -101t-78 -36q-22 0 -41.5 6t-44.5 18q-16 7 -32.5 12.5t-28.5 5.5q-33 0 -42 -46z" />
    <glyph glyph-name="utilde" unicode="&#x169;" horiz-adv-x="569" 
d="M57 0zM150 -3.5q-32 9.5 -51 28.5q-42 41 -42 129v336h143v-316q0 -37 15 -52q17 -16 62 -16q19 0 45 4t44 10v370h143v-490h-124l-4 33q-38 -23 -81 -34.5t-83 -11.5q-35 0 -67 9.5zM108 603q0 65 28 101t78 36q22 0 42.5 -6.5t44.5 -17.5q22 -9 34.5 -13.5t25.5 -4.5
q33 0 42 46l71 -11q0 -65 -28 -101t-78 -36q-22 0 -41.5 6t-44.5 18q-16 7 -32.5 12.5t-28.5 5.5q-33 0 -42 -46z" />
    <glyph glyph-name="Umacron" unicode="&#x16a;" horiz-adv-x="694" 
d="M68 0zM134 52q-34 34 -50 80.5t-16 118.5v433h155v-433q0 -40 7.5 -67.5t25.5 -45.5q32 -33 100 -33t99 32q18 18 25.5 45t7.5 68v434h138v-426q0 -69 -15.5 -119.5t-51.5 -84.5q-34 -32 -89 -50t-121 -18q-148 0 -215 66zM206 903h295v-98h-295v98z" />
    <glyph glyph-name="umacron" unicode="&#x16b;" horiz-adv-x="569" 
d="M57 0zM150 -3.5q-32 9.5 -51 28.5q-42 41 -42 129v336h143v-316q0 -37 15 -52q17 -16 62 -16q19 0 45 4t44 10v370h143v-490h-124l-4 33q-38 -23 -81 -34.5t-83 -11.5q-35 0 -67 9.5zM143 703h295v-98h-295v98z" />
    <glyph glyph-name="Ubreve" unicode="&#x16c;" horiz-adv-x="694" 
d="M68 0zM134 52q-34 34 -50 80.5t-16 118.5v433h155v-433q0 -40 7.5 -67.5t25.5 -45.5q32 -33 100 -33t99 32q18 18 25.5 45t7.5 68v434h138v-426q0 -69 -15.5 -119.5t-51.5 -84.5q-34 -32 -89 -50t-121 -18q-148 0 -215 66zM231 819.5q-38 44.5 -38 115.5l87 3
q5 -38 22.5 -57t51.5 -19t51.5 19t22.5 57l86 -3q0 -71 -37.5 -115.5t-122.5 -44.5t-123 44.5z" />
    <glyph glyph-name="ubreve" unicode="&#x16d;" horiz-adv-x="569" 
d="M57 0zM150 -3.5q-32 9.5 -51 28.5q-42 41 -42 129v336h143v-316q0 -37 15 -52q17 -16 62 -16q19 0 45 4t44 10v370h143v-490h-124l-4 33q-38 -23 -81 -34.5t-83 -11.5q-35 0 -67 9.5zM168 619.5q-38 44.5 -38 115.5l87 3q5 -38 22.5 -57t51.5 -19t51.5 19t22.5 57l86 -3
q0 -71 -37.5 -115.5t-122.5 -44.5t-123 44.5z" />
    <glyph glyph-name="Uring" unicode="&#x16e;" horiz-adv-x="694" 
d="M68 0zM134 52q-34 34 -50 80.5t-16 118.5v433h155v-433q0 -40 7.5 -67.5t25.5 -45.5q32 -33 100 -33t99 32q18 18 25.5 45t7.5 68v434h138v-426q0 -69 -15.5 -119.5t-51.5 -84.5q-34 -32 -89 -50t-121 -18q-148 0 -215 66zM260.5 796q-30.5 27 -30.5 84v14
q0 58 30.5 84.5t90.5 26.5h7q59 0 89.5 -26.5t30.5 -84.5v-14q0 -111 -120 -111h-7q-60 0 -90.5 27zM356 832q27 0 39 12t12 40v4q0 29 -12 40t-39 11h-3q-28 0 -40.5 -11t-12.5 -40v-4q0 -28 12.5 -40t40.5 -12h3z" />
    <glyph glyph-name="uring" unicode="&#x16f;" horiz-adv-x="569" 
d="M57 0zM150 -3.5q-32 9.5 -51 28.5q-42 41 -42 129v336h143v-316q0 -37 15 -52q17 -16 62 -16q19 0 45 4t44 10v370h143v-490h-124l-4 33q-38 -23 -81 -34.5t-83 -11.5q-35 0 -67 9.5zM197.5 596q-30.5 27 -30.5 84v14q0 58 30.5 84.5t90.5 26.5h7q59 0 89.5 -26.5
t30.5 -84.5v-14q0 -111 -120 -111h-7q-60 0 -90.5 27zM293 632q27 0 39 12t12 40v4q0 29 -12 40t-39 11h-3q-28 0 -40.5 -11t-12.5 -40v-4q0 -28 12.5 -40t40.5 -12h3z" />
    <glyph glyph-name="Uhungarumlaut" unicode="&#x170;" horiz-adv-x="694" 
d="M68 0zM134 52q-34 34 -50 80.5t-16 118.5v433h155v-433q0 -40 7.5 -67.5t25.5 -45.5q32 -33 100 -33t99 32q18 18 25.5 45t7.5 68v434h138v-426q0 -69 -15.5 -119.5t-51.5 -84.5q-34 -32 -89 -50t-121 -18q-148 0 -215 66zM161 810l141 202l76 -76l-162 -168zM348 810
l141 202l76 -76l-162 -168z" />
    <glyph glyph-name="uhungarumlaut" unicode="&#x171;" horiz-adv-x="569" 
d="M57 0zM150 -3.5q-32 9.5 -51 28.5q-42 41 -42 129v336h143v-316q0 -37 15 -52q17 -16 62 -16q19 0 45 4t44 10v370h143v-490h-124l-4 33q-38 -23 -81 -34.5t-83 -11.5q-35 0 -67 9.5zM106 610l141 202l76 -76l-162 -168zM293 610l141 202l76 -76l-162 -168z" />
    <glyph glyph-name="Uogonek" unicode="&#x172;" horiz-adv-x="694" 
d="M283.5 -218.5q-34.5 30.5 -34.5 86.5q0 61 62 120q-121 8 -177 64q-34 34 -50 80.5t-16 118.5v433h155v-433q0 -40 7.5 -67.5t25.5 -45.5q32 -33 100 -33t99 32q18 18 25.5 45t7.5 68v434h138v-426q0 -69 -15.5 -119.5t-51.5 -84.5q-26 -25 -65.5 -41.5t-86.5 -22.5
q-30 -33 -44 -60t-14 -52q0 -45 61 -45q27 0 56 9v-77q-47 -14 -92 -14q-56 0 -90.5 30.5z" />
    <glyph glyph-name="uogonek" unicode="&#x173;" horiz-adv-x="569" 
d="M346.5 -218.5q-34.5 30.5 -34.5 86.5q0 40 21.5 73t60.5 63l-13 29q-38 -24 -81 -35.5t-83 -11.5q-35 0 -67 9.5t-51 28.5q-42 41 -42 129v337h143v-317q0 -37 15 -52q17 -16 62 -16q19 0 45 4t44 10v371h143v-490h-15q-16 0 -27 -11q-28 -27 -41.5 -55t-13.5 -52
q0 -25 14 -37t47 -12q27 0 56 9v-77q-47 -14 -92 -14q-56 0 -90.5 30.5z" />
    <glyph glyph-name="Wcircumflex" unicode="&#x174;" horiz-adv-x="963" 
d="M12 0zM12 684h165l127 -494l123 494h127l134 -493l122 493h141l-185 -684h-170l-112 399l-103 -399h-169zM320 813l125 144h96l125 -144l-50 -51l-123 98l-123 -98z" />
    <glyph glyph-name="wcircumflex" unicode="&#x175;" horiz-adv-x="791" 
d="M10 0zM10 490h151l87 -349l87 349h129l94 -349l82 349h141l-141 -490h-166l-78 260l-77 -260h-165zM237 613l125 144h96l125 -144l-50 -51l-123 98l-123 -98z" />
    <glyph glyph-name="Ycircumflex" unicode="&#x176;" horiz-adv-x="662" 
d="M12 0zM248 279l-236 405h176l150 -276l156 276h156l-246 -406v-278h-156v279zM163 813l125 144h96l125 -144l-50 -51l-123 98l-123 -98z" />
    <glyph glyph-name="ycircumflex" unicode="&#x177;" horiz-adv-x="571" 
d="M57 0zM159 -226l-10 106q61 -11 112 -11q27 0 49.5 6t33.5 17q24 23 24 79v60q-35 -20 -75.5 -30t-78.5 -10q-34 0 -64.5 9.5t-49.5 28.5q-22 22 -32.5 52t-10.5 72v337h143v-317q0 -34 15 -49q10 -9 24 -12.5t37 -3.5q20 0 47 5.5t45 12.5v364h143v-469q0 -91 -20 -147
t-70 -84.5t-137 -28.5q-65 0 -125 13zM113 613l125 144h96l125 -144l-50 -51l-123 98l-123 -98z" />
    <glyph glyph-name="Ydieresis" unicode="&#x178;" horiz-adv-x="662" 
d="M12 0zM248 279l-236 405h176l150 -276l156 276h156l-246 -406v-278h-156v279zM177.5 805.5q-16.5 15.5 -16.5 48.5v11q0 34 16.5 49t50.5 15h6q34 0 51 -15t17 -49v-11q0 -64 -68 -64h-6q-34 0 -50.5 15.5zM369 854v11q0 64 68 64h6q34 0 50.5 -15t16.5 -49v-11
q0 -33 -16.5 -48.5t-50.5 -15.5h-6q-68 0 -68 64z" />
    <glyph glyph-name="Zacute" unicode="&#x179;" horiz-adv-x="596" 
d="M34 0zM34 92l332 477h-322v115h514v-96l-327 -473h329v-115h-526v92zM191 821l183 170l70 -95l-203 -137z" />
    <glyph glyph-name="zacute" unicode="&#x17a;" horiz-adv-x="442" 
d="M18 0zM18 81l228 318h-222v91h390v-83l-227 -316h239v-91h-408v81zM102 621l183 170l70 -95l-203 -137z" />
    <glyph glyph-name="Zdotaccent" unicode="&#x17b;" horiz-adv-x="596" 
d="M34 0zM34 92l332 477h-322v115h514v-96l-327 -473h329v-115h-526v92zM260.5 804q-17.5 16 -17.5 52v11q0 37 17.5 52.5t54.5 15.5h6q36 0 54 -16t18 -52v-11q0 -36 -18 -52t-54 -16h-6q-37 0 -54.5 16z" />
    <glyph glyph-name="zdotaccent" unicode="&#x17c;" horiz-adv-x="442" 
d="M18 0zM18 81l228 318h-222v91h390v-83l-227 -316h239v-91h-408v81zM171.5 604q-17.5 16 -17.5 52v11q0 37 17.5 52.5t54.5 15.5h6q36 0 54 -16t18 -52v-11q0 -36 -18 -52t-54 -16h-6q-37 0 -54.5 16z" />
    <glyph glyph-name="Zcaron" unicode="&#x17d;" horiz-adv-x="596" 
d="M34 0zM34 92l332 477h-322v115h514v-96l-327 -473h329v-115h-526v92zM145 918l50 51l123 -98l123 98l50 -51l-125 -144h-96z" />
    <glyph glyph-name="zcaron" unicode="&#x17e;" horiz-adv-x="442" 
d="M18 0zM18 81l228 318h-222v91h390v-83l-227 -316h239v-91h-408v81zM56 718l50 51l123 -98l123 98l50 -51l-125 -144h-96z" />
    <glyph glyph-name="longs" unicode="&#x17f;" horiz-adv-x="359" 
d="M98 397h-84v77l84 15v68q0 45 9.5 76.5t31.5 53.5q21 21 58.5 33t87.5 12q51 0 104 -11v-102q-40 6 -67 6q-26 0 -41.5 -4t-25.5 -14q-7 -7 -10.5 -20t-3.5 -38v-549h-143v397z" />
    <glyph glyph-name="florin" unicode="&#x192;" 
d="M30 -245v102q40 -6 67 -6q48 0 70 18.5t25 60.5l28 347h-105v76l111 4l19 210q8 89 56 132.5t145 43.5q51 0 104 -11v-102q-40 6 -67 6q-47 0 -69 -18.5t-26 -60.5l-18 -199h121v-81h-127l-28 -355q-7 -89 -56 -133.5t-146 -44.5q-51 0 -104 11z" />
    <glyph glyph-name="uni01CD" unicode="&#x1cd;" horiz-adv-x="658" 
d="M5 0zM234 684h172l247 -684h-167l-57 172h-222l-53 -172h-149zM391 285l-75 228h-2l-71 -228h148zM149 918l50 51l123 -98l123 98l50 -51l-125 -144h-96z" />
    <glyph glyph-name="uni01CE" unicode="&#x1ce;" horiz-adv-x="531" 
d="M30 0zM75 30q-45 44 -45 117q0 33 11 62t32 49q26 24 68.5 34.5t111.5 10.5h78v16q0 39 -18 55q-23 20 -83 20q-33 0 -72 -4t-65 -9l-7 105q90 18 174 18q59 0 105.5 -13.5t70.5 -42.5q38 -44 38 -130v-318h-113l-12 30q-32 -21 -70.5 -32.5t-76.5 -11.5q-82 0 -127 44z
M287 99.5q25 4.5 44 10.5v101h-76q-27 0 -43 -4t-25 -13q-14 -14 -14 -41q0 -28 16.5 -43t53.5 -15q19 0 44 4.5zM101 718l50 51l123 -98l123 98l50 -51l-125 -144h-96z" />
    <glyph glyph-name="Aringacute" unicode="&#x1fa;" horiz-adv-x="658" 
d="M5 0zM234 684h172l247 -684h-167l-57 172h-222l-53 -172h-149zM391 285l-75 228h-2l-71 -228h148zM228.5 769q-30.5 27 -30.5 84v14q0 58 30.5 84.5t90.5 26.5h7q59 0 89.5 -26.5t30.5 -84.5v-14q0 -111 -120 -111h-7q-60 0 -90.5 27zM324 805q27 0 39 12t12 40v4
q0 29 -12 40t-39 11h-3q-28 0 -40.5 -11t-12.5 -40v-4q0 -28 12.5 -40t40.5 -12h3zM195 1073l183 170l70 -95l-203 -137z" />
    <glyph glyph-name="aringacute" unicode="&#x1fb;" horiz-adv-x="531" 
d="M30 0zM75 30q-45 44 -45 117q0 33 11 62t32 49q26 24 68.5 34.5t111.5 10.5h78v16q0 39 -18 55q-23 20 -83 20q-33 0 -72 -4t-65 -9l-7 105q90 18 174 18q59 0 105.5 -13.5t70.5 -42.5q38 -44 38 -130v-318h-113l-12 30q-32 -21 -70.5 -32.5t-76.5 -11.5q-82 0 -127 44z
M287 99.5q25 4.5 44 10.5v101h-76q-27 0 -43 -4t-25 -13q-14 -14 -14 -41q0 -28 16.5 -43t53.5 -15q19 0 44 4.5zM180.5 576q-30.5 27 -30.5 84v14q0 58 30.5 84.5t90.5 26.5h7q59 0 89.5 -26.5t30.5 -84.5v-14q0 -111 -120 -111h-7q-60 0 -90.5 27zM276 612q27 0 39 12
t12 40v4q0 29 -12 40t-39 11h-3q-28 0 -40.5 -11t-12.5 -40v-4q0 -28 12.5 -40t40.5 -12h3zM147 874l183 170l70 -95l-203 -137z" />
    <glyph glyph-name="AEacute" unicode="&#x1fc;" horiz-adv-x="1003" 
d="M2 0zM424 684h532l-12 -112h-294v-166h235v-119h-235v-175h311v-112h-467v187h-222l-110 -187h-160zM494 298v263l-154 -263h154zM576 821l183 170l70 -95l-203 -137z" />
    <glyph glyph-name="aeacute" unicode="&#x1fd;" horiz-adv-x="817" 
d="M30 0zM75 30q-45 44 -45 117q0 33 11 62t32 49q26 24 68.5 34.5t111.5 10.5h78v18q-1 36 -18 53q-23 20 -83 20q-33 0 -72 -4t-65 -9l-7 105q90 18 174 18q105 0 158 -39q57 39 144 39q112 0 168.5 -60.5t56.5 -186.5v-45q0 -11 -12 -11h-301q3 -60 39 -83t112 -23
q59 0 122 12l11 -104q-89 -17 -165 -17q-67 0 -118 15.5t-83 44.5q-33 -25 -88 -42.5t-102 -17.5q-82 0 -127 44zM647 294q0 48 -22 75t-64 27q-82 0 -87 -102h173zM291.5 100q28.5 5 54.5 14q-12 33 -15 97h-76q-27 0 -43 -4t-25 -13q-14 -14 -14 -41q0 -28 16.5 -43
t53.5 -15q20 0 48.5 5zM338 621l183 170l70 -95l-203 -137z" />
    <glyph glyph-name="Oslashacute" unicode="&#x1fe;" horiz-adv-x="698" 
d="M45 0zM189 20q-144 75 -144 321q0 356 304 356q42 0 82 -8l25 68h87l-34 -94q144 -76 144 -322q0 -176 -74.5 -265.5t-229.5 -89.5q-43 0 -83 8l-24 -68h-87zM388 571q-16 4 -39 4q-76 0 -109 -55t-33 -179q0 -126 33 -179zM458 162.5q33 54.5 33 178.5q0 126 -34 180
l-148 -409q16 -4 40 -4q76 0 109 54.5zM222 821l183 170l70 -95l-203 -137z" />
    <glyph glyph-name="oslashacute" unicode="&#x1ff;" horiz-adv-x="568" 
d="M35 0zM156 12q-60 29 -90.5 89t-30.5 144q0 122 62.5 190.5t186.5 68.5q31 0 52 -4l27 74h84l-35 -96q60 -30 90.5 -89.5t30.5 -143.5q0 -122 -62.5 -190.5t-186.5 -68.5q-31 0 -52 4l-27 -74h-84zM297 394q-4 1 -13 1q-53 0 -76.5 -36.5t-23.5 -113.5q0 -69 19 -106z
M284 95q53 0 76.5 36.5t23.5 113.5q0 69 -19 106l-94 -256h13zM157 621l183 170l70 -95l-203 -137z" />
    <glyph glyph-name="Scommaaccent" unicode="&#x218;" horiz-adv-x="590" 
d="M48 0zM49 21l24 119q44 -15 97 -24.5t92 -9.5q70 0 102.5 20t32.5 67q0 35 -30.5 52t-96.5 34q-68 18 -113 38t-77 63t-32 117q0 100 70 150t185 50q50 0 101 -7.5t90 -20.5l-24 -116q-90 24 -164 24q-60 0 -85.5 -19t-25.5 -54q0 -26 16.5 -42.5t41.5 -26.5t72 -23
q68 -18 112 -38.5t75.5 -63.5t31.5 -115q0 -90 -57 -144q-36 -34 -86.5 -49.5t-124.5 -15.5q-126 0 -227 35zM278 -228q-31 10 -43 26.5t-12 46.5q0 34 17 52t51 18h7q33 0 50.5 -18t17.5 -52v-25q0 -47 -6.5 -101.5t-14.5 -78.5h-67v132z" />
    <glyph glyph-name="scommaaccent" unicode="&#x219;" horiz-adv-x="475" 
d="M37 0zM127 -6q-50 8 -80 19l11 106q29 -9 74.5 -16t83.5 -7q43 0 65.5 10t22.5 35q0 23 -22 32.5t-70 18.5q-54 10 -89 22t-60.5 43.5t-25.5 88.5q0 72 53.5 115t159.5 43q38 0 81 -7t82 -20l-11 -105q-37 10 -78.5 16t-72.5 6q-79 0 -79 -40q0 -21 21.5 -30.5
t69.5 -19.5q53 -10 89 -23t62 -45t26 -89q0 -77 -56 -119t-165 -42q-42 0 -92 8zM221 -228q-31 10 -43 26.5t-12 46.5q0 34 17 52t51 18h7q33 0 50.5 -18t17.5 -52v-25q0 -47 -6.5 -101.5t-14.5 -78.5h-67v132z" />
    <glyph glyph-name="uni021A" unicode="&#x21a;" horiz-adv-x="608" 
d="M14 0zM226 571h-212v113h587l-12 -113h-207v-571h-156v571zM287 -228q-31 10 -43 26.5t-12 46.5q0 34 17 52t51 18h7q33 0 50.5 -18t17.5 -52v-25q0 -47 -6.5 -101.5t-14.5 -78.5h-67v132z" />
    <glyph glyph-name="uni021B" unicode="&#x21b;" horiz-adv-x="401" 
d="M8 0zM127 25q-36 39 -36 123v249h-83v78l83 15v109q69 21 143 21v-130h127v-93h-127v-229q0 -43 13.5 -59t55.5 -16q18 0 69 6l5 -101q-55 -12 -125 -12q-89 0 -125 39zM226 -228q-31 10 -43 26.5t-12 46.5q0 34 17 52t51 18h7q33 0 50.5 -18t17.5 -52v-25
q0 -47 -6.5 -101.5t-14.5 -78.5h-67v132z" />
    <glyph glyph-name="uni0237" unicode="&#x237;" horiz-adv-x="269" 
d="M-75 -235l-14 107q26 -2 46 -2q27 0 49.5 6t33.5 17q13 12 18 31.5t5 47.5v518h143v-467q0 -91 -20 -147t-70 -84.5t-137 -28.5q-20 0 -54 2z" />
    <glyph glyph-name="circumflex" unicode="&#x2c6;" horiz-adv-x="428" 
d="M41 562zM41 613l125 144h96l125 -144l-50 -51l-123 98l-123 -98z" />
    <glyph glyph-name="caron" unicode="&#x2c7;" horiz-adv-x="428" 
d="M41 574zM41 718l50 51l123 -98l123 98l50 -51l-125 -144h-96z" />
    <glyph glyph-name="breve" unicode="&#x2d8;" horiz-adv-x="428" 
d="M53 575zM91 619.5q-38 44.5 -38 115.5l87 3q5 -38 22.5 -57t51.5 -19t51.5 19t22.5 57l86 -3q0 -71 -37.5 -115.5t-122.5 -44.5t-123 44.5z" />
    <glyph glyph-name="dotaccent" unicode="&#x2d9;" horiz-adv-x="428" 
d="M139 588zM156.5 604q-17.5 16 -17.5 52v11q0 37 17.5 52.5t54.5 15.5h6q36 0 54 -16t18 -52v-11q0 -36 -18 -52t-54 -16h-6q-37 0 -54.5 16z" />
    <glyph glyph-name="ring" unicode="&#x2da;" horiz-adv-x="428" 
d="M90 569zM120.5 596q-30.5 27 -30.5 84v14q0 58 30.5 84.5t90.5 26.5h7q59 0 89.5 -26.5t30.5 -84.5v-14q0 -111 -120 -111h-7q-60 0 -90.5 27zM216 632q27 0 39 12t12 40v4q0 29 -12 40t-39 11h-3q-28 0 -40.5 -11t-12.5 -40v-4q0 -28 12.5 -40t40.5 -12h3z" />
    <glyph glyph-name="ogonek" unicode="&#x2db;" horiz-adv-x="428" 
d="M105 0zM139.5 -218.5q-34.5 30.5 -34.5 86.5q0 40 26 78t70 69h86q-43 -44 -62.5 -76t-19.5 -61q0 -45 61 -45q27 0 56 9v-77q-47 -14 -92 -14q-56 0 -90.5 30.5z" />
    <glyph glyph-name="tilde" unicode="&#x2dc;" horiz-adv-x="428" 
d="M31 592zM31 603q0 65 28 101t78 36q22 0 42.5 -6.5t44.5 -17.5q22 -9 34.5 -13.5t25.5 -4.5q33 0 42 46l71 -11q0 -65 -28 -101t-78 -36q-22 0 -41.5 6t-44.5 18q-16 7 -32.5 12.5t-28.5 5.5q-33 0 -42 -46z" />
    <glyph glyph-name="hungarumlaut" unicode="&#x2dd;" horiz-adv-x="428" 
d="M12 568zM12 610l141 202l76 -76l-162 -168zM199 610l141 202l76 -76l-162 -168z" />
    <glyph glyph-name="gravecomb" unicode="&#x300;" horiz-adv-x="0" 
d="M-341 696l70 95l183 -170l-50 -62z" />
    <glyph glyph-name="acutecomb" unicode="&#x301;" horiz-adv-x="0" 
d="M-341 621l183 170l70 -95l-203 -137z" />
    <glyph glyph-name="uni0302" unicode="&#x302;" horiz-adv-x="0" 
d="M-387 613l125 144h96l125 -144l-50 -51l-123 98l-123 -98z" />
    <glyph glyph-name="tildecomb" unicode="&#x303;" horiz-adv-x="0" 
d="M-397 603q0 65 28 101t78 36q22 0 42.5 -6.5t44.5 -17.5q22 -9 34.5 -13.5t25.5 -4.5q33 0 42 46l71 -11q0 -65 -28 -101t-78 -36q-22 0 -41.5 6t-44.5 18q-16 7 -32.5 12.5t-28.5 5.5q-33 0 -42 -46z" />
    <glyph glyph-name="uni0304" unicode="&#x304;" horiz-adv-x="0" 
d="M-362 703h295v-98h-295v98z" />
    <glyph glyph-name="uni0306" unicode="&#x306;" horiz-adv-x="0" 
d="M-337 619.5q-38 44.5 -38 115.5l87 3q5 -38 22.5 -57t51.5 -19t51.5 19t22.5 57l86 -3q0 -71 -37.5 -115.5t-122.5 -44.5t-123 44.5z" />
    <glyph glyph-name="uni0307" unicode="&#x307;" horiz-adv-x="0" 
d="M-271.5 604q-17.5 16 -17.5 52v11q0 37 17.5 52.5t54.5 15.5h6q36 0 54 -16t18 -52v-11q0 -36 -18 -52t-54 -16h-6q-37 0 -54.5 16z" />
    <glyph glyph-name="uni0308" unicode="&#x308;" horiz-adv-x="0" 
d="M-372.5 605.5q-16.5 15.5 -16.5 48.5v11q0 34 16.5 49t50.5 15h6q34 0 51 -15t17 -49v-11q0 -64 -68 -64h-6q-34 0 -50.5 15.5zM-181 654v11q0 64 68 64h6q34 0 50.5 -15t16.5 -49v-11q0 -33 -16.5 -48.5t-50.5 -15.5h-6q-68 0 -68 64z" />
    <glyph glyph-name="uni030A" unicode="&#x30a;" horiz-adv-x="0" 
d="M-307.5 596q-30.5 27 -30.5 84v14q0 58 30.5 84.5t90.5 26.5h7q59 0 89.5 -26.5t30.5 -84.5v-14q0 -111 -120 -111h-7q-60 0 -90.5 27zM-212 632q27 0 39 12t12 40v4q0 29 -12 40t-39 11h-3q-28 0 -40.5 -11t-12.5 -40v-4q0 -28 12.5 -40t40.5 -12h3z" />
    <glyph glyph-name="uni030B" unicode="&#x30b;" horiz-adv-x="0" 
d="M-416 610l141 202l76 -76l-162 -168zM-229 610l141 202l76 -76l-162 -168z" />
    <glyph glyph-name="uni030C" unicode="&#x30c;" horiz-adv-x="0" 
d="M-387 718l50 51l123 -98l123 98l50 -51l-125 -144h-96z" />
    <glyph glyph-name="uni0326" unicode="&#x326;" horiz-adv-x="0" 
d="M-231 -228q-31 10 -43 26.5t-12 46.5q0 34 17 52t51 18h7q33 0 50.5 -18t17.5 -52v-25q0 -47 -6.5 -101.5t-14.5 -78.5h-67v132z" />
    <glyph glyph-name="uni0327" unicode="&#x327;" horiz-adv-x="0" 
d="M-318 -238v75q38 -10 69 -10q44 0 44 23q0 10 -10.5 18t-45.5 19q-29 9 -42 22.5t-13 37.5q0 13 6 30t15 28h71q-5 -18 -5 -26q0 -9 6.5 -14t30.5 -14q48 -18 65 -37t17 -54q0 -48 -27 -78q-14 -16 -39 -25t-53 -9q-50 0 -89 14z" />
    <glyph glyph-name="uni0328" unicode="&#x328;" horiz-adv-x="0" 
d="M-288.5 -218.5q-34.5 30.5 -34.5 86.5q0 40 26 78t70 69h86q-43 -44 -62.5 -76t-19.5 -61q0 -45 61 -45q27 0 56 9v-77q-47 -14 -92 -14q-56 0 -90.5 30.5z" />
    <glyph glyph-name="uni0394" unicode="&#x394;" horiz-adv-x="673" 
d="M44 76q0 14 1.5 23t7.5 25l198 560h163l204 -557q11 -33 11 -58v-69h-585v76zM472 99l-145 427l-143 -427h288z" />
    <glyph glyph-name="uni03A9" unicode="&#x3a9;" horiz-adv-x="728" 
d="M70 99h115q-66 49 -97.5 123t-31.5 161q0 94 35.5 164.5t105 110t167.5 39.5t167.5 -39.5t105 -110t35.5 -164.5q0 -87 -31.5 -161t-97.5 -123h115v-99h-261v65q0 15 5 26t21 30q48 58 71 118.5t23 134.5q0 100 -38.5 151.5t-114.5 51.5t-114.5 -51.5t-38.5 -151.5
q0 -74 23 -134.5t71 -118.5q16 -19 21 -30t5 -26v-65h-261v99z" />
    <glyph glyph-name="uni03BC" unicode="&#x3bc;" horiz-adv-x="572" 
d="M60 490h143v-316q0 -37 15 -52q17 -16 62 -16q19 0 45 4t44 10v370h143v-490h-124l-4 33q-38 -23 -81 -34.5t-83 -11.5h-8t-13 1v-213h-139v715z" />
    <glyph glyph-name="pi" unicode="&#x3c0;" horiz-adv-x="646" 
d="M95 394h-79v96h614v-96h-79v-394h-143v394h-170v-394h-143v394z" />
    <glyph glyph-name="Wgrave" unicode="&#x1e80;" horiz-adv-x="963" 
d="M12 0zM12 684h165l127 -494l123 494h127l134 -493l122 493h141l-185 -684h-170l-112 399l-103 -399h-169zM366 896l70 95l183 -170l-50 -62z" />
    <glyph glyph-name="wgrave" unicode="&#x1e81;" horiz-adv-x="791" 
d="M10 0zM10 490h151l87 -349l87 349h129l94 -349l82 349h141l-141 -490h-166l-78 260l-77 -260h-165zM283 696l70 95l183 -170l-50 -62z" />
    <glyph glyph-name="Wacute" unicode="&#x1e82;" horiz-adv-x="963" 
d="M12 0zM12 684h165l127 -494l123 494h127l134 -493l122 493h141l-185 -684h-170l-112 399l-103 -399h-169zM366 821l183 170l70 -95l-203 -137z" />
    <glyph glyph-name="wacute" unicode="&#x1e83;" horiz-adv-x="791" 
d="M10 0zM10 490h151l87 -349l87 349h129l94 -349l82 349h141l-141 -490h-166l-78 260l-77 -260h-165zM283 621l183 170l70 -95l-203 -137z" />
    <glyph glyph-name="Wdieresis" unicode="&#x1e84;" horiz-adv-x="963" 
d="M12 0zM12 684h165l127 -494l123 494h127l134 -493l122 493h141l-185 -684h-170l-112 399l-103 -399h-169zM334.5 805.5q-16.5 15.5 -16.5 48.5v11q0 34 16.5 49t50.5 15h6q34 0 51 -15t17 -49v-11q0 -64 -68 -64h-6q-34 0 -50.5 15.5zM526 854v11q0 64 68 64h6
q34 0 50.5 -15t16.5 -49v-11q0 -33 -16.5 -48.5t-50.5 -15.5h-6q-68 0 -68 64z" />
    <glyph glyph-name="wdieresis" unicode="&#x1e85;" horiz-adv-x="791" 
d="M10 0zM10 490h151l87 -349l87 349h129l94 -349l82 349h141l-141 -490h-166l-78 260l-77 -260h-165zM251.5 605.5q-16.5 15.5 -16.5 48.5v11q0 34 16.5 49t50.5 15h6q34 0 51 -15t17 -49v-11q0 -64 -68 -64h-6q-34 0 -50.5 15.5zM443 654v11q0 64 68 64h6q34 0 50.5 -15
t16.5 -49v-11q0 -33 -16.5 -48.5t-50.5 -15.5h-6q-68 0 -68 64z" />
    <glyph glyph-name="Ygrave" unicode="&#x1ef2;" horiz-adv-x="662" 
d="M12 0zM248 279l-236 405h176l150 -276l156 276h156l-246 -406v-278h-156v279zM209 896l70 95l183 -170l-50 -62z" />
    <glyph glyph-name="ygrave" unicode="&#x1ef3;" horiz-adv-x="571" 
d="M57 0zM159 -226l-10 106q61 -11 112 -11q27 0 49.5 6t33.5 17q24 23 24 79v60q-35 -20 -75.5 -30t-78.5 -10q-34 0 -64.5 9.5t-49.5 28.5q-22 22 -32.5 52t-10.5 72v337h143v-317q0 -34 15 -49q10 -9 24 -12.5t37 -3.5q20 0 47 5.5t45 12.5v364h143v-469q0 -91 -20 -147
t-70 -84.5t-137 -28.5q-65 0 -125 13zM129 696l70 95l183 -170l-50 -62z" />
    <glyph glyph-name="endash" unicode="&#x2013;" horiz-adv-x="500" 
d="M0 319h500v-119h-500v119z" />
    <glyph glyph-name="emdash" unicode="&#x2014;" horiz-adv-x="1000" 
d="M0 319h1000v-119h-1000v119z" />
    <glyph glyph-name="quoteleft" unicode="&#x2018;" horiz-adv-x="231" 
d="M62.5 421.5q-18.5 19.5 -18.5 55.5v27q0 50 7 108.5t15 84.5h72v-142q33 -11 46 -28.5t13 -49.5q0 -36 -18.5 -55.5t-54.5 -19.5h-7q-36 0 -54.5 19.5z" />
    <glyph glyph-name="quoteright" unicode="&#x2019;" horiz-adv-x="231" 
d="M93 544q-33 11 -46 28.5t-13 48.5v1q0 36 18.5 55.5t54.5 19.5h7q74 0 74 -75v-27q0 -124 -16 -169q-4 -12 -13 -18t-26 -6h-40v142z" />
    <glyph glyph-name="quotesinglbase" unicode="&#x201a;" horiz-adv-x="231" 
d="M93 -17q-33 11 -46 28.5t-13 49.5q0 36 18.5 55.5t54.5 19.5h7q36 0 54.5 -19.5t18.5 -55.5v-27q0 -50 -7 -108.5t-15 -84.5h-72v142z" />
    <glyph glyph-name="quotedblleft" unicode="&#x201c;" horiz-adv-x="435" 
d="M62.5 421.5q-18.5 19.5 -18.5 55.5v27q0 50 7 108.5t15 84.5h72v-142q33 -11 46 -28.5t13 -49.5q0 -36 -18.5 -55.5t-54.5 -19.5h-7q-36 0 -54.5 19.5zM266.5 421.5q-18.5 19.5 -18.5 55.5v27q0 50 7 108.5t15 84.5h72v-142q33 -11 46 -28.5t13 -49.5q0 -36 -18.5 -55.5
t-54.5 -19.5h-7q-36 0 -54.5 19.5z" />
    <glyph glyph-name="quotedblright" unicode="&#x201d;" horiz-adv-x="435" 
d="M93 544q-33 11 -46 28.5t-13 49.5q0 36 18.5 55.5t54.5 19.5h7q36 0 54.5 -19.5t18.5 -55.5v-27q0 -50 -7 -108.5t-15 -84.5h-72v142zM297 544q-33 11 -46 28.5t-13 49.5q0 36 18.5 55.5t54.5 19.5h7q36 0 54.5 -19.5t18.5 -55.5v-27q0 -50 -7 -108.5t-15 -84.5h-72v142z
" />
    <glyph glyph-name="quotedblbase" unicode="&#x201e;" horiz-adv-x="435" 
d="M93 -17q-33 11 -46 28.5t-13 49.5q0 36 18.5 55.5t54.5 19.5h7q36 0 54.5 -19.5t18.5 -55.5v-27q0 -50 -7 -108.5t-15 -84.5h-72v142zM297 -17q-33 11 -46 28.5t-13 49.5q0 36 18.5 55.5t54.5 19.5h7q36 0 54.5 -19.5t18.5 -55.5v-27q0 -50 -7 -108.5t-15 -84.5h-72v142z
" />
    <glyph glyph-name="dagger" unicode="&#x2020;" horiz-adv-x="561" 
d="M229 351l-187 -9v130l188 -15l-19 227h140l-19 -227l187 9v-130l-188 15l15 -588h-132z" />
    <glyph glyph-name="daggerdbl" unicode="&#x2021;" horiz-adv-x="562" 
d="M229 -12l-187 -8v129l188 -15v257l-187 -8v129l188 -15l-18 227h139l-19 -227l187 8v-129l-188 15v-257l187 8v-129l-188 15l17 -225h-138z" />
    <glyph glyph-name="bullet" unicode="&#x2022;" horiz-adv-x="377" 
d="M76.5 229.5q-34.5 30.5 -34.5 99.5v25q0 69 34.5 99.5t105.5 30.5h13q71 0 105.5 -30.5t34.5 -99.5v-25q0 -69 -34.5 -99.5t-105.5 -30.5h-13q-71 0 -105.5 30.5z" />
    <glyph glyph-name="ellipsis" unicode="&#x2026;" horiz-adv-x="715" 
d="M60 2q-18 16 -18 53v12q0 37 18 53t55 16h8q37 0 54.5 -16t17.5 -53v-12q0 -37 -17.5 -53t-54.5 -16h-8q-37 0 -55 16zM299 2q-18 16 -18 53v12q0 37 18 53t55 16h7q37 0 55 -16t18 -53v-12q0 -37 -18 -53t-55 -16h-7q-37 0 -55 16zM537.5 2q-17.5 16 -17.5 53v12
q0 37 17.5 53t54.5 16h8q37 0 55 -16t18 -53v-12q0 -37 -18 -53t-55 -16h-8q-37 0 -54.5 16z" />
    <glyph glyph-name="perthousand" unicode="&#x2030;" horiz-adv-x="1403" 
d="M95 333.5q-45 53.5 -45 155.5q0 101 45 154.5t134 53.5t134.5 -53.5t45.5 -154.5t-45.5 -155t-134.5 -54t-134 53.5zM621 697h123l-365 -711h-123zM278 403q14 28 14 86q0 57 -14 85t-49 28t-48.5 -27.5t-13.5 -85.5t13.5 -86t48.5 -28t49 28zM637 39.5
q-45 53.5 -45 154.5q0 102 45 155.5t134 53.5q88 0 133.5 -54t45.5 -155t-45.5 -154.5t-133.5 -53.5q-89 0 -134 53.5zM1039 39.5q-45 53.5 -45 154.5q0 102 45 155.5t134 53.5t134.5 -53.5t45.5 -155.5q0 -101 -45.5 -154.5t-134.5 -53.5t-134 53.5zM820 109q14 28 14 85
q0 58 -14 86t-49 28q-36 0 -49.5 -28t-13.5 -86t13.5 -85.5t49.5 -27.5q35 0 49 28zM1222 109q14 28 14 85q0 58 -14 86t-49 28t-48.5 -28t-13.5 -86t13.5 -85.5t48.5 -27.5t49 28z" />
    <glyph glyph-name="guilsinglleft" unicode="&#x2039;" horiz-adv-x="342" 
d="M81 194q-19 21 -27.5 35.5t-8.5 31.5t8.5 31.5t27.5 35.5l148 161l59 -56l-117 -172l117 -172l-59 -56z" />
    <glyph glyph-name="guilsinglright" unicode="&#x203a;" horiz-adv-x="342" 
d="M54 89l117 172l-117 172l59 56l148 -161q19 -21 27.5 -35.5t8.5 -31.5t-8.5 -31.5t-27.5 -35.5l-148 -161z" />
    <glyph glyph-name="fraction" unicode="&#x2044;" horiz-adv-x="480" 
d="M361 697h123l-365 -711h-123z" />
    <glyph glyph-name="Euro" unicode="&#x20ac;" 
d="M191.5 45q-73.5 59 -97.5 175h-85v70l75 10q-1 12 -1 50h-74v71l80 10q44 266 297 266q35 0 80.5 -6.5t79.5 -16.5v-112q-73 15 -132 15q-79 0 -116.5 -34.5t-48.5 -111.5h151v-81h-158q0 -36 1 -50h157v-80h-143q27 -114 164 -114q64 0 143 17v-114q-33 -10 -79 -16.5
t-87 -6.5q-133 0 -206.5 59z" />
    <glyph glyph-name="uni2113" unicode="&#x2113;" horiz-adv-x="269" 
d="M63 0zM63 715h143v-715h-143v715z" />
    <glyph glyph-name="uni2116" unicode="&#x2116;" horiz-adv-x="1156" 
d="M74 684h115l324 -438v438h137v-684h-125l-314 415v-415h-137v684zM770.5 280q-52.5 51 -52.5 139t52.5 139t146.5 51t146.5 -51t52.5 -139t-52.5 -139t-146.5 -51t-146.5 51zM972 351.5q21 22.5 21 67.5t-21 67.5t-55 22.5t-55 -22.5t-21 -67.5t21 -67.5t55 -22.5
t55 22.5z" />
    <glyph glyph-name="trademark" unicode="&#x2122;" horiz-adv-x="746" 
d="M110 612h-98v72h298v-72h-100v-260h-100v260zM351 684h88l86 -187l88 187h85v-332h-90v155l-54 -110h-60l-57 112v-157h-86v332z" />
    <glyph glyph-name="uni2126" unicode="&#x2126;" horiz-adv-x="728" 
d="M56 0zM70 99h115q-66 49 -97.5 123t-31.5 161q0 94 35.5 164.5t105 110t167.5 39.5t167.5 -39.5t105 -110t35.5 -164.5q0 -87 -31.5 -161t-97.5 -123h115v-99h-261v65q0 15 5 26t21 30q48 58 71 118.5t23 134.5q0 100 -38.5 151.5t-114.5 51.5t-114.5 -51.5t-38.5 -151.5
q0 -74 23 -134.5t71 -118.5q16 -19 21 -30t5 -26v-65h-261v99z" />
    <glyph glyph-name="estimated" unicode="&#x212e;" horiz-adv-x="874" 
d="M238.5 33.5q-91.5 47.5 -145 129t-53.5 178.5t53.5 179t145 129.5t199.5 47.5q107 0 198 -47.5t144.5 -129.5t53.5 -179v-8h-642q-7 0 -7 -6v-194q0 -10 11 -23q46 -48 109 -75t134 -27q76 0 142 31t112 85h59q-57 -64 -139 -101t-175 -37q-108 0 -199.5 47.5zM682 352
q7 0 7 6v196q0 12 -12 24q-46 46 -108 72t-130 26q-71 0 -133.5 -26.5t-109.5 -74.5q-11 -13 -11 -26v-191q0 -6 7 -6h490z" />
    <glyph glyph-name="partialdiff" unicode="&#x2202;" 
d="M108.5 47q-61.5 61 -61.5 178q0 104 50.5 158.5t142.5 54.5q37 0 76.5 -9t71.5 -26q-2 54 -11.5 89t-31.5 57q-20 20 -51 28t-82 8q-58 0 -109 -10v109q66 13 143 13q68 0 116.5 -16t82.5 -50q93 -93 93 -321q0 -161 -58 -242.5t-191 -81.5q-119 0 -180.5 61zM367 138.5
q23 43.5 23 143.5v38q-21 4 -49.5 7t-50.5 3q-38 0 -59 -9.5t-30.5 -33t-9.5 -67.5q0 -125 95 -125q58 0 81 43.5z" />
    <glyph glyph-name="uni2206" unicode="&#x2206;" horiz-adv-x="673" 
d="M44 0zM44 76q0 14 1.5 23t7.5 25l198 560h163l204 -557q11 -33 11 -58v-69h-585v76zM472 99l-145 427l-143 -427h288z" />
    <glyph glyph-name="product" unicode="&#x220f;" horiz-adv-x="746" 
d="M121 582h-79v102h662v-102h-79v-807h-155v807h-194v-807h-155v807z" />
    <glyph glyph-name="summation" unicode="&#x2211;" horiz-adv-x="650" 
d="M56 -131l285 357l-287 365v93h527v-99h-356l267 -347l-279 -352h371v-111h-528v94z" />
    <glyph glyph-name="minus" unicode="&#x2212;" 
d="M113 371h374v-94h-374v94z" />
    <glyph glyph-name="radical" unicode="&#x221a;" horiz-adv-x="699" 
d="M153 397h-80v93h194l115 -356l180 596h128l-236 -730h-154z" />
    <glyph glyph-name="infinity" unicode="&#x221e;" horiz-adv-x="690" 
d="M132 164.5q-36 23.5 -57 68.5t-21 106q0 59 21 105t60 71.5t89 25.5q82 0 125 -72q54 72 129 72q44 0 80 -24t57 -69t21 -106q0 -59 -21 -104.5t-59.5 -71t-88.5 -25.5q-43 0 -75.5 18.5t-51.5 52.5q-53 -71 -128 -71q-44 0 -80 23.5zM512 288.5q14 21.5 14 56.5
t-16 55.5t-43 20.5q-20 0 -38.5 -9.5t-37.5 -31.5q24 -63 40.5 -88t40.5 -25q26 0 40 21.5zM261 270q18 10 38 32q-24 63 -40.5 87.5t-40.5 24.5q-26 0 -40 -21t-14 -57q0 -35 16 -55.5t43 -20.5q20 0 38 10z" />
    <glyph glyph-name="integral" unicode="&#x222b;" horiz-adv-x="535" 
d="M50 -228v102q12 -3 31 -5t34 -2q27 0 41.5 4t24.5 13q9 9 13 23t4 37v623q0 46 10 77.5t31 53.5q45 45 134 45q63 0 113 -11v-102q-12 3 -31 5t-34 2q-27 0 -41.5 -4t-24.5 -13q-9 -9 -13 -23t-4 -37v-623q0 -46 -10 -77.5t-31 -53.5q-45 -45 -134 -45q-63 0 -113 11z
" />
    <glyph glyph-name="approxequal" unicode="&#x2248;" 
d="M122 374q0 58 25.5 89t70.5 31q19 0 40 -5.5t52 -15.5q5 -2 27 -9t36 -7q30 0 38 41l64 -9q0 -59 -25.5 -90.5t-70.5 -31.5q-32 0 -90 22q-47 17 -65 17q-30 0 -38 -42zM122 182q0 58 25.5 89.5t70.5 31.5q32 0 92 -22q5 -2 27 -9t36 -7q30 0 38 41l64 -8
q0 -59 -25 -90.5t-71 -31.5q-29 0 -90 21q-47 17 -65 17q-30 0 -38 -42z" />
    <glyph glyph-name="notequal" unicode="&#x2260;" horiz-adv-x="904" 
d="M794 269h-264v-269h-156v269h-264v146h264v269h156v-269h264v-146z" />
    <glyph glyph-name="lessequal" unicode="&#x2264;" 
d="M113 332v92l374 185v-106l-269 -124l269 -120v-112zM113 94h374v-94h-374v94z" />
    <glyph glyph-name="greaterequal" unicode="&#x2265;" 
d="M113 259l269 120l-269 124v106l374 -185v-92l-374 -185v112zM113 94h374v-94h-374v94z" />
    <glyph glyph-name="lozenge" unicode="&#x25ca;" 
d="M57 269q-13 23 -19 39.5t-6 34.5q0 17 6 33t19 39l169 269h149l169 -269q13 -23 19 -39t6 -33q0 -18 -6 -34.5t-19 -39.5l-169 -269h-149zM440 342l-140 220l-139 -220l139 -220z" />
    <glyph glyph-name="uniF8FF" unicode="&#xf8ff;" horiz-adv-x="606" 
d="M100 684h406v-66h-338v-550h75v-68h-143v684zM235 277h205v69h-205v203h271v-68h-202v-67h202v-204h-271v67z" />
    <glyph glyph-name="i.loclTRK" horiz-adv-x="269" 
d="M60 0zM63 490h143v-490h-143v490zM77.5 604q-17.5 16 -17.5 52v11q0 37 17.5 52.5t54.5 15.5h6q36 0 54 -16t18 -52v-11q0 -36 -18 -52t-54 -16h-6q-37 0 -54.5 16z" />
    <glyph glyph-name="notequal.ss01" 
d="M200 181h-87v94h120l33 98h-153v94h186l46 134h94l-46 -134h94v-94h-127l-33 -98h160v-94h-192l-46 -134h-95z" />
    <glyph glyph-name="plus.ss01" horiz-adv-x="904" 
d="M794 269h-264v-269h-156v269h-264v146h264v269h156v-269h264v-146z" />
    <glyph glyph-name="uni0308.case" horiz-adv-x="0" 
d="M-372.5 805.5q-16.5 15.5 -16.5 48.5v11q0 34 16.5 49t50.5 15h6q34 0 51 -15t17 -49v-11q0 -64 -68 -64h-6q-34 0 -50.5 15.5zM-181 854v11q0 64 68 64h6q34 0 50.5 -15t16.5 -49v-11q0 -33 -16.5 -48.5t-50.5 -15.5h-6q-68 0 -68 64z" />
    <glyph glyph-name="uni0307.case" horiz-adv-x="0" 
d="M-271.5 804q-17.5 16 -17.5 52v11q0 37 17.5 52.5t54.5 15.5h6q36 0 54 -16t18 -52v-11q0 -36 -18 -52t-54 -16h-6q-37 0 -54.5 16z" />
    <glyph glyph-name="gravecomb.case" horiz-adv-x="0" 
d="M-341 896l70 95l183 -170l-50 -62z" />
    <glyph glyph-name="acutecomb.case" horiz-adv-x="0" 
d="M-341 821l183 170l70 -95l-203 -137z" />
    <glyph glyph-name="uni030B.case" horiz-adv-x="0" 
d="M-416 810l141 202l76 -76l-162 -168zM-229 810l141 202l76 -76l-162 -168z" />
    <glyph glyph-name="uni0302.case" horiz-adv-x="0" 
d="M-387 813l125 144h96l125 -144l-50 -51l-123 98l-123 -98z" />
    <glyph glyph-name="uni030C.case" horiz-adv-x="0" 
d="M-387 918l50 51l123 -98l123 98l50 -51l-125 -144h-96z" />
    <glyph glyph-name="uni0306.case" horiz-adv-x="0" 
d="M-337 819.5q-38 44.5 -38 115.5l87 3q5 -38 22.5 -57t51.5 -19t51.5 19t22.5 57l86 -3q0 -71 -37.5 -115.5t-122.5 -44.5t-123 44.5z" />
    <glyph glyph-name="uni030A.case" horiz-adv-x="0" 
d="M-307.5 796q-30.5 27 -30.5 84v14q0 58 30.5 84.5t90.5 26.5h7q59 0 89.5 -26.5t30.5 -84.5v-14q0 -111 -120 -111h-7q-60 0 -90.5 27zM-212 832q27 0 39 12t12 40v4q0 29 -12 40t-39 11h-3q-28 0 -40.5 -11t-12.5 -40v-4q0 -28 12.5 -40t40.5 -12h3z" />
    <glyph glyph-name="tildecomb.case" horiz-adv-x="0" 
d="M-397 803q0 65 28 101t78 36q22 0 42.5 -6.5t44.5 -17.5q22 -9 34.5 -13.5t25.5 -4.5q33 0 42 46l71 -11q0 -65 -28 -101t-78 -36q-22 0 -41.5 6t-44.5 18q-16 7 -32.5 12.5t-28.5 5.5q-33 0 -42 -46z" />
    <glyph glyph-name="uni0304.case" horiz-adv-x="0" 
d="M-362 903h295v-98h-295v98z" />
    <glyph glyph-name="acute.case" horiz-adv-x="428" 
d="M87 759zM87 821l183 170l70 -95l-203 -137z" />
    <glyph glyph-name="breve.case" horiz-adv-x="428" 
d="M53 775zM91 819.5q-38 44.5 -38 115.5l87 3q5 -38 22.5 -57t51.5 -19t51.5 19t22.5 57l86 -3q0 -71 -37.5 -115.5t-122.5 -44.5t-123 44.5z" />
    <glyph glyph-name="caron.case" horiz-adv-x="428" 
d="M41 774zM41 918l50 51l123 -98l123 98l50 -51l-125 -144h-96z" />
    <glyph glyph-name="circumflex.case" horiz-adv-x="428" 
d="M41 762zM41 813l125 144h96l125 -144l-50 -51l-123 98l-123 -98z" />
    <glyph glyph-name="dieresis.case" horiz-adv-x="428" 
d="M39 790zM55.5 805.5q-16.5 15.5 -16.5 48.5v11q0 34 16.5 49t50.5 15h6q34 0 51 -15t17 -49v-11q0 -64 -68 -64h-6q-34 0 -50.5 15.5zM247 854v11q0 64 68 64h6q34 0 50.5 -15t16.5 -49v-11q0 -33 -16.5 -48.5t-50.5 -15.5h-6q-68 0 -68 64z" />
    <glyph glyph-name="dotaccent.case" horiz-adv-x="428" 
d="M139 788zM156.5 804q-17.5 16 -17.5 52v11q0 37 17.5 52.5t54.5 15.5h6q36 0 54 -16t18 -52v-11q0 -36 -18 -52t-54 -16h-6q-37 0 -54.5 16z" />
    <glyph glyph-name="grave.case" horiz-adv-x="428" 
d="M87 759zM87 896l70 95l183 -170l-50 -62z" />
    <glyph glyph-name="hungarumlaut.case" horiz-adv-x="428" 
d="M12 768zM12 810l141 202l76 -76l-162 -168zM199 810l141 202l76 -76l-162 -168z" />
    <glyph glyph-name="macron.case" horiz-adv-x="428" 
d="M66 805zM66 903h295v-98h-295v98z" />
    <glyph glyph-name="ring.case" horiz-adv-x="428" 
d="M90 769zM120.5 796q-30.5 27 -30.5 84v14q0 58 30.5 84.5t90.5 26.5h7q59 0 89.5 -26.5t30.5 -84.5v-14q0 -111 -120 -111h-7q-60 0 -90.5 27zM216 832q27 0 39 12t12 40v4q0 29 -12 40t-39 11h-3q-28 0 -40.5 -11t-12.5 -40v-4q0 -28 12.5 -40t40.5 -12h3z" />
    <glyph glyph-name="tilde.case" horiz-adv-x="428" 
d="M31 792zM31 803q0 65 28 101t78 36q22 0 42.5 -6.5t44.5 -17.5q22 -9 34.5 -13.5t25.5 -4.5q33 0 42 46l71 -11q0 -65 -28 -101t-78 -36q-22 0 -41.5 6t-44.5 18q-16 7 -32.5 12.5t-28.5 5.5q-33 0 -42 -46z" />
    <glyph glyph-name=".ttfautohint" horiz-adv-x="428" 
d="M0 0z" />
    </font>
</defs>
</svg>
